<?xml version="1.0" encoding="UTF-8" standalone="no"?>
<svg xmlns:svg="http://www.w3.org/2000/svg" xmlns="http://www.w3.org/2000/svg"
     version="1.1"
     width="400px"
     height="400px"
     viewBox="0 0 178 178"
     id="svg2">
    <defs
         id="defs19" />
    <rect
         width="178"
         height="178"
         x="0"
         y="0"
         style="fill:#ffffff" />
    <path
         d="M 107.4,28.2 104.7,28.5 102.3,29.1 100.2,30.3 96.6,33.9 95.4,36 94.8,38.4 94.5,41.1 94.8,43.8 95.4,46.2 96.6,48.3 98.4,50.4 100.2,51.9 102.3,53.1 104.7,53.7 107.4,54 110.1,53.7 112.5,53.1 114.6,51.9 116.7,50.4 118.2,48.3 119.4,46.2 120,43.8 120.3,41.1 120,38.4 119.4,36 118.2,33.9 116.7,32.1 114.6,30.3 112.5,29.1 110.1,28.5 107.4,28.2 z M 134.7,79.8 119.4,79.8 111,57.6 108,57.6 105,57.3 102,56.7 99.3,55.5 96.9,54 94.8,51.9 93.9,50.7 93.3,49.5 92.4,48 92.1,46.2 61.5,46.2 45.6,72 54.9,77.4 67.2,57 86.1,57 63.9,93 63.9,120.3 32.7,120.3 32.7,130.8 75.6,130.8 75.6,103.2 106.5,148.8 120.3,148.8 86.7,97.5 103.8,70.2 111.6,89.1 134.7,89.1 135,149.1 124.2,159.6 111.6,159.6 120.3,150.9 106.2,150.9 97.8,159.6 32.1,159.6 42.6,149.1 42.6,133.5 30,133.5 30,117.9 42.6,117.9 42.6,18 134.7,18 134.7,79.8 z M 173.1,4.5 4.5,4.5 4.5,173.1 173.1,173.1 173.1,4.5 z"
         style="fill:#008855;fill-opacity:1;fill-rule:evenodd;stroke:none;" />
</svg>
