<?xml version="1.0" encoding="UTF-8" standalone="no"?>
<svg xmlns:svg="http://www.w3.org/2000/svg"
     xmlns="http://www.w3.org/2000/svg"
     version="1.0" width="575px" height="575px" viewBox="-3 -3 580 580">
    <defs />
    <g transform="translate(-107.73,-241.82)">
        <path transform="matrix(1.7265,0,0,2.3776,586.17,950.01)" d="M 55.097,-177.14 A 165.98,120.53 0 1 1 -276.86,-177.14 165.98,120.53 0 1 1 55.097,-177.14 z"
             style="fill:#ffffff;stroke:#000000;stroke-width:0.5;" />
        <g transform="translate(0.29279,4.2458)" style="fill:#000000;fill-rule:evenodd;">
            <path d="M 338.51,638.28 C 337.75,623.48 338.74,621.76 322.3,615.85 295.24,606.11 303.09,575.2 309.01,563.92 321.82,539.53 334.06,535.21 369.58,516.05 405.5,496.68 416.49,461.55 412.46,437.62 408.52,414.35 376.08,385.7 329.37,391.51 256,400.62 226.16,447.84 224.68,452.16 223.98,454.18 217.2,463.38 217.2,463.38 216.95,436.04 268.5,399.59 305.27,388.18 353.18,373.33 390.51,379.62 412.46,417.26 430.76,448.66 413.22,486.28 402.07,496.61 374.99,521.72 365.59,523.2 337.26,544.39 310.47,564.43 310.78,590.58 312.33,595.91 315.65,607.22 323.22,609.36 331.86,612.94 342.81,617.48 342.66,621.25 342.66,621.25 342.66,621.25 341.47,635.95 338.51,638.28 z" />
            <path d="M 218.01,462.31 C 222.8,454.77 214.17,458.7 227.18,450.65 240.19,442.6 253.93,434.18 269.3,430.42 294.5,424.24 330.82,445.28 330.82,445.28 L 339.42,495.07 C 339.42,495.07 315.71,516.11 306.43,525.66 305.21,526.92 297.76,532.48 293.85,542.76 289.95,553.05 289.58,568.06 298.61,574.52 313.65,585.27 332.52,590.19 339.38,597.3 360.74,619.45 338.56,637.77 338.56,637.77 338.56,637.77 346.54,620.24 342.38,610.45 338.86,602.14 329.55,599.45 315.13,592.28 298.36,583.93 287.31,583.79 282.29,566.7 278.26,553.01 277.81,540.07 293.66,525.39 318.19,502.65 323.11,501.27 334.23,491.74 349.81,478.38 309.76,444.87 309.76,444.87 309.76,444.87 296.22,432.23 273.01,436.2 247.68,440.53 226.97,454.19 218.01,462.31 z" />
            <path d="M 529.23,416.36 C 523,416.5 516.57,418.26 513.2,422.55 466.92,481.56 368.52,609.06 334.52,651.58 335.14,651.31 336.5,651.65 337.27,651.46 338.86,651.06 340.18,650.31 341.8,649.99 343.08,649.73 344.47,649.64 345.7,649.33 347.15,648.97 348.76,649.11 350.23,648.86 351.65,648.63 353.59,648.75 354.95,649.02 356.26,649.28 357.63,649.19 358.83,649.49 360.26,649.85 361.6,650.2 363.05,650.49 364.21,650.72 365.2,651.05 366.45,651.3 367.66,651.54 368.8,651.49 369.89,651.93 370.81,652.29 371.71,652.27 372.64,652.74 374.16,653.5 375.9,653.72 377.17,654.36 378.04,654.8 378.69,655.22 379.45,655.99 380.25,656.78 381.06,656.89 381.58,657.93 381.96,658.69 382.63,659.63 382.86,660.55 383.02,661.19 384.12,662.12 384.64,662.64 385.25,663.25 385.63,664.43 385.95,665.08 386.59,666.36 387.27,667.86 388.05,668.64 388.91,669.5 389.36,670.42 390.17,671.24 390.74,671.81 391.24,672.52 391.64,673.05 392.01,673.54 392.68,673.93 393.08,674.33 393.72,674.98 394.05,675.53 394.05,676.46 394.05,677.55 393.39,677.74 392.77,677.58 391.91,677.37 391.11,675.77 390.48,675.14 389.93,674.59 389.02,673.34 388.55,672.39 388.14,671.59 386.81,670.66 386.27,670.11 385.54,669.38 384.91,668.46 384.33,667.68 383.77,666.92 383.13,666.17 382.55,665.39 381.97,664.62 381.74,663.5 381.23,662.49 380.72,661.45 380.02,660.31 379.45,659.55 379.01,658.96 378.35,658.79 377.52,658.58 376.56,658.34 375.58,658.35 374.73,657.93 373.86,657.49 373.27,657.28 372.64,656.64 371.95,655.95 371.32,655.92 370.36,655.68 369.53,655.47 368.58,654.95 367.61,654.71 366.43,654.41 365.45,653.67 364.36,653.39 363.21,653.11 362.52,652.89 361.27,652.89 359.94,652.89 358.59,652.43 357.2,652.43 H 353.64 349.77 C 347.86,652.43 346.01,652.38 344.23,652.74 343.17,652.95 342.32,653.14 341.3,653.55 339.77,654.16 338.19,654.47 336.61,654.86 335.48,655.15 334.76,655.44 333.83,655.68 333.08,655.86 332.54,656.24 332.05,656.49 331.29,656.87 330.43,656.8 330.3,656.8 H 330.27 C 329.58,657.65 328.74,658.73 328.14,659.46 323.39,665.26 317.95,673.22 322.23,687.18 326.71,701.75 340.58,711.79 347.67,714.46 355.88,717.54 377.01,718.62 379.98,716.74 391.04,709.74 390.5,707.88 397.7,694.02 447.59,634.04 527.93,526.23 573.67,467.55 575,465.84 578.54,452.64 573.67,444.83 565.44,431.63 553.07,420.38 537.3,417.08 534.85,416.57 532.07,416.3 529.23,416.36 z M 531.95,424.43 C 537.79,424.22 544.12,426.79 550.55,431.3 561.98,439.33 570.86,443.14 565.14,462.43 L 430.89,638.86 C 415.89,617.07 402.88,606.14 383.23,605.43 L 519.42,430.33 C 523.17,426.42 527.41,424.58 531.95,424.43 z M 380.27,611.68 C 380.86,611.7 382.05,612.18 382.2,612.33 383,613.13 383.69,612.6 383.98,613.8 384.3,615.08 382.4,614.91 381.58,615.24 380.77,615.56 379.19,615.58 378.33,615.58 377.32,615.58 376.89,615.02 376.7,614.27 376.39,613.03 377,612.85 377.83,612.64 378.85,612.39 378.97,612.42 379.95,611.83 379.95,611.71 380.07,611.67 380.27,611.68 z M 372.14,612.11 C 372.42,612.11 372.78,612.25 373.11,612.33 372.46,612.17 373.11,613.8 372.64,614.27 371.66,615.25 371.67,613.04 371.67,612.64 371.67,612.24 371.86,612.11 372.14,612.11 z M 395.61,614.55 C 396.47,614.49 396.77,615.05 397.3,615.58 397.89,616.18 398.11,617.27 398.3,618.02 398.53,618.96 398.16,620.04 397.8,620.77 397.49,621.38 396.28,621.59 395.67,621.74 394.86,621.94 393.97,621.89 393.08,621.89 H 390.33 C 389.54,621.89 389.52,620.69 389.52,620.11 389.52,618.93 389.59,618.94 390.64,618.68 391.37,618.49 391.79,618.18 392.45,618.02 393.07,617.86 393.55,617.33 394.05,616.71 394.06,616.7 394.12,614.88 395.2,614.61 395.35,614.58 395.49,614.56 395.61,614.55 z M 370.2,616.02 C 370.97,615.98 371.61,616.42 371.98,616.71 372.48,617.08 372.64,617.77 372.64,618.49 372.64,619.7 372.5,619.76 371.48,620.27 370.86,620.58 370.03,620.88 369.23,621.08 368.16,621.35 368.03,622.01 366.95,621.74 366.06,621.51 366.14,620.09 365.98,619.3 366.43,618.41 366.59,617.75 367.77,616.86 368.34,616.43 369.2,616.22 369.89,616.05 370.01,616.02 370.09,616.03 370.2,616.02 z M 382.52,617.18 C 383.01,617.17 383.5,617.24 383.98,617.36 384.19,617.31 385.8,619.07 385.8,619.96 385.8,621.18 384.14,621.43 383.17,621.43 381.93,621.43 380.47,620.89 379.61,620.46 378.98,620.14 379.16,619.32 378.95,618.49 378.69,617.44 380.36,617.54 381.08,617.36 381.55,617.25 382.02,617.18 382.52,617.18 z M 383.86,623.36 C 384.41,623.33 385.01,623.36 385.14,623.36 385.46,623.36 385.68,623.7 385.95,623.86 386.17,623.81 386.2,625.94 386.11,626.3 385.9,627.12 383.83,625.96 383.83,625.96 382.97,625.1 383.17,624.95 382.86,623.71 382.81,623.5 383.31,623.39 383.86,623.36 z M 376.2,623.86 C 376.52,623.94 377.83,625.38 378.14,625.8 378.52,626.3 378.02,627.85 377.83,628.24 377.43,629.04 377.01,629.22 376.36,629.55 375.66,629.9 374.53,629.34 374.27,629.21 373.96,629.06 374,627.08 373.92,626.77 373.69,625.84 373.83,625.24 374.11,624.68 374.3,624.3 375.81,624.06 376.2,623.86 z M 364.2,625.14 C 364.16,625.18 365.75,624.95 367.45,625.8 368.15,626.15 368.61,626.15 369.08,626.77 369.7,627.6 369.31,628.13 368.89,628.55 368.46,628.98 367.09,628 366.95,627.93 366.29,627.59 365.68,627.63 364.86,627.43 364.23,627.27 363.23,627.24 362.73,627.11 361.7,626.85 362,625.95 362.23,625.49 362.24,625.48 364.18,625.15 364.2,625.14 z M 384.83,628.02 C 385.5,628.04 386.21,628.25 386.77,628.39 387.7,628.63 387.97,629.15 389.02,628.89 389.14,628.89 389.54,631.47 389.67,632.14 389.9,633.27 389.12,633.24 388.39,633.43 387.51,633.65 386.55,633.58 385.61,633.58 384.95,633.58 383.82,631.79 383.36,631.33 382.89,630.87 382.66,629.81 382.55,629.36 382.31,628.43 383.44,628.26 384.17,628.08 384.39,628.03 384.6,628.01 384.83,628.02 z M 363.64,631.3 C 363.89,631.3 364.1,631.33 364.2,631.33 365.08,631.33 364.86,632.2 364.86,633.11 364.86,634.05 364.28,634.31 363.7,634.89 363.19,635.41 362.75,634.79 362.42,634.24 363.17,633.86 361.77,632.64 361.77,631.8 361.77,631.36 362.9,631.3 363.64,631.3 z M 371.89,632.83 C 372.16,632.79 372.51,632.96 372.8,632.96 372.8,632.94 375.32,633.8 375.89,634.08 376.97,634.62 377.22,635.56 377.02,636.36 376.82,637.16 375.12,637.18 374.42,637.18 373.62,637.18 372.85,637.33 371.98,637.33 371.12,637.33 370.58,636.55 370.2,636.18 369.72,635.69 369.89,634.88 369.89,634.08 369.89,633.81 371.32,633.31 371.67,632.96 371.74,632.89 371.8,632.84 371.89,632.83 z M 381.7,634.43 C 382.02,634.36 382.38,636.02 382.55,636.68 382.82,637.78 382.44,637.93 381.58,638.14 380.72,638.36 380.24,638.26 379.77,638.14 379.25,638.01 379.45,636.13 379.45,635.71 379.45,634.95 380.97,634.73 381.58,634.58 381.62,634.49 381.66,634.43 381.7,634.43 z M 352.92,635.43 C 353.52,635.31 354.18,635.62 354.8,635.86 355.88,636.29 356.57,637.14 357.2,637.99 358.03,639.09 356.34,639.5 355.77,639.61 354.61,639.84 353.73,640.08 352.52,640.08 351.46,640.08 350.8,639.98 350.55,638.96 350.28,637.89 350.57,637.64 350.89,636.99 351.22,636.33 352.37,635.71 353.17,635.71 H 352.36 C 352.55,635.56 352.72,635.46 352.92,635.43 z M 360.77,637.93 C 361.16,637.93 361.57,638 361.92,638.14 362.33,637.32 362.15,640 361.92,640.89 361.69,641.81 360.75,641.54 360.14,641.39 359.78,641.3 359.23,639.84 359.17,639.61 358.91,638.56 358.74,638.6 359.64,638.14 359.97,637.98 360.37,637.92 360.77,637.93 z M 372.42,639.21 C 372.66,639.19 372.89,639.2 373.11,639.21 373.4,639.22 373.64,639.24 373.77,639.27 373.94,639.18 375.95,640.65 376.36,641.05 377.07,641.76 377.52,641.98 377.52,643.02 377.52,643.74 375.62,643.49 375.08,643.49 374.05,643.49 373.44,643.03 372.64,642.83 372.16,642.71 371.77,641.79 371.67,641.39 371.44,640.47 370.59,640.86 370.86,639.77 370.95,639.42 371.7,639.25 372.42,639.21 z M 364.36,641.77 C 364.98,641.86 365.93,642.84 366.64,643.02 367.91,643.34 367.9,643.48 368.27,644.96 368.51,645.94 367.94,646.39 367.27,646.89 366.66,647.35 365.08,647.05 364.36,647.05 363.21,647.05 362.51,646.32 362.08,645.46 361.63,644.56 361.71,643.92 362.08,643.18 362.38,642.57 363.26,642.47 363.86,642.02 363.97,641.8 364.15,641.74 364.36,641.77 z M 376.23,646.3 C 376.96,646.35 377.73,647.2 377.98,647.71 378.33,648.39 378.28,649.12 378.14,649.68 378.01,650.18 375.71,649.72 375.55,649.68 374.53,649.42 373.81,649.04 373.11,648.52 372.07,647.74 373.39,646.93 373.77,646.74 374.25,646.49 374.96,646.52 375.61,646.55 375.8,646.38 376.01,646.29 376.23,646.3 z M 375.61,646.55 C 375.59,646.57 375.56,646.56 375.55,646.58 H 376.36 C 376.14,646.58 375.87,646.56 375.61,646.55 z M 334.2,651.96 C 333.59,652.73 333.12,653.28 332.55,653.99 332.72,653.89 332.92,653.77 333.05,653.71 333.5,653.48 333.94,652.67 334.17,652.08 334.17,652.03 334.19,652 334.2,651.96 z M 395.33,682.93 C 395.62,682.87 396.08,683.11 396.48,683.27 396.59,682.84 397.85,685.36 397.95,685.86 398.11,686.66 398.25,687.34 398.45,688.14 398.67,689 398.77,689.6 398.77,690.55 398.77,691.39 397.92,691.64 397.48,691.86 396.68,692.26 395.64,691.77 395.36,691.21 395.03,690.55 395.2,689.39 395.2,688.61 V 687.96 C 395.2,687.41 395.36,686.49 395.36,685.71 395.36,685.06 395.05,684.38 395.05,683.43 395.05,683.09 395.15,682.96 395.33,682.93 z" />
        </g>
        <path d="M 394.72,250.47 C 326.19,250.47 263.44,275.42 215,316.72 213.73,317.8 212.47,318.9 211.22,320 210.72,320.45 210.22,320.9 209.72,321.35 208.65,322.31 207.59,323.27 206.53,324.25 206.25,324.51 205.97,324.77 205.69,325.03 204.44,326.2 203.2,327.38 201.97,328.56 200.56,329.93 199.16,331.3 197.78,332.69 196.43,334.05 195.07,335.42 193.75,336.81 192.38,338.26 191.03,339.74 189.69,341.22 189.53,341.39 189.37,341.55 189.22,341.72 188.06,343 186.92,344.29 185.78,345.59 184.54,347.02 183.34,348.46 182.13,349.91 182.08,349.96 182.02,350.01 181.97,350.06 141.47,398.44 117.06,460.79 117.06,528.84 117.06,682.5 241.44,807.18 394.72,807.18 463.4,807.18 526.26,782.11 574.75,740.65 L 574.78,740.68 C 575.17,740.35 575.56,740.02 575.94,739.68 576.1,739.55 576.25,739.41 576.41,739.28 577.35,738.46 578.29,737.64 579.22,736.81 579.96,736.15 580.68,735.5 581.41,734.84 581.62,734.65 581.83,734.47 582.03,734.28 583,733.39 583.95,732.49 584.91,731.59 585.77,730.78 586.62,729.97 587.47,729.15 587.59,729.04 587.7,728.92 587.82,728.81 588.9,727.75 589.96,726.69 591.03,725.62 591.35,725.31 591.66,725 591.97,724.68 593.22,723.42 594.46,722.13 595.69,720.84 595.81,720.71 595.94,720.59 596.07,720.46 597.47,718.98 598.88,717.48 600.25,715.96 601.51,714.57 602.74,713.16 603.97,711.75 604.2,711.48 604.43,711.23 604.66,710.96 605.71,709.75 606.75,708.52 607.78,707.28 648.11,658.95 672.41,596.73 672.41,528.84 672.41,375.18 548,250.46 394.72,250.46 z M 394.72,312.53 C 513.83,312.53 610.5,409.44 610.5,528.84 610.5,579.69 592.99,626.46 563.66,663.4 L 259.16,360.62 C 296.21,330.56 343.37,312.53 394.72,312.53 z M 226.1,393.94 530.66,696.78 C 493.54,727.02 446.24,745.15 394.72,745.15 275.61,745.15 178.97,648.24 178.97,528.84 178.97,477.84 196.61,430.93 226.1,393.93 z"
             style="fill:#CC0000; stroke:none;" />
    </g>
</svg>
