<?xml version="1.0" encoding="UTF-8" standalone="no"?>
<svg
     xmlns:svg="http://www.w3.org/2000/svg"
     xmlns="http://www.w3.org/2000/svg"
     version="1.1" width="575px" height="575px" viewBox="-2 -2 578 578">
    <defs
         id="defs4" />
    <path
         d="M 574.25,287.5 A 286.75,286.75 0 1 1 0.75017,287.5 286.75,286.75 0 1 1 574.25,287.5 z"
         style="fill:#ffffff;stroke:#000000;stroke-width:1;fill-rule:evenodd;" />
    <g transform="matrix(1,0,0,1,643,20)" style="fill:#000000;stroke:none;">
        <path d="M -386,130.72 C -386,130.72 -412.57,133 -433.69,151.69 -436.78,154.42 -463.53,183.59 -467.09,190 -471.24,198.46 -472.47,217.62 -472.47,217.62 -479.48,211.33 -483.59,197.59 -483.59,197.59 -483.59,197.59 -490.2,207.49 -493.41,216.75 -496.01,224.28 -502.23,246.94 -494.75,267.12 -490.55,281.31 -472.91,311.69 -472.91,311.69 -481.22,312.28 -499.66,301.44 -499.66,301.44 -499.66,301.44 -497.4,319.01 -496.09,323.28 -493.85,330.61 -482.33,342.16 -479.59,345.12 -472.14,353.22 -448.84,361.59 -448.84,361.59 -448.84,361.59 -452.84,361.71 -459.97,362.06 -459.97,362.06 -449.41,376.77 -439.91,377.84 -430.31,378.49 -411.84,383 -406.5,384.78 -404.4,385.48 -392.61,393.05 -397.12,403.5 -397.12,403.5 -385.88,398.12 -384.22,396.81 -379.68,393.25 -375.28,381.73 -373.97,379 -371.18,373.17 -374.84,353.59 -374.84,353.59 -374.84,353.59 -376.94,356.84 -380.62,362.06 -380.62,362.06 -376.86,349.36 -374.84,345.56 -372.1,340.4 -359.41,325.86 -356.56,320.16 -353.83,314.69 -349,284.94 -349,284.94 L -354.34,228.78 C -358.14,204.67 -370.52,183.31 -375.75,181.53 L -375.28,204.72 C -375.28,204.72 -392.09,192.06 -396.25,184.22 -396.25,184.22 -408.29,164.71 -402.47,153.91 -402.47,153.91 -396.93,137.84 -386,130.72 z M -451,253.09 C -446.49,262.36 -445.3,265.5 -442.69,267.34 -438.65,270.2 -429.87,272.09 -429.87,272.09 -435.34,266.87 -434.62,262.12 -434.62,262.12 -429.63,263.31 -417.57,269.84 -410.62,274.47 -402.78,279.7 -390.41,286.07 -390.41,296.09 -390.41,299.9 -390.41,316.53 -390.41,316.53 -387.08,313.68 -383.68,305.39 -383.06,302.75 -381.16,294.67 -383.78,290.76 -384,282.56 -374.97,285.65 -369.32,297.8 -368.56,299.91 -365.24,309.17 -367.51,326.4 -370.69,329.84 -373.54,332.93 -383.83,347.84 -385.66,353.59 -391.83,364.52 -389.23,375.21 -394.22,382.34 -394.22,382.34 -395.57,372.4 -408.25,364.53 -417.04,359.07 -442.24,350.68 -449.12,346.72 -464.81,337.69 -462.66,317.97 -462.66,317.97 -451.49,326.76 -445.23,326.61 -434.62,332.44 -430.11,320.32 -436.43,308.23 -444.34,301.56 -448.86,297.76 -455.13,286.41 -457.19,276.12 -458.38,270.18 -454.02,257.87 -451,253.09 z" />
        <path d="M -206.09,177.22 -347.28,339.47 C -354.83,349.8 -366.08,367.18 -368.78,379.25 -368.78,379.25 -372.37,398.48 -382.66,402.31 -388.38,402.82 -408.84,414.3 -414.94,421.62 -417.54,424.75 -426.92,441.25 -418.69,452 -407.88,461.94 -405.78,461.13 -400.37,462 -383.4,464.74 -375.7,456.27 -372.91,452.44 -364.21,440.48 -367.18,420.95 -364.56,415.37 -358.95,406.32 -359.01,409.13 -350.47,403.37 -338.62,396.6 -326.42,390.69 -319.62,384.59 -312.88,379.16 -308.24,371.53 -303,365.28 L -167.34,205.59 -172.97,177.5 C -184.37,177.17 -196.05,177.26 -206.09,177.22 z M -203.06,184.12 -184.16,184.16 -326.37,348.12 C -335.26,357.99 -345.15,367.38 -355.06,376.41 -352.62,362.97 -354.77,361.42 -342.19,343.37 L -342.06,343.22 C -342.01,343.15 -341.92,343.07 -341.87,343 z M -178.37,188.87 -175,205.59 -308.37,360.87 C -311.61,364.64 -314.34,369.13 -319.22,374.19 -321.11,376.15 -335.39,387.19 -344.53,387.31 -341.83,373.66 -329.77,363.12 -321.53,352.53 -321.51,352.5 -321.49,352.47 -321.47,352.44 z" />
    </g>
    <path d="M 286.99,9.6328 C 218.46,9.6328 155.72,34.581 107.27,75.883 106,76.967 104.74,78.058 103.49,79.164 102.99,79.608 102.49,80.06 101.99,80.508 100.92,81.468 99.861,82.437 98.805,83.414 98.523,83.675 98.242,83.934 97.961,84.195 96.712,85.361 95.47,86.539 94.242,87.727 92.835,89.089 91.434,90.46 90.055,91.852 88.702,93.217 87.348,94.584 86.024,95.977 84.649,97.422 83.305,98.908 81.961,100.38 81.807,100.55 81.646,100.71 81.492,100.88 80.331,102.16 79.193,103.45 78.055,104.76 76.813,106.18 75.612,107.62 74.399,109.07 74.352,109.13 74.29,109.17 74.242,109.23 33.747,157.61 9.3362,219.96 9.3362,288.01 9.3362,441.66 133.72,566.35 286.99,566.35 355.67,566.35 418.53,541.28 467.02,499.82 L 467.05,499.85 C 467.44,499.52 467.83,499.18 468.21,498.85 468.37,498.72 468.52,498.58 468.68,498.45 469.62,497.63 470.56,496.81 471.49,495.98 472.23,495.32 472.95,494.67 473.68,494.01 473.89,493.82 474.1,493.64 474.3,493.45 475.27,492.56 476.22,491.66 477.18,490.76 478.04,489.95 478.89,489.14 479.74,488.32 479.86,488.21 479.97,488.09 480.09,487.98 481.17,486.92 482.24,485.86 483.3,484.79 483.62,484.48 483.93,484.17 484.24,483.85 485.49,482.58 486.73,481.3 487.96,480.01 488.08,479.88 488.21,479.76 488.34,479.63 489.74,478.15 491.15,476.65 492.52,475.13 493.78,473.74 495.01,472.33 496.24,470.91 496.47,470.65 496.7,470.4 496.93,470.13 497.98,468.91 499.02,467.68 500.05,466.45 540.38,418.12 564.68,355.89 564.68,288.01 564.68,134.35 440.27,9.6327 286.99,9.6327 z M 286.99,71.695 C 406.1,71.695 502.77,168.61 502.77,288.01 502.77,338.85 485.26,385.63 455.93,422.57 L 151.43,119.79 C 188.49,89.727 235.64,71.695 286.99,71.695 z M 118.37,153.1 422.93,455.95 C 385.81,486.18 338.51,504.32 286.99,504.32 167.89,504.32 71.242,407.41 71.242,288.01 71.242,237 88.879,190.1 118.37,153.1 z"
         style="fill:#CC0000;" />
</svg>
