<?xml version="1.0" encoding="UTF-8" standalone="no"?>
<svg
   xmlns:lucid="lucid"
   xmlns:dc="http://purl.org/dc/elements/1.1/"
   xmlns:cc="http://creativecommons.org/ns#"
   xmlns:rdf="http://www.w3.org/1999/02/22-rdf-syntax-ns#"
   xmlns:svg="http://www.w3.org/2000/svg"
   xmlns="http://www.w3.org/2000/svg"
   xmlns:xlink="http://www.w3.org/1999/xlink"
   id="svg2240"
   version="1.1"
   height="1011"
   width="1830.57">
  <metadata
     id="metadata2246">
    <rdf:RDF>
      <cc:Work
         rdf:about="">
        <dc:format>image/svg+xml</dc:format>
        <dc:type
           rdf:resource="http://purl.org/dc/dcmitype/StillImage" />
        <dc:title></dc:title>
      </cc:Work>
    </rdf:RDF>
  </metadata>
  <defs
     id="defs2244" />
  <g
     id="g2238"
     lucid:page-tab-id="0_0"
     transform="translate(-9 -200)">
    <path
       id="path1148"
       fill="#fff"
       d="M0 0h1870.87v1322.83H0z" />
    <path
       id="path1150"
       fill="#29aae1"
       d="M839.57 960h124.87v37.7H839.57V960z" />
    <path
       id="path1152"
       fill="#2188b4"
       d="M845.57 1002.03h112.87v2.93H845.57v-2.93z" />
    <path
       id="path1154"
       fill="#fff"
       d="M848.57 966.66h11.5v4.86h-11.5v-4.86z" />
    <path
       id="path1156"
       fill="#fff"
       d="M854.07 969.95c2.87 0 2.87 0 2.87 2.65v.5c0 2.65 0 2.65-2.87 2.65-2.75 0-2.75 0-2.75-2.65v-.5c0-2.65 0-2.65 2.75-2.65zM866.44 966.66h11.5v4.86h-11.5v-4.86z" />
    <path
       id="path1158"
       fill="#fff"
       d="M872.07 969.95c2.75 0 2.75 0 2.75 2.65v.5c0 2.65 0 2.65-2.75 2.65-2.88 0-2.88 0-2.88-2.65v-.5c0-2.65 0-2.65 2.87-2.65zM885.32 966.66h11.5v4.86h-11.5v-4.86z" />
    <path
       id="path1160"
       fill="#fff"
       d="M890.94 969.95c2.75 0 2.75 0 2.75 2.65v.5c0 2.65 0 2.65-2.76 2.65-2.87 0-2.87 0-2.87-2.65v-.5c0-2.65 0-2.65 2.87-2.65zM903.57 966.66h11.62v4.86h-11.63v-4.86z" />
    <path
       id="path1162"
       fill="#fff"
       d="M909.2 969.95c2.74 0 2.74 0 2.74 2.65v.5c0 2.65 0 2.65-2.75 2.65-2.76 0-2.76 0-2.76-2.65v-.5c0-2.65 0-2.65 2.75-2.65zM926.7 962.93h33.5v30.73h-33.5v-30.73z" />
    <path
       id="path1164"
       fill="#54bbe7"
       d="M927.82 963.96h31.12v28.53h-31.12v-28.54z" />
    <path
       id="path1166"
       fill="#fff"
       d="M848.82 981.83h11.62v4.8h-11.62v-4.8z" />
    <path
       id="path1168"
       fill="#fff"
       d="M854.44 985.07c2.75 0 2.75 0 2.75 2.65v.5c0 2.65 0 2.65-2.76 2.65-2.75 0-2.75 0-2.75-2.65v-.5c0-2.65 0-2.65 2.74-2.65zM866.7 981.83h11.62v4.8H866.7v-4.8z" />
    <path
       id="path1170"
       fill="#fff"
       d="M872.32 985.07c2.75 0 2.75 0 2.75 2.65v.5c0 2.65 0 2.65-2.75 2.65s-2.75 0-2.75-2.65v-.5c0-2.65 0-2.65 2.75-2.65zM885.57 981.83h11.62v4.8h-11.63v-4.8z" />
    <path
       id="path1172"
       fill="#fff"
       d="M891.2 985.07c2.74 0 2.74 0 2.74 2.65v.5c0 2.65 0 2.65-2.75 2.65-2.76 0-2.76 0-2.76-2.65v-.5c0-2.65 0-2.65 2.75-2.65zM903.94 981.83h11.63v4.8h-11.63v-4.8z" />
    <path
       id="path1174"
       fill="#fff"
       d="M909.57 985.07c2.75 0 2.75 0 2.75 2.65v.5c0 2.65 0 2.65-2.75 2.65s-2.75 0-2.75-2.65v-.5c0-2.65 0-2.65 2.75-2.65zM931.32 965.27l-3.13 3.06 3.24 3-.12-6.06zM931.32 985.25l-3.13 3.06 3.12 3.02v-6.07zM955.2 991.37l3.12-3.02-3.13-3.06v6.07zM955.32 971.48l3.12-3.02-3.12-3.06v6.08z" />
    <path
       id="path1176"
       fill="#fff"
       d="M931.07 967.07h4.75v2.43h-4.75v-2.43zM951.07 967.3h4.62v2.42h-4.63v-2.43zM931.07 987.05h4.62v2.43h-4.63v-2.43zM950.94 987.23h4.63v2.43h-4.63v-2.43z" />
    <path
       id="path1178"
       fill="#fff"
       d="M933.57 968.7l2.12-1.63 17.37 20.97-2.13 1.62-17.37-20.97z" />
    <path
       id="path1180"
       fill="#fff"
       d="M951.07 967.3l2 1.75-17.38 20.47-2.13-1.75 17.5-20.48z" />
    <path
       id="path1182"
       fill="#54bbe7"
       d="M943.7 975.9l2 2.46-.38.27-2-2.47.37-.27zM941.44 978.23l2 2.47-.37.27-2-2.47.37-.27z" />
    <use
       id="use1184"
       transform="matrix(1,0,0,1,809.5669291338584,1005.0000000000001) translate(59.84567901234568 19.444444444444443)"
       xlink:href="#a" />
    <path
       id="path1186"
       fill="#29aae1"
       d="M1074.57 940h70.07v120.12h-70.07V940z" />
    <path
       id="path1188"
       fill="#fff"
       d="M1101.3 1023.4h35.64c1.12 0 1.12 0 1.12 1.2 0 1.08 0 1.08-1.12 1.08h-35.63c-1.18 0-1.18 0-1.18-1.08 0-1.2 0-1.2 1.2-1.2zM1101.38 1029.52h35.5c1.53 0 1.53 0 1.53 1.56v.36c0 1.56 0 1.56-1.53 1.56h-35.5c-1.6 0-1.6 0-1.6-1.56v-.36c0-1.56 0-1.56 1.6-1.56zM1101.52 1037.08h35.56c1.54 0 1.54 0 1.54 1.56v.36c0 1.56 0 1.56-1.54 1.56h-35.56c-1.54 0-1.54 0-1.54-1.56v-.36c0-1.56 0-1.56 1.54-1.56zM1133.93 998.32c0 3.12-2.52 5.64-5.74 5.64-3.23 0-5.82-2.52-5.82-5.64 0-3.12 2.6-5.64 5.8-5.64 3.23 0 5.75 2.52 5.75 5.64z" />
    <path
       id="path1190"
       fill="#54bbe7"
       d="M1131.62 998.32c0 1.92-1.54 3.48-3.5 3.48s-3.57-1.56-3.57-3.48 1.6-3.48 3.57-3.48c1.96 0 3.5 1.56 3.5 3.48z" />
    <use
       id="use1192"
       transform="matrix(1,0,0,1,1044.5669291338584,1060) translate(17.006172839506164 18.111111111111114)"
       xlink:href="#b" />
    <use
       id="use1194"
       transform="matrix(1,0,0,1,1044.5669291338584,1060) translate(6.358024691358018 44.777777777777786)"
       xlink:href="#c" />
    <path
       id="path1196"
       fill="#29aae1"
       d="M1259.57 940h70.07v120.12h-70.07V940z" />
    <path
       id="path1198"
       fill="#fff"
       d="M1286.3 1023.4h35.64c1.12 0 1.12 0 1.12 1.2 0 1.08 0 1.08-1.12 1.08h-35.63c-1.18 0-1.18 0-1.18-1.08 0-1.2 0-1.2 1.2-1.2zM1286.38 1029.52h35.5c1.53 0 1.53 0 1.53 1.56v.36c0 1.56 0 1.56-1.53 1.56h-35.5c-1.6 0-1.6 0-1.6-1.56v-.36c0-1.56 0-1.56 1.6-1.56zM1286.52 1037.08h35.56c1.54 0 1.54 0 1.54 1.56v.36c0 1.56 0 1.56-1.54 1.56h-35.56c-1.54 0-1.54 0-1.54-1.56v-.36c0-1.56 0-1.56 1.54-1.56zM1318.93 998.32c0 3.12-2.52 5.64-5.74 5.64-3.23 0-5.82-2.52-5.82-5.64 0-3.12 2.6-5.64 5.8-5.64 3.23 0 5.75 2.52 5.75 5.64z" />
    <path
       id="path1200"
       fill="#54bbe7"
       d="M1316.62 998.32c0 1.92-1.54 3.48-3.5 3.48s-3.57-1.56-3.57-3.48 1.6-3.48 3.57-3.48c1.96 0 3.5 1.56 3.5 3.48z" />
    <use
       id="use1202"
       transform="matrix(1,0,0,1,1229.5669291338584,1060) translate(-12.685185185185176 18.111111111111114)"
       xlink:href="#d" />
    <use
       id="use1204"
       transform="matrix(1,0,0,1,1229.5669291338584,1060) translate(6.358024691358018 44.777777777777786)"
       xlink:href="#e" />
    <path
       id="path1206"
       fill="#29aae1"
       d="M1696.57 1021.92h15.8v11.73h-15.8v-11.73zM1756.77 890h62.8v153.34h-62.8V890z" />
    <path
       id="path1208"
       fill="#29aae1"
       d="M1620.57 915.84h166.2v106.25h-166.2V915.83z" />
    <path
       id="path1210"
       fill-opacity=".98"
       fill="#fff"
       d="M1628.17 922.3h151.6v95.03h-151.6V922.3z" />
    <path
       id="path1212"
       fill="#29aae1"
       d="M1627.17 1034.5h151.4l-7.4 25.33h-151.6l7.6-25.33z" />
    <path
       id="path1214"
       fill="#29aae1"
       d="M1626.17 1033.65h155l13 26.35h-155l-13-26.35z" />
    <path
       id="path1216"
       fill="#fff"
       d="M1678.77 1053.2h55.2v5.27h-55.2v-5.27zM1648.37 1037.73h4.2v3.4h-4.2v-3.4zM1655.57 1037.9h4.2v3.4h-4.2v-3.4zM1664.97 1044.02h4v3.4h-4v-3.4zM1663.37 1037.56h4.2v3.4h-4.2v-3.4zM1670.37 1037.73h4.2v3.4h-4.2v-3.4zM1677.37 1037.56h4v3.4h-4v-3.4zM1719.97 1038.07h4.2v3.4h-4.2v-3.4zM1726.37 1038.07h4v3.4h-4v-3.4zM1732.17 1038.07h4.2v3.4h-4.2v-3.4zM1739.17 1038.07h4.2v3.4h-4.2v-3.4zM1745.77 1038.07h4v3.4h-4v-3.4zM1737.97 1043.68h4.2v3.4h-4.2v-3.4zM1753.17 1038.07h4.2v3.4h-4.2v-3.4zM1672.57 1043.85h4.2v3.4h-4.2v-3.4zM1680.57 1043.85h4v3.4h-4v-3.4zM1731.57 1043.5h3.6v3.4h-3.6v-3.4zM1724.57 1043.5h4v3.4h-4v-3.4zM1684.97 1037.73h4v3.4h-4v-3.4zM1692.57 1037.9h4.2v3.4h-4.2v-3.4zM1699.77 1037.73h4.2v3.4h-4.2v-3.4zM1707.77 1037.73h4v3.4h-4v-3.4zM1714.17 1037.9h4.2v3.4h-4.2v-3.4zM1687.57 1043.68h4v3.4h-4v-3.4zM1695.17 1043.68h4.2v3.4h-4.2v-3.4zM1702.57 1043.85h4v3.4h-4v-3.4zM1709.57 1043.85h4.2v3.4h-4.2v-3.4zM1716.97 1043.5h4v3.4h-4v-3.4z" />
    <path
       id="path1218"
       fill="none"
       d="M1619.77 1059.83l174.4-.5-12.4-25.68-154.4.17-7.6 26z" />
    <path
       id="path1220"
       fill="#fff"
       d="M1801.17 898h11.2c1.2 0 1.2 0 1.2 1.18 0 1.2 0 1.2-1.2 1.2h-11.2c-1.2 0-1.2 0-1.2-1.2s0-1.2 1.2-1.2zM1801.17 903.6h11.4c1 0 1 0 1 1.02s0 1.02-1 1.02h-11.4c-1.2 0-1.2 0-1.2-1.02s0-1.02 1.2-1.02zM1756.97 914.14h30.2v1.36h-30.2v-1.36zM1787.17 914.14h1.4v108.3h-1.4v-108.3z" />
    <path
       id="path1222"
       fill="#fff"
       d="M1756.77 1022.26h31.6v1.53h-31.6v-1.54zM1756.97 1030.93h24.2c1.2 0 1.2 0 1.2 1.2 0 1.35 0 1.35-1.2 1.35h-24.2c-1.2 0-1.2 0-1.2-1.36 0-1.2 0-1.2 1.2-1.2z" />
    <path
       id="path1224"
       fill="#fff"
       d="M1782.17 1031.27l6.8 11.73-2 1.2-6.6-11.9 1.8-1.03zM1695.77 1021.92h17v1.7h-17v-1.7zM1696.37 1031.78h16.2v1.87h-16.2v-1.87z" />
    <use
       id="use1226"
       transform="matrix(1,0,0,1,1589.5669291338584,1060) translate(85.67901234567901 17.77777777777778)"
       xlink:href="#f" />
    <use
       id="use1228"
       transform="matrix(1,0,0,1,1589.5669291338584,1060) translate(143.5185185185185 17.77777777777778)"
       xlink:href="#g" />
    <use
       id="use1230"
       transform="matrix(1,0,0,1,1589.5669291338584,1060) translate(66.0185185185185 44.44444444444444)"
       xlink:href="#h" />
    <use
       id="use1232"
       transform="matrix(1,0,0,1,1589.5669291338584,1060) translate(130 71.11111111111111)"
       xlink:href="#I" />
    <path
       id="path1234"
       fill="#29aae1"
       d="M1109.57 404.44h149.85V451h-149.85v-46.56z" />
    <path
       id="path1236"
       fill="#2188b4"
       d="M1116.77 456.28h135.45v3.6h-135.45v-3.6z" />
    <path
       id="path1238"
       fill="#fff"
       d="M1116.62 422.2h13.95v5.88h-13.95v-5.88z" />
    <path
       id="path1240"
       fill="#fff"
       d="M1123.37 426.16c3.3 0 3.3 0 3.3 3.36v.6c0 3.24 0 3.24-3.3 3.24s-3.3 0-3.3-3.24v-.6c0-3.36 0-3.36 3.3-3.36zM1138.07 422.2h13.95v5.88h-13.95v-5.88z" />
    <path
       id="path1242"
       fill="#fff"
       d="M1144.82 426.16c3.3 0 3.3 0 3.3 3.36v.6c0 3.24 0 3.24-3.3 3.24s-3.3 0-3.3-3.24v-.6c0-3.36 0-3.36 3.3-3.36zM1160.72 422.2h13.95v5.88h-13.95v-5.88z" />
    <path
       id="path1244"
       fill="#fff"
       d="M1167.47 426.16c3.3 0 3.3 0 3.3 3.36v.6c0 3.24 0 3.24-3.3 3.24s-3.3 0-3.3-3.24v-.6c0-3.36 0-3.36 3.3-3.36zM1182.77 422.2h13.95v5.88h-13.95v-5.88z" />
    <path
       id="path1246"
       fill="#fff"
       d="M1189.52 426.16c3.3 0 3.3 0 3.3 3.36v.6c0 3.24 0 3.24-3.3 3.24s-3.3 0-3.3-3.24v-.6c0-3.36 0-3.36 3.3-3.36z" />
    <path
       id="path1248"
       fill="#29aae1"
       d="M1244.42 373.96c5.7 1.08 5.7 1.08 4.65 6.6l-5.4 27.48c-1.05 5.64-1.05 5.64-6.75 4.56-5.55-1.08-5.55-1.08-4.5-6.6l5.25-27.6c1.2-5.52 1.2-5.52 6.75-4.44z" />
    <path
       id="path1250"
       fill="#29aae1"
       d="M1250.42 343.48c3.45.72 3.45.72 2.85 4.08l-5.7 28.68c-.6 3.36-.6 3.36-4.05 2.76-3.6-.72-3.6-.72-2.85-4.08l5.55-28.68c.6-3.36.6-3.36 4.2-2.76z" />
    <path
       id="path1252"
       fill="#fff"
       d="M1214.12 408.04h40.2v37.92h-40.2v-37.92z" />
    <path
       id="path1254"
       fill="#54bbe7"
       d="M1215.47 409.36h37.35v35.16h-37.35v-35.16z" />
    <path
       id="path1256"
       fill="#fff"
       d="M1233.47 411.04l-4.5 4.68h2.4l.15 6.48h4.65l-.45-6.48h2.4l-4.65-4.68zM1234.22 441.76l4.5-4.44-2.25-.12-.15-6.48-4.65-.12.45 6.48h-2.55l4.65 4.68zM1235.87 426.76l4.5 4.68.15-2.28h6.45l.3-4.56-6.6.24v-1.68l.15-.72-4.95 4.32zM1231.97 426.76l-4.5-4.56-.15 2.28-6.45-.12-.3 4.56 6.6-.24v1.8l-.15.72 4.95-4.44z" />
    <path
       id="path1258"
       fill="#29aae1"
       d="M1124.27 371.56c5.55-1.08 5.55-1.08 6.6 4.44l5.4 27.48c1.2 5.64 1.2 5.64-4.5 6.72s-5.7 1.08-6.75-4.56l-5.4-27.48c-1.05-5.52-1.05-5.52 4.65-6.6z" />
    <path
       id="path1260"
       fill="#29aae1"
       d="M1118.27 341.08c3.45-.72 3.45-.72 4.2 2.76l5.55 28.68c.6 3.36.6 3.36-2.85 4.08-3.45.6-3.45.6-4.05-2.76l-5.7-28.68c-.6-3.48-.6-3.48 2.85-4.08z" />
    <use
       id="use1262"
       transform="matrix(1,0,0,1,1079.5669291338584,460) translate(53.82716049382716 19.444444444444443)"
       xlink:href="#j" />
    <use
       id="use1264"
       transform="matrix(1,0,0,1,1079.5669291338584,460) translate(89.62962962962962 19.444444444444443)"
       xlink:href="#k" />
    <path
       id="path1266"
       fill="#29aae1"
       d="M588.04 664.72l12.6-.24 21.68 80.4H571.7l16.34-80.16z" />
    <path
       id="path1268"
       fill="#2188b4"
       d="M590.97 651.52h6.75v12.24h-6.75v-12.24z" />
    <path
       id="path1270"
       fill="#2188b4"
       d="M600.87 646.84c0 3.6-3 6.6-6.6 6.6-3.6 0-6.53-3-6.53-6.6 0-3.6 2.93-6.6 6.53-6.6s6.6 3 6.6 6.6z" />
    <path
       id="path1272"
       fill="#54bbe7"
       d="M607.7 638.92c2.02 1.8 3.14 5.28 3 8.88-.16 3.6-2.48 7.08-2.48 7.08s-1.73 1.68-.3-1.08c1.5-2.76 1.8-3.84 2.02-4.8.15-.96.3-.72.23-2.76-.08-2.04-.98-4.2-1.28-4.44-.3-.24-1.58-2.28-1.58-2.28l.37-.6zM581.07 638.68c-1.88 1.92-2.93 5.4-2.78 9 .14 3.6 2.32 7.08 2.32 7.08s1.65 1.56.22-1.2c-1.35-2.64-1.65-3.84-1.8-4.8-.22-.96-.3-.72-.3-2.76.08-1.92.98-4.08 1.2-4.32.3-.36 1.5-2.4 1.5-2.4l-.37-.6zM615.57 632.56c4.42 3.24 6.9 9.48 6.6 15.84-.38 6.36-5.55 12.48-5.55 12.48s-3.75 2.88-.53-1.92c3.14-4.8 3.9-6.84 4.34-8.52.45-1.68.68-1.32.53-4.92-.15-3.48-2.1-7.32-2.78-7.8-.68-.48-3.53-4.08-3.53-4.08l.9-1.08zM574.32 631.24c-4.58 3.48-7.05 10.08-6.68 16.8.38 6.72 5.63 13.2 5.63 13.2s3.75 3 .52-2.04c-3.23-5.16-4.06-7.32-4.43-9.12-.45-1.8-.75-1.32-.6-5.16.22-3.72 2.17-7.68 2.85-8.28.67-.48 3.52-4.2 3.52-4.2l-.82-1.2z" />
    <path
       id="path1274"
       fill="#54bbe7"
       d="M621.8 625.96c6.67 4.56 10.34 13.2 9.82 22.08-.53 8.76-8.25 17.28-8.25 17.28s-5.55 4.08-.75-2.64c4.72-6.72 5.85-9.6 6.52-11.88.6-2.4.98-1.8.75-6.84-.23-4.92-3.16-10.08-4.13-10.92-.98-.72-5.25-5.64-5.25-5.64l1.27-1.44zM567.87 625c-6.98 4.68-10.8 13.44-10.28 22.56.52 9 8.62 17.76 8.62 17.76s5.77 4.08.82-2.76c-4.95-6.96-6.15-9.84-6.82-12.24-.68-2.4-1.05-1.8-.83-6.84.22-5.16 3.3-10.44 4.34-11.16 1.05-.72 5.48-5.76 5.48-5.76l-1.35-1.56z" />
    <use
       id="use1276"
       transform="matrix(1,0,0,1,527.0669291338584,745) translate(-34.2901234567901 18.111111111111114)"
       xlink:href="#l" />
    <use
       id="use1278"
       transform="matrix(1,0,0,1,527.0669291338584,745) translate(-3.4876543209876587 44.777777777777786)"
       xlink:href="#m" />
    <path
       id="path1280"
       fill="#29aae1"
       d="M819.57 689.44h149.85V736H819.57v-46.56z" />
    <path
       id="path1282"
       fill="#2188b4"
       d="M826.77 741.28h135.45v3.6H826.77v-3.6z" />
    <path
       id="path1284"
       fill="#fff"
       d="M826.62 707.2h13.95v5.88h-13.95v-5.88z" />
    <path
       id="path1286"
       fill="#fff"
       d="M833.37 711.16c3.3 0 3.3 0 3.3 3.36v.6c0 3.24 0 3.24-3.3 3.24s-3.3 0-3.3-3.24v-.6c0-3.36 0-3.36 3.3-3.36zM848.07 707.2h13.95v5.88h-13.95v-5.88z" />
    <path
       id="path1288"
       fill="#fff"
       d="M854.82 711.16c3.3 0 3.3 0 3.3 3.36v.6c0 3.24 0 3.24-3.3 3.24s-3.3 0-3.3-3.24v-.6c0-3.36 0-3.36 3.3-3.36zM870.72 707.2h13.95v5.88h-13.95v-5.88z" />
    <path
       id="path1290"
       fill="#fff"
       d="M877.47 711.16c3.3 0 3.3 0 3.3 3.36v.6c0 3.24 0 3.24-3.3 3.24s-3.3 0-3.3-3.24v-.6c0-3.36 0-3.36 3.3-3.36zM892.77 707.2h13.95v5.88h-13.95v-5.88z" />
    <path
       id="path1292"
       fill="#fff"
       d="M899.52 711.16c3.3 0 3.3 0 3.3 3.36v.6c0 3.24 0 3.24-3.3 3.24s-3.3 0-3.3-3.24v-.6c0-3.36 0-3.36 3.3-3.36z" />
    <path
       id="path1294"
       fill="#29aae1"
       d="M954.42 658.96c5.7 1.08 5.7 1.08 4.65 6.6l-5.4 27.48c-1.05 5.64-1.05 5.64-6.75 4.56-5.55-1.08-5.55-1.08-4.5-6.6l5.25-27.6c1.2-5.52 1.2-5.52 6.75-4.44z" />
    <path
       id="path1296"
       fill="#29aae1"
       d="M960.42 628.48c3.45.72 3.45.72 2.85 4.08l-5.7 28.68c-.6 3.36-.6 3.36-4.05 2.76-3.6-.72-3.6-.72-2.85-4.08l5.55-28.68c.6-3.36.6-3.36 4.2-2.76z" />
    <path
       id="path1298"
       fill="#fff"
       d="M924.12 693.04h40.2v37.92h-40.2v-37.92z" />
    <path
       id="path1300"
       fill="#54bbe7"
       d="M925.47 694.36h37.35v35.16h-37.35v-35.16z" />
    <path
       id="path1302"
       fill="#fff"
       d="M943.47 696.04l-4.5 4.68h2.4l.15 6.48h4.65l-.45-6.48h2.4l-4.65-4.68zM944.22 726.76l4.5-4.44-2.25-.12-.15-6.48-4.65-.12.45 6.48h-2.55l4.65 4.68zM945.87 711.76l4.5 4.68.15-2.28h6.45l.3-4.56-6.6.24v-1.68l.15-.72-4.95 4.32zM941.97 711.76l-4.5-4.56-.15 2.28-6.45-.12-.3 4.56 6.6-.24v1.8l-.15.72 4.95-4.44z" />
    <path
       id="path1304"
       fill="#29aae1"
       d="M834.27 656.56c5.55-1.08 5.55-1.08 6.6 4.44l5.4 27.48c1.2 5.64 1.2 5.64-4.5 6.72s-5.7 1.08-6.75-4.56l-5.4-27.48c-1.05-5.52-1.05-5.52 4.65-6.6z" />
    <path
       id="path1306"
       fill="#29aae1"
       d="M828.27 626.08c3.45-.72 3.45-.72 4.2 2.76l5.55 28.68c.6 3.36.6 3.36-2.85 4.08-3.45.6-3.45.6-4.05-2.76l-5.7-28.68c-.6-3.48-.6-3.48 2.85-4.08z" />
    <use
       id="use1308"
       transform="matrix(1,0,0,1,789.5669291338584,745) translate(42.808641975308646 18.111111111111114)"
       xlink:href="#f" />
    <use
       id="use1310"
       transform="matrix(1,0,0,1,789.5669291338584,745) translate(100.64814814814815 18.111111111111114)"
       xlink:href="#n" />
    <use
       id="use1312"
       transform="matrix(1,0,0,1,789.5669291338584,745) translate(34.01234567901234 44.777777777777786)"
       xlink:href="#o" />
    <path
       id="path1314"
       fill="#29aae1"
       d="M520 404.44h149.85V451H520v-46.56z" />
    <path
       id="path1316"
       fill="#2188b4"
       d="M527.2 456.28h135.45v3.6H527.2v-3.6z" />
    <path
       id="path1318"
       fill="#fff"
       d="M527.05 422.2H541v5.88h-13.95v-5.88z" />
    <path
       id="path1320"
       fill="#fff"
       d="M533.8 426.16c3.3 0 3.3 0 3.3 3.36v.6c0 3.24 0 3.24-3.3 3.24s-3.3 0-3.3-3.24v-.6c0-3.36 0-3.36 3.3-3.36zM548.5 422.2h13.95v5.88H548.5v-5.88z" />
    <path
       id="path1322"
       fill="#fff"
       d="M555.25 426.16c3.3 0 3.3 0 3.3 3.36v.6c0 3.24 0 3.24-3.3 3.24s-3.3 0-3.3-3.24v-.6c0-3.36 0-3.36 3.3-3.36zM571.15 422.2h13.95v5.88h-13.95v-5.88z" />
    <path
       id="path1324"
       fill="#fff"
       d="M577.9 426.16c3.3 0 3.3 0 3.3 3.36v.6c0 3.24 0 3.24-3.3 3.24s-3.3 0-3.3-3.24v-.6c0-3.36 0-3.36 3.3-3.36zM593.2 422.2h13.95v5.88H593.2v-5.88z" />
    <path
       id="path1326"
       fill="#fff"
       d="M599.95 426.16c3.3 0 3.3 0 3.3 3.36v.6c0 3.24 0 3.24-3.3 3.24s-3.3 0-3.3-3.24v-.6c0-3.36 0-3.36 3.3-3.36z" />
    <path
       id="path1328"
       fill="#29aae1"
       d="M654.85 373.96c5.7 1.08 5.7 1.08 4.65 6.6l-5.4 27.48c-1.05 5.64-1.05 5.64-6.75 4.56-5.55-1.08-5.55-1.08-4.5-6.6l5.25-27.6c1.2-5.52 1.2-5.52 6.75-4.44z" />
    <path
       id="path1330"
       fill="#29aae1"
       d="M660.85 343.48c3.45.72 3.45.72 2.85 4.08l-5.7 28.68c-.6 3.36-.6 3.36-4.05 2.76-3.6-.72-3.6-.72-2.85-4.08l5.55-28.68c.6-3.36.6-3.36 4.2-2.76z" />
    <path
       id="path1332"
       fill="#fff"
       d="M624.55 408.04h40.2v37.92h-40.2v-37.92z" />
    <path
       id="path1334"
       fill="#54bbe7"
       d="M625.9 409.36h37.35v35.16H625.9v-35.16z" />
    <path
       id="path1336"
       fill="#fff"
       d="M643.9 411.04l-4.5 4.68h2.4l.15 6.48h4.65l-.45-6.48h2.4l-4.65-4.68zM644.65 441.76l4.5-4.44-2.25-.12-.15-6.48-4.65-.12.45 6.48H640l4.65 4.68zM646.3 426.76l4.5 4.68.15-2.28h6.45l.3-4.56-6.6.24v-1.68l.15-.72-4.95 4.32zM642.4 426.76l-4.5-4.56-.15 2.28-6.45-.12-.3 4.56 6.6-.24v1.8l-.15.72 4.95-4.44z" />
    <path
       id="path1338"
       fill="#29aae1"
       d="M534.7 371.56c5.55-1.08 5.55-1.08 6.6 4.44l5.4 27.48c1.2 5.64 1.2 5.64-4.5 6.72s-5.7 1.08-6.75-4.56l-5.4-27.48c-1.05-5.52-1.05-5.52 4.65-6.6z" />
    <path
       id="path1340"
       fill="#29aae1"
       d="M528.7 341.08c3.45-.72 3.45-.72 4.2 2.76l5.55 28.68c.6 3.36.6 3.36-2.85 4.08-3.45.6-3.45.6-4.05-2.76l-5.7-28.68c-.6-3.48-.6-3.48 2.85-4.08z" />
    <use
       id="use1342"
       transform="matrix(1,0,0,1,490,460) translate(46.5432098765432 19.444444444444443)"
       xlink:href="#p" />
    <use
       id="use1344"
       transform="matrix(1,0,0,1,490,460) translate(96.91358024691357 19.444444444444443)"
       xlink:href="#k" />
    <path
       id="path1346"
       fill="#29aae1"
       d="M819.57 400h150v65.45h-150V400z" />
    <path
       id="path1348"
       fill="#fff"
       d="M838.62 414.28h30.9v30.52h-30.9v-30.52zM917.97 414.7h31.05v30.45h-31.05V414.7z" />
    <path
       id="path1350"
       fill="#2188b4"
       d="M836.67 468.67h119.25c.6 0 .6 0 .6.63s0 .63-.6.63H836.67c-.6 0-.6 0-.6-.63s0-.63.6-.63z" />
    <path
       id="path1352"
       fill="#fff"
       d="M894.27 421.56h-1.8c10.65 0 10.65 0 10.65 11.4v-1.95c0 11.42 0 11.42-10.65 11.42h1.8c-10.5 0-10.5 0-10.5-11.4v1.95c0-11.4 0-11.4 10.5-11.4z" />
    <path
       id="path1354"
       fill="#fff"
       d="M880.92 416.38l13.35 5.67 3 14.07-13.35-5.67-3-14.07z" />
    <path
       id="path1356"
       fill="#54bbe7"
       d="M893.37 426.88h.45c4.65 0 4.65 0 4.65 4.97v.42c0 4.97 0 4.97-4.65 4.97h-.45c-4.65 0-4.65 0-4.65-4.97v-.42c0-4.97 0-4.97 4.65-4.97z" />
    <use
       id="use1358"
       transform="matrix(1,0,0,1,789.5669291338584,470) translate(51.358024691358025 19.444444444444443)"
       xlink:href="#q" />
    <use
       id="use1360"
       transform="matrix(1,0,0,1,789.5669291338584,470) translate(93.33333333333334 19.444444444444443)"
       xlink:href="#r" />
    <path
       id="path1362"
       fill="none"
       stroke-width="6"
       stroke="#5e5e5e"
       d="M672.85 429.94H816.58" />
    <path
       id="path1364"
       fill="#5e5e5e"
       d="M672.93 432.94h-3.08v-6h3.08M819.57 432.94h-3.08v-6h3.07" />
    <path
       id="path1366"
       fill="none"
       stroke-width="2"
       stroke="#5e5e5e"
       d="M1108.57 430h-138" />
    <path
       id="path1368"
       fill="#5e5e5e"
       d="M1109.57 431h-1.03v-2h1.03M970.6 431h-1.03v-2h1.02" />
    <path
       id="path1370"
       fill="none"
       stroke-width="2"
       stroke="#5e5e5e"
       d="M894.57 688.44V621" />
    <path
       id="path1372"
       fill="#5e5e5e"
       d="M895.57 689.44h-2v-1.03h2M895.57 621.03h-2V620h2" />
    <path
       id="path1374"
       fill="none"
       stroke-width="2"
       stroke="#5e5e5e"
       d="M894.57 599V470.93" />
    <path
       id="path1376"
       fill="#5e5e5e"
       d="M895.57 600h-2v-1.03h2M895.57 470.96h-2v-1.03h2m0-1.26h-2v-1.74h2" />
    <path
       id="path1378"
       fill="#693cc5"
       stroke-opacity="0"
       stroke="#fff"
       d="M1184.57 300c-22.08 0-40-17.92-40-40s17.92-40 40-40 40 17.92 40 40-17.92 40-40 40zm0-76.56c-20.24 0-36.56 16.32-36.56 36.56 0 20.24 16.33 36.56 36.57 36.56 20.24 0 36.56-16.32 36.56-36.56 0-20.24-16.32-36.56-36.56-36.56z" />
    <path
       id="path1380"
       fill="#693cc5"
       stroke-opacity="0"
       stroke="#fff"
       d="M1203.7 284.03h-6.37c-.96 0-1.7-.75-1.7-1.7v-33c-3.47-1.8-6.77-2.6-10.65-2.7-4.25.1-7.8 1.04-11.55 3.07v32.63c0 .95-.75 1.7-1.67 1.7h-6.33c-.96 0-1.7-.75-1.7-1.7V245.2c0-.5.2-.93.57-1.26 6.1-5 12.84-7.32 20.68-7.13 7.43-.14 13.8 1.94 19.77 6.33.46.33.67.8.67 1.33v37.87c0 .95-.75 1.7-1.7 1.7zm-4.66-3.4h2.96V245.3c-5.2-3.58-10.68-5.2-17.02-5.1-6.7-.18-12.5 1.7-17.84 5.77v34.66h2.9V248.6c0-.65.35-1.22.93-1.5 4.5-2.55 8.84-3.78 14-3.87 4.73.14 8.73 1.18 12.9 3.4h.17c.62.28 1 .85 1 1.56z" />
    <use
       id="use1382"
       transform="matrix(1,0,0,1,1114.5669291338584,309) translate(32.376543209876544 17.77777777777778)"
       xlink:href="#s" />
    <use
       id="use1384"
       transform="matrix(1,0,0,1,1114.5669291338584,309) translate(28.672839506172842 44.44444444444444)"
       xlink:href="#t" />
    <path
       id="path1386"
       fill="#693cc5"
       stroke-opacity="0"
       stroke="#fff"
       d="M592.07 300c-22.08 0-40-17.92-40-40s17.92-40 40-40 40 17.92 40 40-17.92 40-40 40zm0-76.56c-20.24 0-36.56 16.32-36.56 36.56 0 20.24 16.33 36.56 36.57 36.56 20.24 0 36.56-16.32 36.56-36.56 0-20.24-16.32-36.56-36.56-36.56z" />
    <path
       id="path1388"
       fill="#693cc5"
       stroke-opacity="0"
       stroke="#fff"
       d="M611.2 284.03h-6.37c-.96 0-1.7-.75-1.7-1.7v-33c-3.47-1.8-6.77-2.6-10.65-2.7-4.25.1-7.8 1.04-11.55 3.07v32.63c0 .95-.75 1.7-1.67 1.7h-6.33c-.96 0-1.7-.75-1.7-1.7V245.2c0-.5.2-.93.57-1.26 6.1-5 12.84-7.32 20.68-7.13 7.43-.14 13.8 1.94 19.77 6.33.46.33.67.8.67 1.33v37.87c0 .95-.75 1.7-1.7 1.7zm-4.66-3.4h2.96V245.3c-5.2-3.58-10.68-5.2-17.02-5.1-6.7-.18-12.5 1.7-17.84 5.77v34.66h2.9V248.6c0-.65.35-1.22.93-1.5 4.5-2.55 8.84-3.78 14-3.87 4.73.14 8.73 1.18 12.9 3.4h.17c.62.28 1 .85 1 1.56z" />
    <use
       id="use1390"
       transform="matrix(1,0,0,1,522.0669291338584,309) translate(32.376543209876544 17.77777777777778)"
       xlink:href="#s" />
    <use
       id="use1392"
       transform="matrix(1,0,0,1,522.0669291338584,309) translate(28.672839506172842 44.44444444444444)"
       xlink:href="#t" />
    <path
       id="path1394"
       fill-opacity="0"
       fill="#fff"
       stroke-width="3"
       stroke-opacity="0"
       stroke="#000"
       d="M1020 413.5c0-3.3 2.7-6 6-6h68c3.3 0 6 2.7 6 6v8c0 3.3-2.7 6-6 6h-68c-3.3 0-6-2.7-6-6z" />
    <use
       id="use1396"
       transform="matrix(1,0,0,1,1025,412.5) translate(-7.592592592592574 10.666666666666664)"
       xlink:href="#u" />
    <path
       id="path1398"
       fill="none"
       stroke-width="2"
       stroke="#5e5e5e"
       d="M970.42 719.94h3.02m4.04 0h6.05m4.03 0h6.05m4.05 0h6.05m4.03 0h6.05m4.04 0h6.05m4.03 0h6.05m4.04 0h6.04m4.03 0h6.05m4.04 0h6.05m4.04 0h6.05m4.03 0h6.05m4.03 0h6.06m4.04 0h6.05m4.03 0h6.05m4.04 0h6.05m4.03 0h6.05m4.04 0h6.05m4.02 0h6.05m4.04 0h6.06m4.03 0h6.05m4.03 0h6.05m4.03 0h6.06m4.03 0h6.05m4.03 0h6.06m4.02 0h6.05m4.03 0h6.06m4.03 0h6.04m4.04 0h6.05m4.03 0h6.05m4.05 0h6.05m4.03 0h6.05m4.04 0h6.05m4.03 0h6.05m4.04 0h6.04m4.03 0h6.05m4.04 0h6.05m4.04 0h3.03l2.7-.73m2.57-2.56l.73-2.7v-2.97m0-3.96v-5.94m0-3.96v-5.95m0-3.96v-5.95m0-3.97v-5.94m0-3.96v-5.95m0-3.96v-5.94m0-3.97v-5.94m0-3.96v-5.95m0-3.95v-5.94m0-3.96v-5.94m0-3.96V602m0-3.97v-5.94m0-3.98v-5.94m0-3.96v-5.95m0-3.96v-5.93m0-3.97v-5.94m0-3.96v-5.95m0-3.96v-5.95m0-3.97v-5.94m0-3.96v-5.95m0-3.96v-5.94m0-3.97v-5.94m0-3.96v-5.95m0-3.95v-5.94m0-3.96v-5.94m0-3.96v-5.95m0-3.97v-2.97l-.73-2.7m-2.57-2.57l-2.7-.74h-3.12m-4.16 0h-6.24m-4.16 0h-6.24m-4.16 0h-6.23m-4.16 0h-6.23m-4.15 0h-6.24m-4.16 0h-6.23m-4.17 0h-6.24m-4.16 0h-3.12" />
    <path
       id="path1400"
       fill="#5e5e5e"
       d="M970.44 720.94h-1.02v-2h1.02M1260.44 441.46h-1.02v-2h1.02" />
    <path
       id="path1402"
       fill-opacity="0"
       fill="#fff"
       stroke-width="3"
       stroke-opacity="0"
       stroke="#000"
       d="M1259.57 443.5c0-3.3 2.68-6 6-6h68c3.3 0 6 2.7 6 6v8c0 3.3-2.7 6-6 6h-68c-3.32 0-6-2.7-6-6z" />
    <use
       id="use1404"
       transform="matrix(1,0,0,1,1264.5669291338581,442.5) translate(-0.18518518518516913 10.666666666666664)"
       xlink:href="#v" />
    <path
       id="path1406"
       fill-opacity="0"
       fill="#fff"
       stroke-width="3"
       stroke-opacity="0"
       stroke="#000"
       d="M679.57 413.5c0-3.3 2.68-6 6-6h68c3.3 0 6 2.7 6 6v8c0 3.3-2.7 6-6 6h-68c-3.32 0-6-2.7-6-6z" />
    <use
       id="use1408"
       transform="matrix(1,0,0,1,684.5669291338584,412.5) translate(-7.592592592592574 10.666666666666664)"
       xlink:href="#u" />
    <path
       id="path1410"
       fill="#00188f"
       stroke-opacity="0"
       stroke="#000"
       d="M1404.13 372.44c0 3.3-1.32 6.38-3.36 8.7l3.6 3.8c3-3.2 4.84-7.55 4.84-12.38 0-4.85-1.83-9.2-4.83-12.2l-3.6 3.78c2.04 1.93 3.36 5 3.36 8.3z" />
    <path
       id="path1412"
       fill="#00188f"
       stroke-opacity="0"
       stroke="#000"
       d="M1414.3 372.44c0 6.27-2.45 12-6.4 16.23l3.6 3.8c4.83-5.12 7.83-12.1 7.83-19.92 0-7.8-2.88-14.8-7.72-19.9l-3.6 3.85c3.85 3.95 6.3 9.68 6.3 15.94z" />
    <path
       id="path1414"
       fill="#00188f"
       stroke-opacity="0"
       stroke="#000"
       d="M1424.53 372.44c0 9.36-3.6 17.77-9.28 23.76l3.6 3.8c6.64-7.04 10.72-16.83 10.72-27.56 0-10.72-4.08-20.4-10.72-27.44l-3.6 3.85c5.76 6 9.28 14.4 9.28 23.6zM1399.2 372.56c0 2.8-2.15 5.1-4.8 5.1-2.63 0-4.83-2.3-4.83-5.1s2.16-5.12 4.84-5.12c2.65 0 4.8 2.3 4.8 5.12z" />
    <path
       id="path1416"
       fill-opacity="0"
       fill="#fff"
       stroke-width="3"
       stroke-opacity="0"
       stroke="#000"
       d="M1259.57 406c0-3.3 2.68-6 6-6h68c3.3 0 6 2.7 6 6v8c0 3.3-2.7 6-6 6h-68c-3.32 0-6-2.7-6-6z" />
    <use
       id="use1418"
       transform="matrix(1,0,0,1,1264.5669291338581,405) translate(-0.18518518518516913 10.666666666666664)"
       xlink:href="#w" />
    <path
       id="path1420"
       fill="none"
       stroke-width="2"
       stroke="#5e5e5e"
       d="M1388.8 373.87h-33.23c-3.32 0-6 2.7-6 6V414c0 3.3-2.7 6-6 6h-83" />
    <path
       id="path1422"
       fill="#5e5e5e"
       d="M1389.86 374.3l.42.57h-1.52v-2h.86" />
    <path
       id="path1424"
       fill="none"
       stroke-width="2"
       stroke="#5e5e5e"
       d="M1260.6 420h-1.03" />
    <path
       id="path1426"
       fill-opacity="0"
       fill="#fff"
       stroke-width="3"
       stroke-opacity="0"
       stroke="#000"
       d="M1359.57 331c0-3.3 2.68-6 6-6h108c3.3 0 6 2.7 6 6v8c0 3.3-2.7 6-6 6h-108c-3.32 0-6-2.7-6-6z" />
    <use
       id="use1428"
       transform="matrix(1,0,0,1,1364.5669291338586,330) translate(1.3888888888889142 10.666666666666664)"
       xlink:href="#x" />
    <use
       id="use1430"
       transform="matrix(1,0,0,1,1364.5669291338586,330) translate(39.87037037037038 10.666666666666664)"
       xlink:href="#y" />
    <path
       id="path1432"
       fill-opacity="0"
       fill="#fff"
       stroke-width="3"
       stroke-opacity="0"
       stroke="#000"
       d="M535 606c0-3.3 2.7-6 6-6h108c3.3 0 6 2.7 6 6v8c0 3.3-2.7 6-6 6H541c-3.3 0-6-2.7-6-6z" />
    <use
       id="use1434"
       transform="matrix(1,0,0,1,540,605) translate(12.09259259259261 10.666666666666664)"
       xlink:href="#x" />
    <use
       id="use1436"
       transform="matrix(1,0,0,1,540,605) translate(50.574074074074076 10.666666666666664)"
       xlink:href="#z" />
    <path
       id="path1438"
       fill-opacity="0"
       fill="#fff"
       stroke-width="3"
       stroke-opacity="0"
       stroke="#000"
       d="M834.57 606c0-3.3 2.68-6 6-6h108c3.3 0 6 2.7 6 6v8c0 3.3-2.7 6-6 6h-108c-3.32 0-6-2.7-6-6z" />
    <use
       id="use1440"
       transform="matrix(1,0,0,1,839.5669291338584,605) translate(12.09259259259261 10.666666666666664)"
       xlink:href="#x" />
    <use
       id="use1442"
       transform="matrix(1,0,0,1,839.5669291338584,605) translate(50.574074074074076 10.666666666666664)"
       xlink:href="#z" />
    <path
       id="path1444"
       fill="none"
       stroke-width="2"
       stroke="#5e5e5e"
       d="M894.57 745.88V959" />
    <path
       id="path1446"
       fill="#5e5e5e"
       d="M895.57 745.9h-2v-1.02h2M895.57 960h-2v-1.03h2" />
    <path
       id="path1448"
       fill="none"
       stroke-width="2"
       stroke="#5e5e5e"
       d="M818.57 715h-3.05m-4.07 0h-6.1m-4.06 0h-6.1m-4.08 0h-6.1m-4.06 0h-6.1m-4.07 0h-6.1m-4.08 0h-6.1m-4.06 0h-6.1m-4.07 0h-6.1m-4.07 0h-6.1m-4.07 0h-6.1m-4.06 0h-6.1m-4.07 0h-6.1m-4.06 0h-6.1m-4.07 0h-6.1m-4.06 0h-6.1m-4.07 0h-6.1m-4.06 0h-6.1m-4.06 0h-6.1m-4.06 0h-6.1m-4.07 0h-3.04" />
    <path
       id="path1450"
       fill="#5e5e5e"
       d="M819.57 716h-1.03v-2h1.03M615.3 716h-.77l-.54-2h1.3" />
    <path
       id="path1452"
       fill="#29aae1"
       d="M1444.57 940h70.07v120.12h-70.07V940z" />
    <path
       id="path1454"
       fill="#fff"
       d="M1471.3 1023.4h35.64c1.12 0 1.12 0 1.12 1.2 0 1.08 0 1.08-1.12 1.08h-35.63c-1.18 0-1.18 0-1.18-1.08 0-1.2 0-1.2 1.2-1.2zM1471.38 1029.52h35.5c1.53 0 1.53 0 1.53 1.56v.36c0 1.56 0 1.56-1.53 1.56h-35.5c-1.6 0-1.6 0-1.6-1.56v-.36c0-1.56 0-1.56 1.6-1.56zM1471.52 1037.08h35.56c1.54 0 1.54 0 1.54 1.56v.36c0 1.56 0 1.56-1.54 1.56h-35.56c-1.54 0-1.54 0-1.54-1.56v-.36c0-1.56 0-1.56 1.54-1.56zM1503.93 998.32c0 3.12-2.52 5.64-5.74 5.64-3.23 0-5.82-2.52-5.82-5.64 0-3.12 2.6-5.64 5.8-5.64 3.23 0 5.75 2.52 5.75 5.64z" />
    <path
       id="path1456"
       fill="#54bbe7"
       d="M1501.62 998.32c0 1.92-1.54 3.48-3.5 3.48s-3.57-1.56-3.57-3.48 1.6-3.48 3.57-3.48c1.96 0 3.5 1.56 3.5 3.48z" />
    <use
       id="use1458"
       transform="matrix(1,0,0,1,1414.5669291338586,1060) translate(2.129629629629619 18.111111111111114)"
       xlink:href="#A" />
    <use
       id="use1460"
       transform="matrix(1,0,0,1,1414.5669291338586,1060) translate(0.18518518518517624 44.777777777777786)"
       xlink:href="#B" />
    <path
       id="path1462"
       fill="none"
       stroke-width="2"
       stroke="#5e5e5e"
       d="M965.44 984.32H994c3.3 0 6 2.68 6 6V1174c0 3.3 2.7 6 6 6h378c3.3 0 6-2.7 6-6v-168c0-3.3 2.7-6 6-6h47.57" />
    <path
       id="path1464"
       fill="#5e5e5e"
       d="M965.47 985.32h-1.03v-2h1.03M1444.57 1001h-1.03v-2h1.03" />
    <path
       id="path1466"
       fill="none"
       stroke-width="2"
       stroke="#5e5e5e"
       d="M965.44 992.8H974c3.3 0 6 2.7 6 6V1194c0 3.3 2.7 6 6 6h578c3.3 0 6-2.7 6-6v-190.5c0-3.3 2.7-6 6-6h43.57" />
    <path
       id="path1468"
       fill="#5e5e5e"
       d="M965.47 993.8h-1.03v-2h1.03M1620.57 998.5h-1.03v-2h1.03" />
    <path
       id="path1470"
       fill="#29aae1"
       d="M71.85 1000.36h85.5v46.9h-85.5v-46.9z" />
    <path
       id="path1472"
       fill="#29aae1"
       d="M60 1006.1h12.3v30.24H60v-30.24zM157.2 1000.43l14.7 17.15h16.5l21.6-14.98v57.33l-20.55-20.3-16.65-.28-15.45 7.84-.15-46.77z" />
    <path
       id="path1474"
       fill="#2188b4"
       d="M100.2 990h1.35v9.3h-1.35V990z" />
    <path
       id="path1476"
       fill="#2188b4"
       d="M100.35 990h38.4v1.75h-38.4V990z" />
    <path
       id="path1478"
       fill="#2188b4"
       d="M137.4 991.54h1.35v7.9h-1.35v-7.9z" />
    <path
       id="path1480"
       fill="#2188b4"
       d="M139.2 993.57h18.3c.75 0 1.35.35 1.35.84 0 .57-.6.92-1.35.92h-18.3c-.75 0-1.35-.35-1.35-.9 0-.5.6-.85 1.35-.85z" />
    <path
       id="path1482"
       fill="#54bbe7"
       d="M165.75 990.14h25.2c2.4 0 4.35 1.82 4.35 4.06 0 2.24-1.95 4.06-4.35 4.06h-25.2c-2.55 0-4.35-1.82-4.35-4.06 0-2.24 1.8-4.06 4.35-4.06z" />
    <path
       id="path1484"
       fill="#fff"
       d="M93.15 1012.82c0 .98-.9 1.75-1.95 1.75-1.2 0-1.95-.77-1.95-1.75 0-1.05.75-1.82 1.95-1.82 1.05 0 1.95.77 1.95 1.82zM100.95 1012.75c0 .98-.9 1.82-1.95 1.82-1.05 0-1.95-.84-1.95-1.82 0-.98.9-1.82 1.95-1.82 1.05 0 1.95.84 1.95 1.82zM108.9 1012.82c0 .98-.9 1.82-1.95 1.82-1.2 0-1.95-.84-1.95-1.82 0-.98.75-1.82 1.95-1.82 1.05 0 1.95.84 1.95 1.82zM116.4 1008.06h21.3v9.8h-21.3v-9.8zM157.05 1013.03c0 3.36-3 6.02-6.45 6.02-3.6 0-6.6-2.66-6.6-6.02 0-3.3 3-6.02 6.6-6.02 3.45 0 6.45 2.74 6.45 6.03z" />
    <path
       id="path1486"
       fill="#54bbe7"
       d="M154.95 1013.1c0 2.38-1.95 4.27-4.5 4.27s-4.5-1.9-4.5-4.27c0-2.3 1.95-4.2 4.5-4.2s4.5 1.9 4.5 4.2z" />
    <use
       id="use1488"
       transform="matrix(1,0,0,1,30,1060) translate(35.98765432098766 18.111111111111114)"
       xlink:href="#C" />
    <use
       id="use1490"
       transform="matrix(1,0,0,1,30,1060) translate(95.18518518518519 18.111111111111114)"
       xlink:href="#D" />
    <use
       id="use1492"
       transform="matrix(1,0,0,1,30,1060) translate(40.185185185185176 44.777777777777786)"
       xlink:href="#E" />
    <path
       id="path1494"
       fill="#29aae1"
       d="M511.85 1000.36h85.5v46.9h-85.5v-46.9z" />
    <path
       id="path1496"
       fill="#29aae1"
       d="M500 1006.1h12.3v30.24H500v-30.24zM597.2 1000.43l14.7 17.15h16.5l21.6-14.98v57.33l-20.55-20.3-16.65-.28-15.45 7.84-.15-46.77z" />
    <path
       id="path1498"
       fill="#2188b4"
       d="M540.2 990h1.35v9.3h-1.35V990z" />
    <path
       id="path1500"
       fill="#2188b4"
       d="M540.35 990h38.4v1.75h-38.4V990z" />
    <path
       id="path1502"
       fill="#2188b4"
       d="M577.4 991.54h1.35v7.9h-1.35v-7.9z" />
    <path
       id="path1504"
       fill="#2188b4"
       d="M579.2 993.57h18.3c.75 0 1.35.35 1.35.84 0 .57-.6.92-1.35.92h-18.3c-.75 0-1.35-.35-1.35-.9 0-.5.6-.85 1.35-.85z" />
    <path
       id="path1506"
       fill="#54bbe7"
       d="M605.75 990.14h25.2c2.4 0 4.35 1.82 4.35 4.06 0 2.24-1.95 4.06-4.35 4.06h-25.2c-2.55 0-4.35-1.82-4.35-4.06 0-2.24 1.8-4.06 4.35-4.06z" />
    <path
       id="path1508"
       fill="#fff"
       d="M533.15 1012.82c0 .98-.9 1.75-1.95 1.75-1.2 0-1.95-.77-1.95-1.75 0-1.05.75-1.82 1.95-1.82 1.05 0 1.95.77 1.95 1.82zM540.95 1012.75c0 .98-.9 1.82-1.95 1.82-1.05 0-1.95-.84-1.95-1.82 0-.98.9-1.82 1.95-1.82 1.05 0 1.95.84 1.95 1.82zM548.9 1012.82c0 .98-.9 1.82-1.95 1.82-1.2 0-1.95-.84-1.95-1.82 0-.98.75-1.82 1.95-1.82 1.05 0 1.95.84 1.95 1.82zM556.4 1008.06h21.3v9.8h-21.3v-9.8zM597.05 1013.03c0 3.36-3 6.02-6.45 6.02-3.6 0-6.6-2.66-6.6-6.02 0-3.3 3-6.02 6.6-6.02 3.45 0 6.45 2.74 6.45 6.03z" />
    <path
       id="path1510"
       fill="#54bbe7"
       d="M594.95 1013.1c0 2.38-1.95 4.27-4.5 4.27s-4.5-1.9-4.5-4.27c0-2.3 1.95-4.2 4.5-4.2s4.5 1.9 4.5 4.2z" />
    <use
       id="use1512"
       transform="matrix(1,0,0,1,470,1060) translate(47.68518518518518 18.111111111111114)"
       xlink:href="#F" />
    <use
       id="use1514"
       transform="matrix(1,0,0,1,470,1060) translate(83.48765432098764 18.111111111111114)"
       xlink:href="#D" />
    <use
       id="use1516"
       transform="matrix(1,0,0,1,470,1060) translate(40.185185185185176 44.777777777777786)"
       xlink:href="#G" />
    <path
       id="path1518"
       fill="#29aae1"
       d="M291.85 1000.36h85.5v46.9h-85.5v-46.9z" />
    <path
       id="path1520"
       fill="#29aae1"
       d="M280 1006.1h12.3v30.24H280v-30.24zM377.2 1000.43l14.7 17.15h16.5l21.6-14.98v57.33l-20.55-20.3-16.65-.28-15.45 7.84-.15-46.77z" />
    <path
       id="path1522"
       fill="#2188b4"
       d="M320.2 990h1.35v9.3h-1.35V990z" />
    <path
       id="path1524"
       fill="#2188b4"
       d="M320.35 990h38.4v1.75h-38.4V990z" />
    <path
       id="path1526"
       fill="#2188b4"
       d="M357.4 991.54h1.35v7.9h-1.35v-7.9z" />
    <path
       id="path1528"
       fill="#2188b4"
       d="M359.2 993.57h18.3c.75 0 1.35.35 1.35.84 0 .57-.6.92-1.35.92h-18.3c-.75 0-1.35-.35-1.35-.9 0-.5.6-.85 1.35-.85z" />
    <path
       id="path1530"
       fill="#54bbe7"
       d="M385.75 990.14h25.2c2.4 0 4.35 1.82 4.35 4.06 0 2.24-1.95 4.06-4.35 4.06h-25.2c-2.55 0-4.35-1.82-4.35-4.06 0-2.24 1.8-4.06 4.35-4.06z" />
    <path
       id="path1532"
       fill="#fff"
       d="M313.15 1012.82c0 .98-.9 1.75-1.95 1.75-1.2 0-1.95-.77-1.95-1.75 0-1.05.75-1.82 1.95-1.82 1.05 0 1.95.77 1.95 1.82zM320.95 1012.75c0 .98-.9 1.82-1.95 1.82-1.05 0-1.95-.84-1.95-1.82 0-.98.9-1.82 1.95-1.82 1.05 0 1.95.84 1.95 1.82zM328.9 1012.82c0 .98-.9 1.82-1.95 1.82-1.2 0-1.95-.84-1.95-1.82 0-.98.75-1.82 1.95-1.82 1.05 0 1.95.84 1.95 1.82zM336.4 1008.06h21.3v9.8h-21.3v-9.8zM377.05 1013.03c0 3.36-3 6.02-6.45 6.02-3.6 0-6.6-2.66-6.6-6.02 0-3.3 3-6.02 6.6-6.02 3.45 0 6.45 2.74 6.45 6.03z" />
    <path
       id="path1534"
       fill="#54bbe7"
       d="M374.95 1013.1c0 2.38-1.95 4.27-4.5 4.27s-4.5-1.9-4.5-4.27c0-2.3 1.95-4.2 4.5-4.2s4.5 1.9 4.5 4.2z" />
    <use
       id="use1536"
       transform="matrix(1,0,0,1,250,1060) translate(47.68518518518518 18.111111111111114)"
       xlink:href="#H" />
    <use
       id="use1538"
       transform="matrix(1,0,0,1,250,1060) translate(40.185185185185176 44.777777777777786)"
       xlink:href="#I" />
    <path
       id="path1540"
       fill="none"
       stroke-width="2"
       stroke="#5e5e5e"
       d="M965.44 965.8H1034c3.3 0 6 2.7 6 6V994c0 3.3 2.7 6 6 6h27.57" />
    <path
       id="path1542"
       fill="#5e5e5e"
       d="M965.47 966.8h-1.03v-2h1.03M1074.57 1001h-1.03v-2h1.03" />
    <path
       id="path1544"
       fill="none"
       stroke-width="2"
       stroke="#5e5e5e"
       d="M965.44 975.3H1014c3.3 0 6 2.7 6 6V1154c0 3.3 2.7 6 6 6h168c3.3 0 6-2.7 6-6v-148c0-3.3 2.7-6 6-6h52.57" />
    <path
       id="path1546"
       fill="#5e5e5e"
       d="M965.47 976.3h-1.03v-2h1.03M1259.57 1001h-1.03v-2h1.03" />
    <path
       id="path1548"
       fill="none"
       stroke-width="2"
       stroke="#5e5e5e"
       d="M279 1025h-33c-3.3 0-6 2.7-6 6v143c0 3.3 2.7 6 6 6h548c3.3 0 6-2.7 6-6v-93" />
    <path
       id="path1550"
       fill="#5e5e5e"
       d="M280 1026h-1.03v-2H280" />
    <path
       id="path1552"
       fill="none"
       stroke-width="2"
       stroke="#5e5e5e"
       d="M800 1081.03V1080M59 1025H26c-3.3 0-6 2.7-6 6v163c0 3.3 2.7 6 6 6h788c3.3 0 6-2.7 6-6v-13" />
    <path
       id="path1554"
       fill="#5e5e5e"
       d="M60 1026h-1.03v-2H60" />
    <path
       id="path1556"
       fill="none"
       stroke-width="2"
       stroke="#5e5e5e"
       d="M820 1181.03V1180M512.76 1160H774c3.3 0 6-2.7 6-6V972.77c0-3.3 2.7-6 6-6h52.57M512.78 1160h-1.02" />
    <path
       id="path1558"
       fill="#5e5e5e"
       d="M839.57 967.77h-1.03v-2h1.03" />
    <path
       id="path1560"
       fill="none"
       stroke-width="2"
       stroke="#5e5e5e"
       d="M499 1025h-33c-3.3 0-6 2.7-6 6v123c0 3.3 2.7 6 6 6h177.96" />
    <path
       id="path1562"
       fill="#5e5e5e"
       d="M500 1026h-1.03v-2H500" />
    <path
       id="path1564"
       fill="none"
       stroke-width="2"
       stroke="#5e5e5e"
       d="M643.93 1160h1.03M838.57 983.92H826c-3.3 0-6 2.7-6 6V1179" />
    <path
       id="path1566"
       fill="#5e5e5e"
       d="M839.57 984.92h-1.03v-2h1.03" />
    <path
       id="path1568"
       fill="none"
       stroke-width="2"
       stroke="#5e5e5e"
       d="M820 1178.97v1.03M838.57 975.44H806c-3.3 0-6 2.68-6 6V1079" />
    <path
       id="path1570"
       fill="#5e5e5e"
       d="M839.57 976.44h-1.03v-2h1.03" />
    <path
       id="path1572"
       fill="none"
       stroke-width="2"
       stroke="#5e5e5e"
       d="M800 1078.97v1.03" />
    <defs
       id="defs2236">
      <path
         id="J"
         d="M185-189c-5-48-123-54-124 2 14 75 158 14 163 119 3 78-121 87-175 55-17-10-28-26-33-46l33-7c5 56 141 63 141-1 0-78-155-14-162-118-5-82 145-84 179-34 5 7 8 16 11 25"
         fill="#333" />
      <path
         id="K"
         d="M206 0h-36l-40-164L89 0H53L-1-190h32L70-26l43-164h34l41 164 42-164h31"
         fill="#333" />
      <path
         id="L"
         d="M24-231v-30h32v30H24zM24 0v-190h32V0H24"
         fill="#333" />
      <path
         id="M"
         d="M59-47c-2 24 18 29 38 22v24C64 9 27 4 27-40v-127H5v-23h24l9-43h21v43h35v23H59v120"
         fill="#333" />
      <path
         id="N"
         d="M96-169c-40 0-48 33-48 73s9 75 48 75c24 0 41-14 43-38l32 2c-6 37-31 61-74 61-59 0-76-41-82-99-10-93 101-131 147-64 4 7 5 14 7 22l-32 3c-4-21-16-35-41-35"
         fill="#333" />
      <path
         id="O"
         d="M106-169C34-169 62-67 57 0H25v-261h32l-1 103c12-21 28-36 61-36 89 0 53 116 60 194h-32v-121c2-32-8-49-39-48"
         fill="#333" />
      <g
         id="a">
        <use
           id="use1580"
           xlink:href="#J"
           transform="matrix(0.06172839506172839,0,0,0.06172839506172839,0,0)" />
        <use
           id="use1582"
           xlink:href="#K"
           transform="matrix(0.06172839506172839,0,0,0.06172839506172839,14.814814814814813,0)" />
        <use
           id="use1584"
           xlink:href="#L"
           transform="matrix(0.06172839506172839,0,0,0.06172839506172839,30.80246913580247,0)" />
        <use
           id="use1586"
           xlink:href="#M"
           transform="matrix(0.06172839506172839,0,0,0.06172839506172839,35.67901234567901,0)" />
        <use
           id="use1588"
           xlink:href="#N"
           transform="matrix(0.06172839506172839,0,0,0.06172839506172839,41.851851851851855,0)" />
        <use
           id="use1590"
           xlink:href="#O"
           transform="matrix(0.06172839506172839,0,0,0.06172839506172839,52.96296296296296,0)" />
      </g>
      <path
         id="P"
         d="M212-179c-10-28-35-45-73-45-59 0-87 40-87 99 0 60 29 101 89 101 43 0 62-24 78-52l27 14C228-24 195 4 139 4 59 4 22-46 18-125c-6-104 99-153 187-111 19 9 31 26 39 46"
         fill="#333" />
      <path
         id="Q"
         d="M100-194c62-1 85 37 85 99 1 63-27 99-86 99S16-35 15-95c0-66 28-99 85-99zM99-20c44 1 53-31 53-75 0-43-8-75-51-75s-53 32-53 75 10 74 51 75"
         fill="#333" />
      <path
         id="R"
         d="M117-194c89-4 53 116 60 194h-32v-121c0-31-8-49-39-48C34-167 62-67 57 0H25l-1-190h30c1 10-1 24 2 32 11-22 29-35 61-36"
         fill="#333" />
      <path
         id="S"
         d="M114-163C36-179 61-72 57 0H25l-1-190h30c1 12-1 29 2 39 6-27 23-49 58-41v29"
         fill="#333" />
      <path
         id="T"
         d="M24 0v-261h32V0H24"
         fill="#333" />
      <path
         id="U"
         d="M100-194c63 0 86 42 84 106H49c0 40 14 67 53 68 26 1 43-12 49-29l28 8c-11 28-37 45-77 45C44 4 14-33 15-96c1-61 26-98 85-98zm52 81c6-60-76-77-97-28-3 7-6 17-6 28h103"
         fill="#333" />
      <g
         id="b">
        <use
           id="use1599"
           xlink:href="#P"
           transform="matrix(0.06172839506172839,0,0,0.06172839506172839,0,0)" />
        <use
           id="use1601"
           xlink:href="#Q"
           transform="matrix(0.06172839506172839,0,0,0.06172839506172839,15.987654320987653,0)" />
        <use
           id="use1603"
           xlink:href="#R"
           transform="matrix(0.06172839506172839,0,0,0.06172839506172839,28.333333333333332,0)" />
        <use
           id="use1605"
           xlink:href="#M"
           transform="matrix(0.06172839506172839,0,0,0.06172839506172839,40.67901234567901,0)" />
        <use
           id="use1607"
           xlink:href="#S"
           transform="matrix(0.06172839506172839,0,0,0.06172839506172839,46.851851851851855,0)" />
        <use
           id="use1609"
           xlink:href="#Q"
           transform="matrix(0.06172839506172839,0,0,0.06172839506172839,54.19753086419753,0)" />
        <use
           id="use1611"
           xlink:href="#T"
           transform="matrix(0.06172839506172839,0,0,0.06172839506172839,66.54320987654322,0)" />
        <use
           id="use1613"
           xlink:href="#T"
           transform="matrix(0.06172839506172839,0,0,0.06172839506172839,71.41975308641976,0)" />
        <use
           id="use1615"
           xlink:href="#U"
           transform="matrix(0.06172839506172839,0,0,0.06172839506172839,76.2962962962963,0)" />
        <use
           id="use1617"
           xlink:href="#S"
           transform="matrix(0.06172839506172839,0,0,0.06172839506172839,88.64197530864199,0)" />
      </g>
      <path
         id="V"
         d="M27 0v-27h64v-190l-56 39v-29l58-41h29v221h61V0H27"
         fill="#333" />
      <path
         id="W"
         d="M99-251c64 0 84 50 84 122C183-37 130 33 47-8c-14-7-20-23-25-40l30-5c6 39 69 39 84 7 9-19 16-44 16-74-10 22-31 35-62 35-49 0-73-33-73-83 0-54 28-83 82-83zm-1 141c31-1 51-18 51-49 0-36-14-67-51-67-34 0-49 23-49 58 0 34 15 58 49 58"
         fill="#333" />
      <path
         id="X"
         d="M101-251c82-7 93 87 43 132L82-64C71-53 59-42 53-27h129V0H18c2-99 128-94 128-182 0-28-16-43-45-43s-46 15-49 41l-32-3c6-41 34-60 81-64"
         fill="#333" />
      <path
         id="Y"
         d="M33 0v-38h34V0H33"
         fill="#333" />
      <path
         id="Z"
         d="M110-160c48 1 74 30 74 79 0 53-28 85-80 85-65 0-83-55-86-122-5-90 50-162 133-122 14 7 22 21 27 39l-31 6c-5-40-67-38-82-6-9 19-15 44-15 74 11-20 30-34 60-33zm-7 138c34 0 49-23 49-58s-16-56-50-56c-29 0-50 16-49 49 1 36 15 65 50 65"
         fill="#333" />
      <path
         id="aa"
         d="M134-131c28 9 52 24 51 62-1 50-34 73-85 73S17-19 16-69c0-36 21-54 49-61-75-25-45-126 34-121 46 3 78 18 79 63 0 33-17 51-44 57zm-34-11c31 1 46-15 46-44 0-28-17-43-47-42-29 0-46 13-45 42 1 28 16 44 46 44zm1 122c35 0 51-18 51-52 0-30-18-46-53-46-33 0-51 17-51 47 0 34 19 51 53 51"
         fill="#333" />
      <g
         id="c">
        <use
           id="use1626"
           xlink:href="#V"
           transform="matrix(0.06172839506172839,0,0,0.06172839506172839,0,0)" />
        <use
           id="use1628"
           xlink:href="#W"
           transform="matrix(0.06172839506172839,0,0,0.06172839506172839,12.345679012345679,0)" />
        <use
           id="use1630"
           xlink:href="#X"
           transform="matrix(0.06172839506172839,0,0,0.06172839506172839,24.691358024691358,0)" />
        <use
           id="use1632"
           xlink:href="#Y"
           transform="matrix(0.06172839506172839,0,0,0.06172839506172839,37.03703703703704,0)" />
        <use
           id="use1634"
           xlink:href="#V"
           transform="matrix(0.06172839506172839,0,0,0.06172839506172839,43.20987654320988,0)" />
        <use
           id="use1636"
           xlink:href="#Z"
           transform="matrix(0.06172839506172839,0,0,0.06172839506172839,55.55555555555556,0)" />
        <use
           id="use1638"
           xlink:href="#aa"
           transform="matrix(0.06172839506172839,0,0,0.06172839506172839,67.90123456790124,0)" />
        <use
           id="use1640"
           xlink:href="#Y"
           transform="matrix(0.06172839506172839,0,0,0.06172839506172839,80.24691358024693,0)" />
        <use
           id="use1642"
           xlink:href="#V"
           transform="matrix(0.06172839506172839,0,0,0.06172839506172839,86.41975308641976,0)" />
        <use
           id="use1644"
           xlink:href="#Y"
           transform="matrix(0.06172839506172839,0,0,0.06172839506172839,98.76543209876544,0)" />
        <use
           id="use1646"
           xlink:href="#V"
           transform="matrix(0.06172839506172839,0,0,0.06172839506172839,104.93827160493828,0)" />
      </g>
      <path
         id="ab"
         d="M197 0v-115H63V0H30v-248h33v105h134v-105h34V0h-34"
         fill="#333" />
      <path
         id="ac"
         d="M210-169c-67 3-38 105-44 169h-31v-121c0-29-5-50-35-48C34-165 62-65 56 0H25l-1-190h30c1 10-1 24 2 32 10-44 99-50 107 0 11-21 27-35 58-36 85-2 47 119 55 194h-31v-121c0-29-5-49-35-48"
         fill="#333" />
      <path
         id="ad"
         d="M205 0l-28-72H64L36 0H1l101-248h38L239 0h-34zm-38-99l-47-123c-12 45-31 82-46 123h93"
         fill="#333" />
      <path
         id="ae"
         d="M135-143c-3-34-86-38-87 0 15 53 115 12 119 90S17 21 10-45l28-5c4 36 97 45 98 0-10-56-113-15-118-90-4-57 82-63 122-42 12 7 21 19 24 35"
         fill="#333" />
      <path
         id="af"
         d="M141-36C126-15 110 5 73 4 37 3 15-17 15-53c-1-64 63-63 125-63 3-35-9-54-41-54-24 1-41 7-42 31l-33-3c5-37 33-52 76-52 45 0 72 20 72 64v82c-1 20 7 32 28 27v20c-31 9-61-2-59-35zM48-53c0 20 12 33 32 33 41-3 63-29 60-74-43 2-92-5-92 41"
         fill="#333" />
      <g
         id="d">
        <use
           id="use1654"
           xlink:href="#ab"
           transform="matrix(0.06172839506172839,0,0,0.06172839506172839,0,0)" />
        <use
           id="use1656"
           xlink:href="#Q"
           transform="matrix(0.06172839506172839,0,0,0.06172839506172839,15.987654320987653,0)" />
        <use
           id="use1658"
           xlink:href="#ac"
           transform="matrix(0.06172839506172839,0,0,0.06172839506172839,28.333333333333332,0)" />
        <use
           id="use1660"
           xlink:href="#U"
           transform="matrix(0.06172839506172839,0,0,0.06172839506172839,46.79012345679012,0)" />
        <use
           id="use1662"
           xlink:href="#ad"
           transform="matrix(0.06172839506172839,0,0,0.06172839506172839,65.30864197530863,0)" />
        <use
           id="use1664"
           xlink:href="#ae"
           transform="matrix(0.06172839506172839,0,0,0.06172839506172839,80.12345679012344,0)" />
        <use
           id="use1666"
           xlink:href="#ae"
           transform="matrix(0.06172839506172839,0,0,0.06172839506172839,91.23456790123456,0)" />
        <use
           id="use1668"
           xlink:href="#L"
           transform="matrix(0.06172839506172839,0,0,0.06172839506172839,102.34567901234567,0)" />
        <use
           id="use1670"
           xlink:href="#ae"
           transform="matrix(0.06172839506172839,0,0,0.06172839506172839,107.22222222222221,0)" />
        <use
           id="use1672"
           xlink:href="#M"
           transform="matrix(0.06172839506172839,0,0,0.06172839506172839,118.33333333333333,0)" />
        <use
           id="use1674"
           xlink:href="#af"
           transform="matrix(0.06172839506172839,0,0,0.06172839506172839,124.50617283950616,0)" />
        <use
           id="use1676"
           xlink:href="#R"
           transform="matrix(0.06172839506172839,0,0,0.06172839506172839,136.85185185185185,0)" />
        <use
           id="use1678"
           xlink:href="#M"
           transform="matrix(0.06172839506172839,0,0,0.06172839506172839,149.19753086419752,0)" />
      </g>
      <g
         id="e">
        <use
           id="use1681"
           xlink:href="#V"
           transform="matrix(0.06172839506172839,0,0,0.06172839506172839,0,0)" />
        <use
           id="use1683"
           xlink:href="#W"
           transform="matrix(0.06172839506172839,0,0,0.06172839506172839,12.345679012345679,0)" />
        <use
           id="use1685"
           xlink:href="#X"
           transform="matrix(0.06172839506172839,0,0,0.06172839506172839,24.691358024691358,0)" />
        <use
           id="use1687"
           xlink:href="#Y"
           transform="matrix(0.06172839506172839,0,0,0.06172839506172839,37.03703703703704,0)" />
        <use
           id="use1689"
           xlink:href="#V"
           transform="matrix(0.06172839506172839,0,0,0.06172839506172839,43.20987654320988,0)" />
        <use
           id="use1691"
           xlink:href="#Z"
           transform="matrix(0.06172839506172839,0,0,0.06172839506172839,55.55555555555556,0)" />
        <use
           id="use1693"
           xlink:href="#aa"
           transform="matrix(0.06172839506172839,0,0,0.06172839506172839,67.90123456790124,0)" />
        <use
           id="use1695"
           xlink:href="#Y"
           transform="matrix(0.06172839506172839,0,0,0.06172839506172839,80.24691358024693,0)" />
        <use
           id="use1697"
           xlink:href="#V"
           transform="matrix(0.06172839506172839,0,0,0.06172839506172839,86.41975308641976,0)" />
        <use
           id="use1699"
           xlink:href="#Y"
           transform="matrix(0.06172839506172839,0,0,0.06172839506172839,98.76543209876544,0)" />
        <use
           id="use1701"
           xlink:href="#X"
           transform="matrix(0.06172839506172839,0,0,0.06172839506172839,104.93827160493828,0)" />
      </g>
      <g
         id="f">
        <use
           id="use1704"
           xlink:href="#ab"
           transform="matrix(0.06172839506172839,0,0,0.06172839506172839,0,0)" />
        <use
           id="use1706"
           xlink:href="#U"
           transform="matrix(0.06172839506172839,0,0,0.06172839506172839,15.987654320987653,0)" />
        <use
           id="use1708"
           xlink:href="#T"
           transform="matrix(0.06172839506172839,0,0,0.06172839506172839,28.333333333333332,0)" />
        <use
           id="use1710"
           xlink:href="#ac"
           transform="matrix(0.06172839506172839,0,0,0.06172839506172839,33.20987654320987,0)" />
      </g>
      <path
         id="ag"
         d="M30-248c87 1 191-15 191 75 0 78-77 80-158 76V0H30v-248zm33 125c57 0 124 11 124-50 0-59-68-47-124-48v98"
         fill="#333" />
      <g
         id="g">
        <use
           id="use1714"
           xlink:href="#ag"
           transform="matrix(0.06172839506172839,0,0,0.06172839506172839,0,0)" />
        <use
           id="use1716"
           xlink:href="#P"
           transform="matrix(0.06172839506172839,0,0,0.06172839506172839,14.814814814814813,0)" />
      </g>
      <g
         id="h">
        <use
           id="use1719"
           xlink:href="#V"
           transform="matrix(0.06172839506172839,0,0,0.06172839506172839,0,0)" />
        <use
           id="use1721"
           xlink:href="#W"
           transform="matrix(0.06172839506172839,0,0,0.06172839506172839,12.345679012345679,0)" />
        <use
           id="use1723"
           xlink:href="#X"
           transform="matrix(0.06172839506172839,0,0,0.06172839506172839,24.691358024691358,0)" />
        <use
           id="use1725"
           xlink:href="#Y"
           transform="matrix(0.06172839506172839,0,0,0.06172839506172839,37.03703703703704,0)" />
        <use
           id="use1727"
           xlink:href="#V"
           transform="matrix(0.06172839506172839,0,0,0.06172839506172839,43.20987654320988,0)" />
        <use
           id="use1729"
           xlink:href="#Z"
           transform="matrix(0.06172839506172839,0,0,0.06172839506172839,55.55555555555556,0)" />
        <use
           id="use1731"
           xlink:href="#aa"
           transform="matrix(0.06172839506172839,0,0,0.06172839506172839,67.90123456790124,0)" />
        <use
           id="use1733"
           xlink:href="#Y"
           transform="matrix(0.06172839506172839,0,0,0.06172839506172839,80.24691358024693,0)" />
        <use
           id="use1735"
           xlink:href="#V"
           transform="matrix(0.06172839506172839,0,0,0.06172839506172839,86.41975308641976,0)" />
        <use
           id="use1737"
           xlink:href="#Y"
           transform="matrix(0.06172839506172839,0,0,0.06172839506172839,98.76543209876544,0)" />
        <use
           id="use1739"
           xlink:href="#V"
           transform="matrix(0.06172839506172839,0,0,0.06172839506172839,104.93827160493828,0)" />
        <use
           id="use1741"
           xlink:href="#V"
           transform="matrix(0.06172839506172839,0,0,0.06172839506172839,115.61728395061729,0)" />
      </g>
      <path
         id="ah"
         d="M155-56V0h-30v-56H8v-25l114-167h33v167h35v25h-35zm-30-156c-27 46-58 90-88 131h88v-131"
         fill="#333" />
      <path
         id="ai"
         d="M143 4C61 4 22-44 18-125c-5-107 100-154 193-111 17 8 29 25 37 43l-32 9c-13-25-37-40-76-40-61 0-88 39-88 99 0 61 29 100 91 101 35 0 62-11 79-27v-45h-74v-28h105v86C228-13 192 4 143 4"
         fill="#333" />
      <g
         id="j">
        <use
           id="use1746"
           xlink:href="#ah"
           transform="matrix(0.06172839506172839,0,0,0.06172839506172839,0,0)" />
        <use
           id="use1748"
           xlink:href="#ai"
           transform="matrix(0.06172839506172839,0,0,0.06172839506172839,12.345679012345679,0)" />
      </g>
      <path
         id="aj"
         d="M233-177c-1 41-23 64-60 70L243 0h-38l-65-103H63V0H30v-248c88 3 205-21 203 71zM63-129c60-2 137 13 137-47 0-61-80-42-137-45v92"
         fill="#333" />
      <path
         id="ak"
         d="M84 4C-5 8 30-112 23-190h32v120c0 31 7 50 39 49 72-2 45-101 50-169h31l1 190h-30c-1-10 1-25-2-33-11 22-28 36-60 37"
         fill="#333" />
      <g
         id="k">
        <use
           id="use1753"
           xlink:href="#aj"
           transform="matrix(0.06172839506172839,0,0,0.06172839506172839,0,0)" />
        <use
           id="use1755"
           xlink:href="#Q"
           transform="matrix(0.06172839506172839,0,0,0.06172839506172839,15.987654320987653,0)" />
        <use
           id="use1757"
           xlink:href="#ak"
           transform="matrix(0.06172839506172839,0,0,0.06172839506172839,28.333333333333332,0)" />
        <use
           id="use1759"
           xlink:href="#M"
           transform="matrix(0.06172839506172839,0,0,0.06172839506172839,40.67901234567901,0)" />
        <use
           id="use1761"
           xlink:href="#U"
           transform="matrix(0.06172839506172839,0,0,0.06172839506172839,46.851851851851855,0)" />
        <use
           id="use1763"
           xlink:href="#S"
           transform="matrix(0.06172839506172839,0,0,0.06172839506172839,59.19753086419753,0)" />
      </g>
      <g
         id="l">
        <use
           id="use1766"
           xlink:href="#J"
           transform="matrix(0.06172839506172839,0,0,0.06172839506172839,0,0)" />
        <use
           id="use1768"
           xlink:href="#af"
           transform="matrix(0.06172839506172839,0,0,0.06172839506172839,14.814814814814813,0)" />
        <use
           id="use1770"
           xlink:href="#T"
           transform="matrix(0.06172839506172839,0,0,0.06172839506172839,27.160493827160494,0)" />
        <use
           id="use1772"
           xlink:href="#Q"
           transform="matrix(0.06172839506172839,0,0,0.06172839506172839,32.03703703703704,0)" />
        <use
           id="use1774"
           xlink:href="#Q"
           transform="matrix(0.06172839506172839,0,0,0.06172839506172839,44.382716049382715,0)" />
        <use
           id="use1776"
           xlink:href="#R"
           transform="matrix(0.06172839506172839,0,0,0.06172839506172839,56.72839506172839,0)" />
        <use
           id="use1778"
           xlink:href="#ad"
           transform="matrix(0.06172839506172839,0,0,0.06172839506172839,75.24691358024691,0)" />
        <use
           id="use1780"
           xlink:href="#N"
           transform="matrix(0.06172839506172839,0,0,0.06172839506172839,90.06172839506172,0)" />
        <use
           id="use1782"
           xlink:href="#N"
           transform="matrix(0.06172839506172839,0,0,0.06172839506172839,101.17283950617283,0)" />
        <use
           id="use1784"
           xlink:href="#U"
           transform="matrix(0.06172839506172839,0,0,0.06172839506172839,112.28395061728395,0)" />
        <use
           id="use1786"
           xlink:href="#ae"
           transform="matrix(0.06172839506172839,0,0,0.06172839506172839,124.62962962962963,0)" />
        <use
           id="use1788"
           xlink:href="#ae"
           transform="matrix(0.06172839506172839,0,0,0.06172839506172839,135.74074074074073,0)" />
        <use
           id="use1790"
           xlink:href="#ag"
           transform="matrix(0.06172839506172839,0,0,0.06172839506172839,153.02469135802468,0)" />
        <use
           id="use1792"
           xlink:href="#Q"
           transform="matrix(0.06172839506172839,0,0,0.06172839506172839,167.8395061728395,0)" />
        <use
           id="use1794"
           xlink:href="#L"
           transform="matrix(0.06172839506172839,0,0,0.06172839506172839,180.18518518518516,0)" />
        <use
           id="use1796"
           xlink:href="#R"
           transform="matrix(0.06172839506172839,0,0,0.06172839506172839,185.0617283950617,0)" />
        <use
           id="use1798"
           xlink:href="#M"
           transform="matrix(0.06172839506172839,0,0,0.06172839506172839,197.40740740740736,0)" />
      </g>
      <path
         id="al"
         d="M54-142c48-35 137-8 131 61C196 18 31 33 14-55l32-4c7 23 22 37 52 37 35-1 51-22 54-58 4-55-73-65-99-34H22l8-134h141v27H59"
         fill="#333" />
      <path
         id="am"
         d="M126-127c33 6 58 20 58 59 0 88-139 92-164 29-3-8-5-16-6-25l32-3c6 27 21 44 54 44 32 0 52-15 52-46 0-38-36-46-79-43v-28c39 1 72-4 72-42 0-27-17-43-46-43-28 0-47 15-49 41l-32-3c6-42 35-63 81-64 48-1 79 21 79 65 0 36-21 52-52 59"
         fill="#333" />
      <g
         id="m">
        <use
           id="use1803"
           xlink:href="#V"
           transform="matrix(0.06172839506172839,0,0,0.06172839506172839,0,0)" />
        <use
           id="use1805"
           xlink:href="#W"
           transform="matrix(0.06172839506172839,0,0,0.06172839506172839,12.345679012345679,0)" />
        <use
           id="use1807"
           xlink:href="#X"
           transform="matrix(0.06172839506172839,0,0,0.06172839506172839,24.691358024691358,0)" />
        <use
           id="use1809"
           xlink:href="#Y"
           transform="matrix(0.06172839506172839,0,0,0.06172839506172839,37.03703703703704,0)" />
        <use
           id="use1811"
           xlink:href="#V"
           transform="matrix(0.06172839506172839,0,0,0.06172839506172839,43.20987654320988,0)" />
        <use
           id="use1813"
           xlink:href="#Z"
           transform="matrix(0.06172839506172839,0,0,0.06172839506172839,55.55555555555556,0)" />
        <use
           id="use1815"
           xlink:href="#aa"
           transform="matrix(0.06172839506172839,0,0,0.06172839506172839,67.90123456790124,0)" />
        <use
           id="use1817"
           xlink:href="#Y"
           transform="matrix(0.06172839506172839,0,0,0.06172839506172839,80.24691358024693,0)" />
        <use
           id="use1819"
           xlink:href="#V"
           transform="matrix(0.06172839506172839,0,0,0.06172839506172839,86.41975308641976,0)" />
        <use
           id="use1821"
           xlink:href="#Y"
           transform="matrix(0.06172839506172839,0,0,0.06172839506172839,98.76543209876544,0)" />
        <use
           id="use1823"
           xlink:href="#X"
           transform="matrix(0.06172839506172839,0,0,0.06172839506172839,104.93827160493828,0)" />
        <use
           id="use1825"
           xlink:href="#al"
           transform="matrix(0.06172839506172839,0,0,0.06172839506172839,117.28395061728396,0)" />
        <use
           id="use1827"
           xlink:href="#am"
           transform="matrix(0.06172839506172839,0,0,0.06172839506172839,129.62962962962965,0)" />
      </g>
      <g
         id="n">
        <use
           id="use1830"
           xlink:href="#aj"
           transform="matrix(0.06172839506172839,0,0,0.06172839506172839,0,0)" />
        <use
           id="use1832"
           xlink:href="#Q"
           transform="matrix(0.06172839506172839,0,0,0.06172839506172839,15.987654320987653,0)" />
        <use
           id="use1834"
           xlink:href="#ak"
           transform="matrix(0.06172839506172839,0,0,0.06172839506172839,28.333333333333332,0)" />
        <use
           id="use1836"
           xlink:href="#M"
           transform="matrix(0.06172839506172839,0,0,0.06172839506172839,40.67901234567901,0)" />
        <use
           id="use1838"
           xlink:href="#U"
           transform="matrix(0.06172839506172839,0,0,0.06172839506172839,46.851851851851855,0)" />
        <use
           id="use1840"
           xlink:href="#S"
           transform="matrix(0.06172839506172839,0,0,0.06172839506172839,59.19753086419753,0)" />
      </g>
      <g
         id="o">
        <use
           id="use1843"
           xlink:href="#V"
           transform="matrix(0.06172839506172839,0,0,0.06172839506172839,0,0)" />
        <use
           id="use1845"
           xlink:href="#W"
           transform="matrix(0.06172839506172839,0,0,0.06172839506172839,12.345679012345679,0)" />
        <use
           id="use1847"
           xlink:href="#X"
           transform="matrix(0.06172839506172839,0,0,0.06172839506172839,24.691358024691358,0)" />
        <use
           id="use1849"
           xlink:href="#Y"
           transform="matrix(0.06172839506172839,0,0,0.06172839506172839,37.03703703703704,0)" />
        <use
           id="use1851"
           xlink:href="#V"
           transform="matrix(0.06172839506172839,0,0,0.06172839506172839,43.20987654320988,0)" />
        <use
           id="use1853"
           xlink:href="#Z"
           transform="matrix(0.06172839506172839,0,0,0.06172839506172839,55.55555555555556,0)" />
        <use
           id="use1855"
           xlink:href="#aa"
           transform="matrix(0.06172839506172839,0,0,0.06172839506172839,67.90123456790124,0)" />
        <use
           id="use1857"
           xlink:href="#Y"
           transform="matrix(0.06172839506172839,0,0,0.06172839506172839,80.24691358024693,0)" />
        <use
           id="use1859"
           xlink:href="#V"
           transform="matrix(0.06172839506172839,0,0,0.06172839506172839,86.41975308641976,0)" />
        <use
           id="use1861"
           xlink:href="#Y"
           transform="matrix(0.06172839506172839,0,0,0.06172839506172839,98.76543209876544,0)" />
        <use
           id="use1863"
           xlink:href="#X"
           transform="matrix(0.06172839506172839,0,0,0.06172839506172839,104.93827160493828,0)" />
        <use
           id="use1865"
           xlink:href="#al"
           transform="matrix(0.06172839506172839,0,0,0.06172839506172839,117.28395061728396,0)" />
        <use
           id="use1867"
           xlink:href="#ah"
           transform="matrix(0.06172839506172839,0,0,0.06172839506172839,129.62962962962965,0)" />
      </g>
      <path
         id="an"
         d="M266 0h-40l-56-210L115 0H75L2-248h35L96-30l15-64 43-154h32l59 218 59-218h35"
         fill="#333" />
      <path
         id="ao"
         d="M63-220v92h138v28H63V0H30v-248h175v28H63"
         fill="#333" />
      <g
         id="p">
        <use
           id="use1872"
           xlink:href="#an"
           transform="matrix(0.06172839506172839,0,0,0.06172839506172839,0,0)" />
        <use
           id="use1874"
           xlink:href="#L"
           transform="matrix(0.06172839506172839,0,0,0.06172839506172839,20.925925925925924,0)" />
        <use
           id="use1876"
           xlink:href="#ao"
           transform="matrix(0.06172839506172839,0,0,0.06172839506172839,25.80246913580247,0)" />
        <use
           id="use1878"
           xlink:href="#L"
           transform="matrix(0.06172839506172839,0,0,0.06172839506172839,39.32098765432099,0)" />
      </g>
      <path
         id="ap"
         d="M0 4l72-265h28L28 4H0"
         fill="#333" />
      <path
         id="aq"
         d="M160-131c35 5 61 23 61 61C221 17 115-2 30 0v-248c76 3 177-17 177 60 0 33-19 50-47 57zm-97-11c50-1 110 9 110-42 0-47-63-36-110-37v79zm0 115c55-2 124 14 124-45 0-56-70-42-124-44v89"
         fill="#333" />
      <g
         id="q">
        <use
           id="use1883"
           xlink:href="#ad"
           transform="matrix(0.06172839506172839,0,0,0.06172839506172839,0,0)" />
        <use
           id="use1885"
           xlink:href="#ap"
           transform="matrix(0.06172839506172839,0,0,0.06172839506172839,14.814814814814813,0)" />
        <use
           id="use1887"
           xlink:href="#aq"
           transform="matrix(0.06172839506172839,0,0,0.06172839506172839,20.98765432098765,0)" />
      </g>
      <g
         id="r">
        <use
           id="use1890"
           xlink:href="#J"
           transform="matrix(0.06172839506172839,0,0,0.06172839506172839,0,0)" />
        <use
           id="use1892"
           xlink:href="#K"
           transform="matrix(0.06172839506172839,0,0,0.06172839506172839,14.814814814814813,0)" />
        <use
           id="use1894"
           xlink:href="#L"
           transform="matrix(0.06172839506172839,0,0,0.06172839506172839,30.80246913580247,0)" />
        <use
           id="use1896"
           xlink:href="#M"
           transform="matrix(0.06172839506172839,0,0,0.06172839506172839,35.67901234567901,0)" />
        <use
           id="use1898"
           xlink:href="#N"
           transform="matrix(0.06172839506172839,0,0,0.06172839506172839,41.851851851851855,0)" />
        <use
           id="use1900"
           xlink:href="#O"
           transform="matrix(0.06172839506172839,0,0,0.06172839506172839,52.96296296296296,0)" />
      </g>
      <path
         id="ar"
         d="M33 0v-248h34V0H33"
         fill="#333" />
      <g
         id="s">
        <use
           id="use1904"
           xlink:href="#ar"
           transform="matrix(0.06172839506172839,0,0,0.06172839506172839,0,0)" />
        <use
           id="use1906"
           xlink:href="#R"
           transform="matrix(0.06172839506172839,0,0,0.06172839506172839,6.172839506172839,0)" />
        <use
           id="use1908"
           xlink:href="#M"
           transform="matrix(0.06172839506172839,0,0,0.06172839506172839,18.51851851851852,0)" />
        <use
           id="use1910"
           xlink:href="#U"
           transform="matrix(0.06172839506172839,0,0,0.06172839506172839,24.691358024691358,0)" />
        <use
           id="use1912"
           xlink:href="#S"
           transform="matrix(0.06172839506172839,0,0,0.06172839506172839,37.03703703703704,0)" />
        <use
           id="use1914"
           xlink:href="#R"
           transform="matrix(0.06172839506172839,0,0,0.06172839506172839,44.382716049382715,0)" />
        <use
           id="use1916"
           xlink:href="#U"
           transform="matrix(0.06172839506172839,0,0,0.06172839506172839,56.72839506172839,0)" />
        <use
           id="use1918"
           xlink:href="#M"
           transform="matrix(0.06172839506172839,0,0,0.06172839506172839,69.07407407407408,0)" />
      </g>
      <path
         id="as"
         d="M177-190C167-65 218 103 67 71c-23-6-38-20-44-43l32-5c15 47 100 32 89-28v-30C133-14 115 1 83 1 29 1 15-40 15-95c0-56 16-97 71-98 29-1 48 16 59 35 1-10 0-23 2-32h30zM94-22c36 0 50-32 50-73 0-42-14-75-50-75-39 0-46 34-46 75s6 73 46 73"
         fill="#333" />
      <path
         id="at"
         d="M179-190L93 31C79 59 56 82 12 73V49c39 6 53-20 64-50L1-190h34L92-34l54-156h33"
         fill="#333" />
      <g
         id="t">
        <use
           id="use1923"
           xlink:href="#as"
           transform="matrix(0.06172839506172839,0,0,0.06172839506172839,0,0)" />
        <use
           id="use1925"
           xlink:href="#af"
           transform="matrix(0.06172839506172839,0,0,0.06172839506172839,12.345679012345679,0)" />
        <use
           id="use1927"
           xlink:href="#M"
           transform="matrix(0.06172839506172839,0,0,0.06172839506172839,24.691358024691358,0)" />
        <use
           id="use1929"
           xlink:href="#U"
           transform="matrix(0.06172839506172839,0,0,0.06172839506172839,30.864197530864196,0)" />
        <use
           id="use1931"
           xlink:href="#K"
           transform="matrix(0.06172839506172839,0,0,0.06172839506172839,43.20987654320987,0)" />
        <use
           id="use1933"
           xlink:href="#af"
           transform="matrix(0.06172839506172839,0,0,0.06172839506172839,59.197530864197525,0)" />
        <use
           id="use1935"
           xlink:href="#at"
           transform="matrix(0.06172839506172839,0,0,0.06172839506172839,71.5432098765432,0)" />
      </g>
      <g
         id="u">
        <use
           id="use1938"
           xlink:href="#V"
           transform="matrix(0.03703703703703702,0,0,0.03703703703703702,0,0)" />
        <use
           id="use1940"
           xlink:href="#W"
           transform="matrix(0.03703703703703702,0,0,0.03703703703703702,7.407407407407404,0)" />
        <use
           id="use1942"
           xlink:href="#X"
           transform="matrix(0.03703703703703702,0,0,0.03703703703703702,14.814814814814808,0)" />
        <use
           id="use1944"
           xlink:href="#Y"
           transform="matrix(0.03703703703703702,0,0,0.03703703703703702,22.222222222222214,0)" />
        <use
           id="use1946"
           xlink:href="#V"
           transform="matrix(0.03703703703703702,0,0,0.03703703703703702,25.925925925925913,0)" />
        <use
           id="use1948"
           xlink:href="#Z"
           transform="matrix(0.03703703703703702,0,0,0.03703703703703702,33.333333333333314,0)" />
        <use
           id="use1950"
           xlink:href="#aa"
           transform="matrix(0.03703703703703702,0,0,0.03703703703703702,40.740740740740726,0)" />
        <use
           id="use1952"
           xlink:href="#Y"
           transform="matrix(0.03703703703703702,0,0,0.03703703703703702,48.148148148148124,0)" />
        <use
           id="use1954"
           xlink:href="#X"
           transform="matrix(0.03703703703703702,0,0,0.03703703703703702,51.851851851851826,0)" />
        <use
           id="use1956"
           xlink:href="#Y"
           transform="matrix(0.03703703703703702,0,0,0.03703703703703702,59.25925925925923,0)" />
        <use
           id="use1958"
           xlink:href="#X"
           transform="matrix(0.03703703703703702,0,0,0.03703703703703702,62.96296296296293,0)" />
        <use
           id="use1960"
           xlink:href="#al"
           transform="matrix(0.03703703703703702,0,0,0.03703703703703702,70.37037037037034,0)" />
        <use
           id="use1962"
           xlink:href="#am"
           transform="matrix(0.03703703703703702,0,0,0.03703703703703702,77.77777777777774,0)" />
      </g>
      <g
         id="v">
        <use
           id="use1965"
           xlink:href="#V"
           transform="matrix(0.03703703703703702,0,0,0.03703703703703702,0,0)" />
        <use
           id="use1967"
           xlink:href="#W"
           transform="matrix(0.03703703703703702,0,0,0.03703703703703702,7.407407407407404,0)" />
        <use
           id="use1969"
           xlink:href="#X"
           transform="matrix(0.03703703703703702,0,0,0.03703703703703702,14.814814814814808,0)" />
        <use
           id="use1971"
           xlink:href="#Y"
           transform="matrix(0.03703703703703702,0,0,0.03703703703703702,22.222222222222214,0)" />
        <use
           id="use1973"
           xlink:href="#V"
           transform="matrix(0.03703703703703702,0,0,0.03703703703703702,25.925925925925913,0)" />
        <use
           id="use1975"
           xlink:href="#Z"
           transform="matrix(0.03703703703703702,0,0,0.03703703703703702,33.333333333333314,0)" />
        <use
           id="use1977"
           xlink:href="#aa"
           transform="matrix(0.03703703703703702,0,0,0.03703703703703702,40.740740740740726,0)" />
        <use
           id="use1979"
           xlink:href="#Y"
           transform="matrix(0.03703703703703702,0,0,0.03703703703703702,48.148148148148124,0)" />
        <use
           id="use1981"
           xlink:href="#V"
           transform="matrix(0.03703703703703702,0,0,0.03703703703703702,51.851851851851826,0)" />
        <use
           id="use1983"
           xlink:href="#Y"
           transform="matrix(0.03703703703703702,0,0,0.03703703703703702,59.25925925925923,0)" />
        <use
           id="use1985"
           xlink:href="#am"
           transform="matrix(0.03703703703703702,0,0,0.03703703703703702,62.96296296296293,0)" />
      </g>
      <g
         id="w">
        <use
           id="use1988"
           xlink:href="#V"
           transform="matrix(0.03703703703703702,0,0,0.03703703703703702,0,0)" />
        <use
           id="use1990"
           xlink:href="#W"
           transform="matrix(0.03703703703703702,0,0,0.03703703703703702,7.407407407407404,0)" />
        <use
           id="use1992"
           xlink:href="#X"
           transform="matrix(0.03703703703703702,0,0,0.03703703703703702,14.814814814814808,0)" />
        <use
           id="use1994"
           xlink:href="#Y"
           transform="matrix(0.03703703703703702,0,0,0.03703703703703702,22.222222222222214,0)" />
        <use
           id="use1996"
           xlink:href="#V"
           transform="matrix(0.03703703703703702,0,0,0.03703703703703702,25.925925925925913,0)" />
        <use
           id="use1998"
           xlink:href="#Z"
           transform="matrix(0.03703703703703702,0,0,0.03703703703703702,33.333333333333314,0)" />
        <use
           id="use2000"
           xlink:href="#aa"
           transform="matrix(0.03703703703703702,0,0,0.03703703703703702,40.740740740740726,0)" />
        <use
           id="use2002"
           xlink:href="#Y"
           transform="matrix(0.03703703703703702,0,0,0.03703703703703702,48.148148148148124,0)" />
        <use
           id="use2004"
           xlink:href="#ah"
           transform="matrix(0.03703703703703702,0,0,0.03703703703703702,51.851851851851826,0)" />
        <use
           id="use2006"
           xlink:href="#Y"
           transform="matrix(0.03703703703703702,0,0,0.03703703703703702,59.25925925925923,0)" />
        <use
           id="use2008"
           xlink:href="#V"
           transform="matrix(0.03703703703703702,0,0,0.03703703703703702,62.96296296296293,0)" />
      </g>
      <path
         id="au"
         d="M30-248c118-7 216 8 213 122C240-48 200 0 122 0H30v-248zM63-27c89 8 146-16 146-99s-60-101-146-95v194"
         fill="#333" />
      <path
         id="av"
         d="M33-154v-36h34v36H33zM33 0v-36h34V0H33"
         fill="#333" />
      <g
         id="x">
        <use
           id="use2013"
           xlink:href="#J"
           transform="matrix(0.03703703703703702,0,0,0.03703703703703702,0,0)" />
        <use
           id="use2015"
           xlink:href="#J"
           transform="matrix(0.03703703703703702,0,0,0.03703703703703702,8.888888888888886,0)" />
        <use
           id="use2017"
           xlink:href="#ar"
           transform="matrix(0.03703703703703702,0,0,0.03703703703703702,17.77777777777777,0)" />
        <use
           id="use2019"
           xlink:href="#au"
           transform="matrix(0.03703703703703702,0,0,0.03703703703703702,21.481481481481474,0)" />
        <use
           id="use2021"
           xlink:href="#av"
           transform="matrix(0.03703703703703702,0,0,0.03703703703703702,31.074074074074062,0)" />
      </g>
      <path
         id="aw"
         d="M115-194c53 0 69 39 70 98 0 66-23 100-70 100C84 3 66-7 56-30L54 0H23l1-261h32v101c10-23 28-34 59-34zm-8 174c40 0 45-34 45-75 0-40-5-75-45-74-42 0-51 32-51 76 0 43 10 73 51 73"
         fill="#333" />
      <path
         id="ax"
         d="M16-82v-28h88v28H16"
         fill="#333" />
      <g
         id="y">
        <use
           id="use2026"
           xlink:href="#aw"
           transform="matrix(0.03703703703703702,0,0,0.03703703703703702,0,0)" />
        <use
           id="use2028"
           xlink:href="#U"
           transform="matrix(0.03703703703703702,0,0,0.03703703703703702,7.407407407407404,0)" />
        <use
           id="use2030"
           xlink:href="#af"
           transform="matrix(0.03703703703703702,0,0,0.03703703703703702,14.814814814814808,0)" />
        <use
           id="use2032"
           xlink:href="#M"
           transform="matrix(0.03703703703703702,0,0,0.03703703703703702,22.222222222222214,0)" />
        <use
           id="use2034"
           xlink:href="#S"
           transform="matrix(0.03703703703703702,0,0,0.03703703703703702,25.925925925925913,0)" />
        <use
           id="use2036"
           xlink:href="#L"
           transform="matrix(0.03703703703703702,0,0,0.03703703703703702,30.333333333333314,0)" />
        <use
           id="use2038"
           xlink:href="#N"
           transform="matrix(0.03703703703703702,0,0,0.03703703703703702,33.259259259259245,0)" />
        <use
           id="use2040"
           xlink:href="#U"
           transform="matrix(0.03703703703703702,0,0,0.03703703703703702,39.92592592592591,0)" />
        <use
           id="use2042"
           xlink:href="#ax"
           transform="matrix(0.03703703703703702,0,0,0.03703703703703702,47.333333333333314,0)" />
        <use
           id="use2044"
           xlink:href="#as"
           transform="matrix(0.03703703703703702,0,0,0.03703703703703702,51.74074074074072,0)" />
        <use
           id="use2046"
           xlink:href="#K"
           transform="matrix(0.03703703703703702,0,0,0.03703703703703702,59.148148148148124,0)" />
      </g>
      <g
         id="z">
        <use
           id="use2049"
           xlink:href="#aw"
           transform="matrix(0.03703703703703702,0,0,0.03703703703703702,0,0)" />
        <use
           id="use2051"
           xlink:href="#U"
           transform="matrix(0.03703703703703702,0,0,0.03703703703703702,7.407407407407404,0)" />
        <use
           id="use2053"
           xlink:href="#af"
           transform="matrix(0.03703703703703702,0,0,0.03703703703703702,14.814814814814808,0)" />
        <use
           id="use2055"
           xlink:href="#M"
           transform="matrix(0.03703703703703702,0,0,0.03703703703703702,22.222222222222214,0)" />
        <use
           id="use2057"
           xlink:href="#S"
           transform="matrix(0.03703703703703702,0,0,0.03703703703703702,25.925925925925913,0)" />
        <use
           id="use2059"
           xlink:href="#L"
           transform="matrix(0.03703703703703702,0,0,0.03703703703703702,30.333333333333314,0)" />
        <use
           id="use2061"
           xlink:href="#N"
           transform="matrix(0.03703703703703702,0,0,0.03703703703703702,33.259259259259245,0)" />
        <use
           id="use2063"
           xlink:href="#U"
           transform="matrix(0.03703703703703702,0,0,0.03703703703703702,39.92592592592591,0)" />
      </g>
      <path
         id="ay"
         d="M85-194c31 0 48 13 60 33l-1-100h32l1 261h-30c-2-10 0-23-3-31C134-8 116 4 85 4 32 4 16-35 15-94c0-66 23-100 70-100zm9 24c-40 0-46 34-46 75 0 40 6 74 45 74 42 0 51-32 51-76 0-42-9-74-50-73"
         fill="#333" />
      <g
         id="A">
        <use
           id="use2067"
           xlink:href="#ad"
           transform="matrix(0.06172839506172839,0,0,0.06172839506172839,0,0)" />
        <use
           id="use2069"
           xlink:href="#ak"
           transform="matrix(0.06172839506172839,0,0,0.06172839506172839,14.814814814814813,0)" />
        <use
           id="use2071"
           xlink:href="#ay"
           transform="matrix(0.06172839506172839,0,0,0.06172839506172839,27.160493827160494,0)" />
        <use
           id="use2073"
           xlink:href="#L"
           transform="matrix(0.06172839506172839,0,0,0.06172839506172839,39.50617283950617,0)" />
        <use
           id="use2075"
           xlink:href="#Q"
           transform="matrix(0.06172839506172839,0,0,0.06172839506172839,44.382716049382715,0)" />
        <use
           id="use2077"
           xlink:href="#ag"
           transform="matrix(0.06172839506172839,0,0,0.06172839506172839,62.901234567901234,0)" />
        <use
           id="use2079"
           xlink:href="#T"
           transform="matrix(0.06172839506172839,0,0,0.06172839506172839,77.71604938271605,0)" />
        <use
           id="use2081"
           xlink:href="#af"
           transform="matrix(0.06172839506172839,0,0,0.06172839506172839,82.5925925925926,0)" />
        <use
           id="use2083"
           xlink:href="#at"
           transform="matrix(0.06172839506172839,0,0,0.06172839506172839,94.93827160493828,0)" />
        <use
           id="use2085"
           xlink:href="#U"
           transform="matrix(0.06172839506172839,0,0,0.06172839506172839,106.0493827160494,0)" />
        <use
           id="use2087"
           xlink:href="#S"
           transform="matrix(0.06172839506172839,0,0,0.06172839506172839,118.39506172839508,0)" />
      </g>
      <g
         id="B">
        <use
           id="use2090"
           xlink:href="#V"
           transform="matrix(0.06172839506172839,0,0,0.06172839506172839,0,0)" />
        <use
           id="use2092"
           xlink:href="#W"
           transform="matrix(0.06172839506172839,0,0,0.06172839506172839,12.345679012345679,0)" />
        <use
           id="use2094"
           xlink:href="#X"
           transform="matrix(0.06172839506172839,0,0,0.06172839506172839,24.691358024691358,0)" />
        <use
           id="use2096"
           xlink:href="#Y"
           transform="matrix(0.06172839506172839,0,0,0.06172839506172839,37.03703703703704,0)" />
        <use
           id="use2098"
           xlink:href="#V"
           transform="matrix(0.06172839506172839,0,0,0.06172839506172839,43.20987654320988,0)" />
        <use
           id="use2100"
           xlink:href="#Z"
           transform="matrix(0.06172839506172839,0,0,0.06172839506172839,55.55555555555556,0)" />
        <use
           id="use2102"
           xlink:href="#aa"
           transform="matrix(0.06172839506172839,0,0,0.06172839506172839,67.90123456790124,0)" />
        <use
           id="use2104"
           xlink:href="#Y"
           transform="matrix(0.06172839506172839,0,0,0.06172839506172839,80.24691358024693,0)" />
        <use
           id="use2106"
           xlink:href="#V"
           transform="matrix(0.06172839506172839,0,0,0.06172839506172839,86.41975308641976,0)" />
        <use
           id="use2108"
           xlink:href="#Y"
           transform="matrix(0.06172839506172839,0,0,0.06172839506172839,98.76543209876544,0)" />
        <use
           id="use2110"
           xlink:href="#am"
           transform="matrix(0.06172839506172839,0,0,0.06172839506172839,104.93827160493828,0)" />
        <use
           id="use2112"
           xlink:href="#V"
           transform="matrix(0.06172839506172839,0,0,0.06172839506172839,117.28395061728396,0)" />
      </g>
      <g
         id="C">
        <use
           id="use2115"
           xlink:href="#J"
           transform="matrix(0.06172839506172839,0,0,0.06172839506172839,0,0)" />
        <use
           id="use2117"
           xlink:href="#M"
           transform="matrix(0.06172839506172839,0,0,0.06172839506172839,14.814814814814813,0)" />
        <use
           id="use2119"
           xlink:href="#U"
           transform="matrix(0.06172839506172839,0,0,0.06172839506172839,20.98765432098765,0)" />
        <use
           id="use2121"
           xlink:href="#S"
           transform="matrix(0.06172839506172839,0,0,0.06172839506172839,33.33333333333333,0)" />
        <use
           id="use2123"
           xlink:href="#R"
           transform="matrix(0.06172839506172839,0,0,0.06172839506172839,40.679012345679006,0)" />
      </g>
      <g
         id="D">
        <use
           id="use2126"
           xlink:href="#P"
           transform="matrix(0.06172839506172839,0,0,0.06172839506172839,0,0)" />
        <use
           id="use2128"
           xlink:href="#af"
           transform="matrix(0.06172839506172839,0,0,0.06172839506172839,15.987654320987653,0)" />
        <use
           id="use2130"
           xlink:href="#ac"
           transform="matrix(0.06172839506172839,0,0,0.06172839506172839,28.333333333333332,0)" />
        <use
           id="use2132"
           xlink:href="#U"
           transform="matrix(0.06172839506172839,0,0,0.06172839506172839,46.79012345679012,0)" />
        <use
           id="use2134"
           xlink:href="#S"
           transform="matrix(0.06172839506172839,0,0,0.06172839506172839,59.1358024691358,0)" />
        <use
           id="use2136"
           xlink:href="#af"
           transform="matrix(0.06172839506172839,0,0,0.06172839506172839,66.48148148148148,0)" />
      </g>
      <g
         id="E">
        <use
           id="use2139"
           xlink:href="#V"
           transform="matrix(0.06172839506172839,0,0,0.06172839506172839,0,0)" />
        <use
           id="use2141"
           xlink:href="#W"
           transform="matrix(0.06172839506172839,0,0,0.06172839506172839,12.345679012345679,0)" />
        <use
           id="use2143"
           xlink:href="#X"
           transform="matrix(0.06172839506172839,0,0,0.06172839506172839,24.691358024691358,0)" />
        <use
           id="use2145"
           xlink:href="#Y"
           transform="matrix(0.06172839506172839,0,0,0.06172839506172839,37.03703703703704,0)" />
        <use
           id="use2147"
           xlink:href="#V"
           transform="matrix(0.06172839506172839,0,0,0.06172839506172839,43.20987654320988,0)" />
        <use
           id="use2149"
           xlink:href="#Z"
           transform="matrix(0.06172839506172839,0,0,0.06172839506172839,55.55555555555556,0)" />
        <use
           id="use2151"
           xlink:href="#aa"
           transform="matrix(0.06172839506172839,0,0,0.06172839506172839,67.90123456790124,0)" />
        <use
           id="use2153"
           xlink:href="#Y"
           transform="matrix(0.06172839506172839,0,0,0.06172839506172839,80.24691358024693,0)" />
        <use
           id="use2155"
           xlink:href="#V"
           transform="matrix(0.06172839506172839,0,0,0.06172839506172839,86.41975308641976,0)" />
        <use
           id="use2157"
           xlink:href="#Y"
           transform="matrix(0.06172839506172839,0,0,0.06172839506172839,98.76543209876544,0)" />
        <use
           id="use2159"
           xlink:href="#X"
           transform="matrix(0.06172839506172839,0,0,0.06172839506172839,104.93827160493828,0)" />
        <use
           id="use2161"
           xlink:href="#V"
           transform="matrix(0.06172839506172839,0,0,0.06172839506172839,117.28395061728396,0)" />
      </g>
      <g
         id="F">
        <use
           id="use2164"
           xlink:href="#J"
           transform="matrix(0.06172839506172839,0,0,0.06172839506172839,0,0)" />
        <use
           id="use2166"
           xlink:href="#aq"
           transform="matrix(0.06172839506172839,0,0,0.06172839506172839,14.814814814814813,0)" />
      </g>
      <g
         id="G">
        <use
           id="use2169"
           xlink:href="#V"
           transform="matrix(0.06172839506172839,0,0,0.06172839506172839,0,0)" />
        <use
           id="use2171"
           xlink:href="#W"
           transform="matrix(0.06172839506172839,0,0,0.06172839506172839,12.345679012345679,0)" />
        <use
           id="use2173"
           xlink:href="#X"
           transform="matrix(0.06172839506172839,0,0,0.06172839506172839,24.691358024691358,0)" />
        <use
           id="use2175"
           xlink:href="#Y"
           transform="matrix(0.06172839506172839,0,0,0.06172839506172839,37.03703703703704,0)" />
        <use
           id="use2177"
           xlink:href="#V"
           transform="matrix(0.06172839506172839,0,0,0.06172839506172839,43.20987654320988,0)" />
        <use
           id="use2179"
           xlink:href="#Z"
           transform="matrix(0.06172839506172839,0,0,0.06172839506172839,55.55555555555556,0)" />
        <use
           id="use2181"
           xlink:href="#aa"
           transform="matrix(0.06172839506172839,0,0,0.06172839506172839,67.90123456790124,0)" />
        <use
           id="use2183"
           xlink:href="#Y"
           transform="matrix(0.06172839506172839,0,0,0.06172839506172839,80.24691358024693,0)" />
        <use
           id="use2185"
           xlink:href="#V"
           transform="matrix(0.06172839506172839,0,0,0.06172839506172839,86.41975308641976,0)" />
        <use
           id="use2187"
           xlink:href="#Y"
           transform="matrix(0.06172839506172839,0,0,0.06172839506172839,98.76543209876544,0)" />
        <use
           id="use2189"
           xlink:href="#X"
           transform="matrix(0.06172839506172839,0,0,0.06172839506172839,104.93827160493828,0)" />
        <use
           id="use2191"
           xlink:href="#am"
           transform="matrix(0.06172839506172839,0,0,0.06172839506172839,117.28395061728396,0)" />
      </g>
      <g
         id="H">
        <use
           id="use2194"
           xlink:href="#ag"
           transform="matrix(0.06172839506172839,0,0,0.06172839506172839,0,0)" />
        <use
           id="use2196"
           xlink:href="#J"
           transform="matrix(0.06172839506172839,0,0,0.06172839506172839,14.814814814814813,0)" />
        <use
           id="use2198"
           xlink:href="#P"
           transform="matrix(0.06172839506172839,0,0,0.06172839506172839,35.80246913580247,0)" />
        <use
           id="use2200"
           xlink:href="#af"
           transform="matrix(0.06172839506172839,0,0,0.06172839506172839,51.79012345679012,0)" />
        <use
           id="use2202"
           xlink:href="#ac"
           transform="matrix(0.06172839506172839,0,0,0.06172839506172839,64.1358024691358,0)" />
        <use
           id="use2204"
           xlink:href="#U"
           transform="matrix(0.06172839506172839,0,0,0.06172839506172839,82.59259259259258,0)" />
        <use
           id="use2206"
           xlink:href="#S"
           transform="matrix(0.06172839506172839,0,0,0.06172839506172839,94.93827160493827,0)" />
        <use
           id="use2208"
           xlink:href="#af"
           transform="matrix(0.06172839506172839,0,0,0.06172839506172839,102.28395061728395,0)" />
      </g>
      <g
         id="I">
        <use
           id="use2211"
           xlink:href="#V"
           transform="matrix(0.06172839506172839,0,0,0.06172839506172839,0,0)" />
        <use
           id="use2213"
           xlink:href="#W"
           transform="matrix(0.06172839506172839,0,0,0.06172839506172839,12.345679012345679,0)" />
        <use
           id="use2215"
           xlink:href="#X"
           transform="matrix(0.06172839506172839,0,0,0.06172839506172839,24.691358024691358,0)" />
        <use
           id="use2217"
           xlink:href="#Y"
           transform="matrix(0.06172839506172839,0,0,0.06172839506172839,37.03703703703704,0)" />
        <use
           id="use2219"
           xlink:href="#V"
           transform="matrix(0.06172839506172839,0,0,0.06172839506172839,43.20987654320988,0)" />
        <use
           id="use2221"
           xlink:href="#Z"
           transform="matrix(0.06172839506172839,0,0,0.06172839506172839,55.55555555555556,0)" />
        <use
           id="use2223"
           xlink:href="#aa"
           transform="matrix(0.06172839506172839,0,0,0.06172839506172839,67.90123456790124,0)" />
        <use
           id="use2225"
           xlink:href="#Y"
           transform="matrix(0.06172839506172839,0,0,0.06172839506172839,80.24691358024693,0)" />
        <use
           id="use2227"
           xlink:href="#V"
           transform="matrix(0.06172839506172839,0,0,0.06172839506172839,86.41975308641976,0)" />
        <use
           id="use2229"
           xlink:href="#Y"
           transform="matrix(0.06172839506172839,0,0,0.06172839506172839,98.76543209876544,0)" />
        <use
           id="use2231"
           xlink:href="#X"
           transform="matrix(0.06172839506172839,0,0,0.06172839506172839,104.93827160493828,0)" />
        <use
           id="use2233"
           xlink:href="#X"
           transform="matrix(0.06172839506172839,0,0,0.06172839506172839,117.28395061728396,0)" />
      </g>
    </defs>
  </g>
</svg>
