<?xml version="1.0" encoding="UTF-8" standalone="no"?>
<svg xmlns:svg="http://www.w3.org/2000/svg" xmlns="http://www.w3.org/2000/svg"
     version="1.1" width="575px" height="575px" viewBox="-2 -2 579 579">
    <defs />
    <g transform="translate(-107.73,-241.82)">
		<circle cx="396" cy="529" r="285" style="fill:#ffffff; stroke:#000000; stroke-width:1;" />
		<circle cx="396" cy="529" r="281" style="fill:#004488; stroke:none;" />
    </g>
    <g
         transform="translate(-87.992,-245.35)"
         id="layer1">
            <g
                 transform="matrix(1.4744,0,0,1.47,994.72,77.733)" style="fill:#ffffff;fill-opacity:1;stroke:none;">
                <path
                     d="M -384.01,417.53 A 38.152,36.157 0 1 1 -460.31,417.53 38.152,36.157 0 1 1 -384.01,417.53 z"
                     transform="matrix(0.9436,0,0,0.99567,-21.97,1.9666)" />
                <path
                     d="M -420.32,164.94 C -439.94,164.94 -455.73,181.06 -455.73,201.09 L -445.26,327.75 C -443.26,344.13 -441.55,353.42 -434.79,357.78 -430.38,359.79 -425.49,360.94 -420.32,360.94 -415.18,360.94 -410.31,359.81 -405.92,357.81 -399.12,353.46 -397.39,344.17 -395.39,327.75 L -384.92,201.09 C -384.92,181.06 -400.71,164.94 -420.32,164.94 z" />
            </g>
    </g>
</svg>
