<?xml version="1.0" encoding="UTF-8" standalone="no"?>
<svg xmlns:svg="http://www.w3.org/2000/svg" xmlns="http://www.w3.org/2000/svg"
     version="1.1" width="575px" height="575px" viewBox="-2 -2 579 579">
    <defs />
    <g transform="translate(-107.73,-241.82)">
		<circle cx="396" cy="529" r="285" style="fill:#ffffff; stroke:#000000; stroke-width:1;" />
		<circle cx="396" cy="529" r="281" style="fill:#004488; stroke:none;" />
        <g transform="translate(0,-1)" style="fill:#ffffff;fill-opacity:1;stroke:none;">
            <path
                 d="M 262.59,504.82 262.59,720.13 526.9,720.13 526.9,504.82 262.59,504.82 z M 281.12,523.32 508.4,523.32 508.4,701.51 281.12,701.51 281.12,523.32 z" />
            <path
                 d="M 394.77,339.54 C 335.23,339.54 286.79,387.38 285.83,446.7 L 285.8,446.7 285.8,448.48 285.8,506.82 305.8,506.82 C 305.65,490.99 305.32,462 305.7,451.91 302.58,403.91 345.71,358.67 393.83,359.38 394.77,359.36 395.71,359.34 396.64,359.35 425.62,359.69 453.18,375.84 469.17,399.7 485.46,423.19 484.41,475.82 483.74,506.82 L 503.7,506.82 503.7,448.48 503.7,446.7 503.67,446.7 C 502.71,387.38 454.31,339.54 394.77,339.54 z" />
            <path
                 d="M 394.75,552.73 C 378.62,552.73 365.5,565.84 365.5,581.98 365.5,593.31 371.97,603.13 381.41,607.98 L 365.31,673.54 424.19,673.54 408.1,607.98 C 417.52,603.12 423.97,593.3 423.97,581.98 423.97,565.84 410.89,552.73 394.75,552.73 z" />
        </g>
    </g>
</svg>
