999
dxfrw 0.5.11
0
SECTION
2
HEADER
9
$ACADVER
1
AC1021
9
$HANDSEED
5
20000
9
$DWGCODEPAGE
3
ANSI_1252
9
$INSBASE
10
0
20
0
30
0
9
$EXTMIN
10
-581.124917006
20
-76
30
0
9
$EXTMAX
10
1080
20
847
30
0
9
$LIMMIN
10
0
20
0
9
$LIMMAX
10
420
20
297
9
$ORTHOMODE
70
0
9
$LTSCALE
40
1
9
$TEXTSTYLE
7
STANDARD
9
$CLAYER
8
box
9
$DIMASZ
40
2.5
9
$DIMLFAC
40
1
9
$DIMSCALE
40
1
9
$DIMEXO
40
0.625
9
$DIMEXE
40
1.25
9
$DIMTXT
40
2.5
9
$DIMTSZ
40
0
9
$DIMAUNIT
70
0
9
$DIMADEC
70
2
9
$DIMLUNIT
70
2
9
$DIMSTYLE
2
STANDARD
9
$DIMGAP
40
0.625
9
$DIMTIH
70
0
9
$LUNITS
70
2
9
$LUPREC
70
4
9
$AUNITS
70
0
9
$AUPREC
70
2
9
$SPLINESEGS
70
8
9
$GRIDMODE
70
1
9
$SNAPSTYLE
70
0
9
$GRIDUNIT
10
0
20
0
9
$PINSBASE
10
0
20
0
30
0
9
$PLIMMIN
10
0
20
0
9
$PLIMMAX
10
210
20
297
9
$INSUNITS
70
4
9
$PSVPSCALE
40
1
0
ENDSEC
0
SECTION
2
CLASSES
0
ENDSEC
0
SECTION
2
TABLES
0
TABLE
2
VPORT
5
8
330
0
100
AcDbSymbolTable
70
1
0
VPORT
5
31
330
2
100
AcDbSymbolTableRecord
100
AcDbViewportTableRecord
2
*ACTIVE
70
0
10
0
20
0
11
1
21
1
12
645.459585606
22
450.754834576
13
0
23
0
14
10
24
10
15
10
25
10
16
0
26
0
36
1
17
0
27
0
37
0
40
1177.56366548
41
1.78595696489
42
50
43
0
44
0
50
0
51
0
71
0
72
100
73
1
74
3
75
0
76
1
77
0
78
0
281
0
65
1
110
0
120
0
130
0
111
1
121
0
131
0
112
0
122
1
132
0
79
0
146
0
348
10020
60
7
61
5
292
1
282
1
141
0
142
0
63
250
421
3358443
0
ENDTAB
0
TABLE
2
LTYPE
5
5
330
0
100
AcDbSymbolTable
70
4
0
LTYPE
5
14
330
5
100
AcDbSymbolTableRecord
100
AcDbLinetypeTableRecord
2
ByBlock
70
0
3

72
65
73
0
40
0
0
LTYPE
5
15
330
5
100
AcDbSymbolTableRecord
100
AcDbLinetypeTableRecord
2
ByLayer
70
0
3

72
65
73
0
40
0
0
LTYPE
5
16
330
5
100
AcDbSymbolTableRecord
100
AcDbLinetypeTableRecord
2
Continuous
70
0
3
Solid line
72
65
73
0
40
0
0
LTYPE
5
32
330
5
100
AcDbSymbolTableRecord
100
AcDbLinetypeTableRecord
2
DOT
70
0
3
Dot . . . . . . . . . . . . . . . . . . . . . .
72
65
73
2
40
6.35
49
0
74
0
49
-6.35
74
0
0
LTYPE
5
33
330
5
100
AcDbSymbolTableRecord
100
AcDbLinetypeTableRecord
2
DOT2
70
0
3
Dot (.5x) .....................................
72
65
73
2
40
3.175
49
0
74
0
49
-3.175
74
0
0
LTYPE
5
34
330
5
100
AcDbSymbolTableRecord
100
AcDbLinetypeTableRecord
2
DOTX2
70
0
3
Dot (2x) .  .  .  .  .  .  .  .  .  .  .  .  .
72
65
73
2
40
12.7
49
0
74
0
49
-12.7
74
0
0
LTYPE
5
35
330
5
100
AcDbSymbolTableRecord
100
AcDbLinetypeTableRecord
2
DASHED
70
0
3
Dot . . . . . . . . . . . . . . . . . . . . . .
72
65
73
2
40
19.05
49
12.7
74
0
49
-6.35
74
0
0
LTYPE
5
36
330
5
100
AcDbSymbolTableRecord
100
AcDbLinetypeTableRecord
2
DASHED2
70
0
3
Dashed (.5x) _ _ _ _ _ _ _ _ _ _ _ _ _ _ _ _ _
72
65
73
2
40
9.525
49
6.35
74
0
49
-3.175
74
0
0
LTYPE
5
37
330
5
100
AcDbSymbolTableRecord
100
AcDbLinetypeTableRecord
2
DASHEDX2
70
0
3
Dashed (2x) ____  ____  ____  ____  ____  ___
72
65
73
2
40
38.1
49
25.4
74
0
49
-12.7
74
0
0
LTYPE
5
38
330
5
100
AcDbSymbolTableRecord
100
AcDbLinetypeTableRecord
2
DASHDOT
70
0
3
Dash dot __ . __ . __ . __ . __ . __ . __ . __
72
65
73
4
40
25.4
49
12.7
74
0
49
-6.35
74
0
49
0
74
0
49
-6.35
74
0
0
LTYPE
5
39
330
5
100
AcDbSymbolTableRecord
100
AcDbLinetypeTableRecord
2
DASHDOT2
70
0
3
Dash dot (.5x) _._._._._._._._._._._._._._._.
72
65
73
4
40
12.7
49
6.35
74
0
49
-3.175
74
0
49
0
74
0
49
-3.175
74
0
0
LTYPE
5
3A
330
5
100
AcDbSymbolTableRecord
100
AcDbLinetypeTableRecord
2
DASHDOTX2
70
0
3
Dash dot (2x) ____  .  ____  .  ____  .  ___
72
65
73
4
40
50.8
49
25.4
74
0
49
-12.7
74
0
49
0
74
0
49
-12.7
74
0
0
LTYPE
5
3B
330
5
100
AcDbSymbolTableRecord
100
AcDbLinetypeTableRecord
2
DIVIDE
70
0
3
Divide ____ . . ____ . . ____ . . ____ . . ____
72
65
73
6
40
31.75
49
12.7
74
0
49
-6.35
74
0
49
0
74
0
49
-6.35
74
0
49
0
74
0
49
-6.35
74
0
0
LTYPE
5
3C
330
5
100
AcDbSymbolTableRecord
100
AcDbLinetypeTableRecord
2
DIVIDE2
70
0
3
Divide (.5x) __..__..__..__..__..__..__..__.._
72
65
73
6
40
15.875
49
6.35
74
0
49
-3.175
74
0
49
0
74
0
49
-3.175
74
0
49
0
74
0
49
-3.175
74
0
0
LTYPE
5
3D
330
5
100
AcDbSymbolTableRecord
100
AcDbLinetypeTableRecord
2
DIVIDEX2
70
0
3
Divide (2x) ________  .  .  ________  .  .  _
72
65
73
6
40
63.5
49
25.4
74
0
49
-12.7
74
0
49
0
74
0
49
-12.7
74
0
49
0
74
0
49
-12.7
74
0
0
LTYPE
5
3E
330
5
100
AcDbSymbolTableRecord
100
AcDbLinetypeTableRecord
2
BORDER
70
0
3
Border __ __ . __ __ . __ __ . __ __ . __ __ .
72
65
73
6
40
44.45
49
12.7
74
0
49
-6.35
74
0
49
12.7
74
0
49
-6.35
74
0
49
0
74
0
49
-6.35
74
0
0
LTYPE
5
3F
330
5
100
AcDbSymbolTableRecord
100
AcDbLinetypeTableRecord
2
BORDER2
70
0
3
Border (.5x) __.__.__.__.__.__.__.__.__.__.__.
72
65
73
6
40
22.225
49
6.35
74
0
49
-3.175
74
0
49
6.35
74
0
49
-3.175
74
0
49
0
74
0
49
-3.175
74
0
0
LTYPE
5
40
330
5
100
AcDbSymbolTableRecord
100
AcDbLinetypeTableRecord
2
BORDERX2
70
0
3
Border (2x) ____  ____  .  ____  ____  .  ___
72
65
73
6
40
88.9
49
25.4
74
0
49
-12.7
74
0
49
25.4
74
0
49
-12.7
74
0
49
0
74
0
49
-12.7
74
0
0
LTYPE
5
41
330
5
100
AcDbSymbolTableRecord
100
AcDbLinetypeTableRecord
2
CENTER
70
0
3
Center ____ _ ____ _ ____ _ ____ _ ____ _ ____
72
65
73
4
40
50.8
49
31.75
74
0
49
-6.35
74
0
49
6.35
74
0
49
-6.35
74
0
0
LTYPE
5
42
330
5
100
AcDbSymbolTableRecord
100
AcDbLinetypeTableRecord
2
CENTER2
70
0
3
Center (.5x) ___ _ ___ _ ___ _ ___ _ ___ _ ___
72
65
73
4
40
28.575
49
19.05
74
0
49
-3.175
74
0
49
3.175
74
0
49
-3.175
74
0
0
LTYPE
5
43
330
5
100
AcDbSymbolTableRecord
100
AcDbLinetypeTableRecord
2
CENTERX2
70
0
3
Center (2x) ________  __  ________  __  _____
72
65
73
4
40
101.6
49
63.5
74
0
49
-12.7
74
0
49
12.7
74
0
49
-12.7
74
0
0
ENDTAB
0
TABLE
2
LAYER
5
2
330
0
100
AcDbSymbolTable
70
1
0
LAYER
5
10
330
2
100
AcDbSymbolTableRecord
100
AcDbLayerTableRecord
2
0
70
1
62
7
6
CONTINUOUS
370
0
390
F
0
LAYER
5
44
330
2
100
AcDbSymbolTableRecord
100
AcDbLayerTableRecord
2
acrylic
70
1
62
7
6
CONTINUOUS
370
0
390
F
0
LAYER
5
45
330
2
100
AcDbSymbolTableRecord
100
AcDbLayerTableRecord
2
box
70
0
62
7
6
CONTINUOUS
370
0
390
F
0
LAYER
5
46
330
2
100
AcDbSymbolTableRecord
100
AcDbLayerTableRecord
2
console
70
1
62
216
420
8388736
6
CONTINUOUS
370
0
390
F
0
LAYER
5
47
330
2
100
AcDbSymbolTableRecord
100
AcDbLayerTableRecord
2
panel
70
1
62
7
6
CONTINUOUS
370
0
390
F
0
LAYER
5
48
330
2
100
AcDbSymbolTableRecord
100
AcDbLayerTableRecord
2
ply
70
1
62
3
6
CONTINUOUS
370
0
390
F
0
ENDTAB
0
TABLE
2
STYLE
5
3
330
0
100
AcDbSymbolTable
70
3
0
STYLE
5
49
330
2
100
AcDbSymbolTableRecord
100
AcDbTextStyleTableRecord
2
Standard
70
0
40
0
41
1
50
0
71
0
42
1
3
txt
4

0
ENDTAB
0
TABLE
2
VIEW
5
6
330
0
100
AcDbSymbolTable
70
0
0
ENDTAB
0
TABLE
2
UCS
5
7
330
0
100
AcDbSymbolTable
70
0
0
ENDTAB
0
TABLE
2
APPID
5
9
330
0
100
AcDbSymbolTable
70
1
0
APPID
5
12
330
9
100
AcDbSymbolTableRecord
100
AcDbRegAppTableRecord
2
ACAD
70
0
0
ENDTAB
0
TABLE
2
DIMSTYLE
5
A
330
0
100
AcDbSymbolTable
70
1
100
AcDbDimStyleTable
71
1
0
DIMSTYLE
105
4A
330
A
100
AcDbSymbolTableRecord
100
AcDbDimStyleTableRecord
2
Standard
70
0
40
1
41
2.5
42
0.625
43
0.38
44
1.25
45
0
46
0
47
0
48
0
140
2.5
141
0.09
142
0
143
25.4
144
1
145
0
146
1
147
0.625
148
0
71
0
72
0
73
0
74
1
75
0
76
0
77
0
78
0
79
0
170
0
171
2
172
0
173
0
174
0
175
0
176
0
177
0
178
0
179
0
271
4
272
4
273
2
274
2
275
0
276
0
277
2
278
46
279
0
280
0
281
0
282
0
283
1
284
0
285
0
286
0
288
0
289
3
340
Standard
341

371
-2
372
-2
0
ENDTAB
0
TABLE
2
BLOCK_RECORD
5
1
330
0
100
AcDbSymbolTable
70
2
0
BLOCK_RECORD
5
1F
330
1
100
AcDbSymbolTableRecord
100
AcDbBlockTableRecord
2
*Model_Space
70
0
280
1
281
0
0
BLOCK_RECORD
5
1E
330
1
100
AcDbSymbolTableRecord
100
AcDbBlockTableRecord
2
*Paper_Space
70
0
280
1
281
0
0
BLOCK_RECORD
5
4B
330
1
100
AcDbSymbolTableRecord
100
AcDbBlockTableRecord
2
CARLING-LM6
70
0
280
1
281
0
0
BLOCK_RECORD
5
4E
330
1
100
AcDbSymbolTableRecord
100
AcDbBlockTableRecord
2
CARLING-LM3
70
0
280
1
281
0
0
ENDTAB
0
ENDSEC
0
SECTION
2
BLOCKS
0
BLOCK
5
20
330
1F
100
AcDbEntity
8
0
100
AcDbBlockBegin
2
*Model_Space
70
0
10
0
20
0
30
0
3
*Model_Space
1

0
ENDBLK
5
21
330
1F
100
AcDbEntity
8
0
100
AcDbBlockEnd
0
BLOCK
5
1C
330
1B
100
AcDbEntity
8
0
100
AcDbBlockBegin
2
*Paper_Space
70
0
10
0
20
0
30
0
3
*Paper_Space
1

0
ENDBLK
5
1D
330
1F
100
AcDbEntity
8
0
100
AcDbBlockEnd
0
BLOCK
5
4C
330
4B
100
AcDbEntity
8
0
100
AcDbBlockBegin
2
CARLING-LM6
70
0
10
0
20
0
3
CARLING-LM6
1

0
ARC
5
51
100
AcDbEntity
8
acrylic
6
ByLayer
62
256
370
-1
100
AcDbCircle
10
0
20
0
40
1.5
100
AcDbArc
50
0
51
270
0
LINE
5
52
100
AcDbEntity
8
acrylic
6
ByLayer
62
256
370
-1
100
AcDbLine
10
1.5
20
0
11
154.7
21
0
0
LINE
5
53
100
AcDbEntity
8
acrylic
6
ByLayer
62
256
370
-1
100
AcDbLine
10
156.2
20
-1.49999999999
11
156.2
21
-46.8
0
LINE
5
54
100
AcDbEntity
8
acrylic
6
ByLayer
62
256
370
-1
100
AcDbLine
10
154.7
20
-48.3
11
1.50000000002
21
-48.3
0
LINE
5
55
100
AcDbEntity
8
acrylic
6
ByLayer
62
256
370
-1
100
AcDbLine
10
0
20
-46.8
11
0
21
-1.49999999999
0
ARC
5
56
100
AcDbEntity
8
acrylic
6
ByLayer
62
256
370
-1
100
AcDbCircle
10
156.2
20
0
40
1.5
100
AcDbArc
50
270
51
540
0
ARC
5
57
100
AcDbEntity
8
acrylic
6
ByLayer
62
256
370
-1
100
AcDbCircle
10
156.2
20
-48.3
40
1.5
100
AcDbArc
50
180
51
90
0
ARC
5
58
100
AcDbEntity
8
acrylic
6
ByLayer
62
256
370
-1
100
AcDbCircle
10
0
20
-48.3
40
1.5
100
AcDbArc
50
90
51
0
0
ENDBLK
5
4D
330
4B
100
AcDbEntity
8
0
100
AcDbBlockEnd
0
BLOCK
5
4F
330
4E
100
AcDbEntity
8
0
100
AcDbBlockBegin
2
CARLING-LM3
70
0
10
0
20
0
3
CARLING-LM3
1

0
LINE
5
59
100
AcDbEntity
8
acrylic
6
ByLayer
62
256
370
-1
100
AcDbLine
10
1.5
20
0
11
76.2
21
0
0
LINE
5
5A
100
AcDbEntity
8
acrylic
6
ByLayer
62
256
370
-1
100
AcDbLine
10
77.7
20
-1.5
11
77.7
21
-46.8
0
LINE
5
5B
100
AcDbEntity
8
acrylic
6
ByLayer
62
256
370
-1
100
AcDbLine
10
0
20
-1.5
11
0
21
-46.8
0
LINE
5
5C
100
AcDbEntity
8
acrylic
6
ByLayer
62
256
370
-1
100
AcDbLine
10
1.5
20
-48.3
11
76.2
21
-48.3
0
ARC
5
5D
100
AcDbEntity
8
acrylic
6
ByLayer
62
256
370
-1
100
AcDbCircle
10
77.7
20
0
40
1.5
100
AcDbArc
50
270
51
540
0
ARC
5
5E
100
AcDbEntity
8
acrylic
6
ByLayer
62
256
370
-1
100
AcDbCircle
10
77.7
20
-48.3
40
1.5
100
AcDbArc
50
180
51
90
0
ARC
5
5F
100
AcDbEntity
8
acrylic
6
ByLayer
62
256
370
-1
100
AcDbCircle
10
0
20
-48.3
40
1.5
100
AcDbArc
50
90
51
0
0
ARC
5
60
100
AcDbEntity
8
acrylic
6
ByLayer
62
256
370
-1
100
AcDbCircle
10
0
20
0
40
1.5
100
AcDbArc
50
0
51
270
0
ENDBLK
5
50
330
4E
100
AcDbEntity
8
0
100
AcDbBlockEnd
0
ENDSEC
0
SECTION
2
ENTITIES
0
CIRCLE
5
61
100
AcDbEntity
8
ply
6
ByLayer
62
256
370
-1
100
AcDbCircle
10
762.25
20
287.5
40
50
0
LWPOLYLINE
5
62
100
AcDbEntity
8
ply
6
ByLayer
62
256
370
-1
100
AcDbPolyline
90
8
70
1
43
0
10
712.5
20
479
10
869.5
20
479
42
-0.414213562373
10
879.5
20
469
10
879.5
20
375
42
-0.414213562373
10
869.5
20
365
10
712.5
20
365
42
-0.414213562373
10
702.5
20
375
10
702.5
20
469
42
-0.414213562373
0
CIRCLE
5
63
100
AcDbEntity
8
ply
6
ByLayer
62
256
370
-1
100
AcDbCircle
10
367.5
20
423
40
48
0
CIRCLE
5
64
100
AcDbEntity
8
ply
6
ByLayer
62
256
370
-1
100
AcDbCircle
10
532.5
20
423
40
48
0
CIRCLE
5
65
100
AcDbEntity
8
ply
6
ByLayer
62
256
370
-1
100
AcDbCircle
10
700
20
147.5
40
25
0
LWPOLYLINE
5
66
100
AcDbEntity
8
ply
6
ByLayer
62
256
370
-1
100
AcDbPolyline
90
24
70
1
43
0
10
36
20
337
10
144
20
337
42
-0.414213562373
10
154
20
327
10
154
20
309.864916731
42
0.414213562373
10
158.5
20
305.364916731
10
159.5
20
305.364916731
42
-0.414213562373
10
164
20
300.864916731
10
164
20
271.135083269
42
-0.414213562373
10
159.5
20
266.635083269
10
158.5
20
266.635083269
42
0.414213562373
10
154
20
262.135083269
10
154
20
245
42
-0.414213562373
10
144
20
235
10
36
20
235
42
-0.414213562373
10
26
20
245
10
26
20
262.135083269
42
0.414213562373
10
21.5
20
266.635083269
10
20.5
20
266.635083269
42
-0.414213562373
10
16
20
271.135083269
10
16
20
300.864916731
42
-0.414213562373
10
20.5
20
305.364916731
10
21.5
20
305.364916731
42
0.414213562373
10
26
20
309.864916731
10
26
20
327
42
-0.414213562373
0
CIRCLE
5
67
100
AcDbEntity
8
ply
6
ByLayer
62
256
370
-1
100
AcDbCircle
10
311.5
20
287.5
40
46
0
CIRCLE
5
68
100
AcDbEntity
8
ply
6
ByLayer
62
256
370
-1
100
AcDbCircle
10
588.5
20
287.5
40
46
0
CIRCLE
5
69
100
AcDbEntity
8
ply
6
ByLayer
62
256
370
-1
100
AcDbCircle
10
450
20
287.5
40
44.5
0
LWPOLYLINE
5
6A
100
AcDbEntity
8
ply
6
ByLayer
62
256
370
-1
100
AcDbPolyline
90
16
70
1
43
0
10
307.464466094
20
163.464466094
10
324.535533906
20
180.535533906
42
-0.19891236738
10
328.071067812
20
182
10
571.928932188
20
182
42
-0.19891236738
10
575.464466094
20
180.535533906
10
592.535533906
20
163.464466094
42
-0.19891236738
10
594
20
159.928932188
10
594
20
48.0710678119
42
-0.19891236738
10
592.535533906
20
44.5355339059
10
575.464466094
20
27.4644660941
42
-0.19891236738
10
571.928932188
20
26
10
328.071067812
20
26
42
-0.19891236738
10
324.535533906
20
27.4644660941
10
307.464466094
20
44.5355339059
42
-0.19891236738
10
306
20
48.0710678119
10
306
20
159.928932188
42
-0.19891236738
0
ARC
5
6B
100
AcDbEntity
8
ply
6
ByLayer
62
256
370
-1
100
AcDbCircle
10
15
20
430
40
5
100
AcDbArc
50
90
51
180
0
LINE
5
6C
100
AcDbEntity
8
ply
6
ByLayer
62
256
370
-1
100
AcDbLine
10
10
20
410
11
10
21
430
0
LINE
5
6D
100
AcDbEntity
8
ply
6
ByLayer
62
256
370
-1
100
AcDbLine
10
86.3772233983
20
405
11
15
21
405
0
ARC
5
6E
100
AcDbEntity
8
ply
6
ByLayer
62
256
370
-1
100
AcDbCircle
10
15
20
410
40
5
100
AcDbArc
50
180
51
270
0
LINE
5
6F
100
AcDbEntity
8
ply
6
ByLayer
62
256
370
-1
100
AcDbLine
10
15
20
435
11
83.3589838486
21
435
0
ARC
5
70
100
AcDbEntity
8
ply
6
ByLayer
62
256
370
-1
100
AcDbCircle
10
118
20
420
40
35
100
AcDbArc
50
205.376933525
51
150
0
ARC
5
71
100
AcDbEntity
8
ply
6
ByLayer
62
256
370
-1
100
AcDbCircle
10
83.3589838486
20
440
40
5
100
AcDbArc
50
270
51
330
0
LWPOLYLINE
5
72
100
AcDbEntity
8
ply
6
ByLayer
62
256
370
-1
100
AcDbPolyline
90
8
70
1
43
0
10
25
20
205.3
10
102.7
20
205.3
42
-0.414213562373
10
104.7
20
203.3
10
104.7
20
155
42
-0.414213562373
10
102.7
20
153
10
25
20
153
42
-0.414213562373
10
23
20
155
10
23
20
203.3
42
-0.414213562373
0
LWPOLYLINE
5
73
100
AcDbEntity
8
ply
6
ByLayer
62
256
370
-1
100
AcDbPolyline
90
8
70
1
43
0
10
122
20
205.3
10
278.2
20
205.3
42
-0.414213562373
10
280.2
20
203.3
10
280.2
20
155
42
-0.414213562373
10
278.2
20
153
10
122
20
153
42
-0.414213562373
10
120
20
155
10
120
20
203.3
42
-0.414213562373
0
LWPOLYLINE
5
74
100
AcDbEntity
8
ply
6
ByLayer
62
256
370
-1
100
AcDbPolyline
90
8
70
1
43
0
10
25
20
140.3
10
102.7
20
140.3
42
-0.414213562373
10
104.7
20
138.3
10
104.7
20
90
42
-0.414213562373
10
102.7
20
88
10
25
20
88
42
-0.414213562373
10
23
20
90
10
23
20
138.3
42
-0.414213562373
0
LWPOLYLINE
5
75
100
AcDbEntity
8
ply
6
ByLayer
62
256
370
-1
100
AcDbPolyline
90
8
70
1
43
0
10
122
20
140.3
10
278.2
20
140.3
42
-0.414213562373
10
280.2
20
138.3
10
280.2
20
90
42
-0.414213562373
10
278.2
20
88
10
122
20
88
42
-0.414213562373
10
120
20
90
10
120
20
138.3
42
-0.414213562373
0
LWPOLYLINE
5
76
100
AcDbEntity
8
ply
6
ByLayer
62
256
370
-1
100
AcDbPolyline
90
8
70
1
43
0
10
25
20
75.3
10
102.7
20
75.3
42
-0.414213562373
10
104.7
20
73.3
10
104.7
20
25
42
-0.414213562373
10
102.7
20
23
10
25
20
23
42
-0.414213562373
10
23
20
25
10
23
20
73.3
42
-0.414213562373
0
LWPOLYLINE
5
77
100
AcDbEntity
8
ply
6
ByLayer
62
256
370
-1
100
AcDbPolyline
90
8
70
1
43
0
10
122
20
75.3
10
278.2
20
75.3
42
-0.414213562373
10
280.2
20
73.3
10
280.2
20
25
42
-0.414213562373
10
278.2
20
23
10
122
20
23
42
-0.414213562373
10
120
20
25
10
120
20
73.3
42
-0.414213562373
0
LWPOLYLINE
5
78
100
AcDbEntity
8
ply
6
ByLayer
62
256
370
-1
100
AcDbPolyline
90
8
70
1
43
0
10
797.3
20
205.3
10
875
20
205.3
42
-0.414213562373
10
877
20
203.3
10
877
20
155
42
-0.414213562373
10
875
20
153
10
797.3
20
153
42
-0.414213562373
10
795.3
20
155
10
795.3
20
203.3
42
-0.414213562373
0
LWPOLYLINE
5
79
100
AcDbEntity
8
ply
6
ByLayer
62
256
370
-1
100
AcDbPolyline
90
8
70
1
43
0
10
797.3
20
140.3
10
875
20
140.3
42
-0.414213562373
10
877
20
138.3
10
877
20
90
42
-0.414213562373
10
875
20
88
10
797.3
20
88
42
-0.414213562373
10
795.3
20
90
10
795.3
20
138.3
42
-0.414213562373
0
LWPOLYLINE
5
7A
100
AcDbEntity
8
ply
6
ByLayer
62
256
370
-1
100
AcDbPolyline
90
8
70
1
43
0
10
797.3
20
75.3
10
875
20
75.3
42
-0.414213562373
10
877
20
73.3
10
877
20
25
42
-0.414213562373
10
875
20
23
10
797.3
20
23
42
-0.414213562373
10
795.3
20
25
10
795.3
20
73.3
42
-0.414213562373
0
LWPOLYLINE
5
7B
100
AcDbEntity
8
ply
6
ByLayer
62
256
370
-1
100
AcDbPolyline
90
8
70
1
43
0
10
621.8
20
75.3
10
778
20
75.3
42
-0.414213562373
10
780
20
73.3
10
780
20
25
42
-0.414213562373
10
778
20
23
10
621.8
20
23
42
-0.414213562373
10
619.8
20
25
10
619.8
20
73.3
42
-0.414213562373
0
CIRCLE
5
7C
100
AcDbEntity
8
acrylic
6
ByLayer
62
3
370
-1
100
AcDbCircle
10
265.5
20
241.5
40
2.5
0
LWPOLYLINE
5
7D
100
AcDbEntity
8
acrylic
6
ByLayer
62
7
370
-1
100
AcDbPolyline
90
5
70
1
43
0
10
0
20
0
10
900
20
0
10
900
20
500
10
0
20
500
10
0
20
500
0
CIRCLE
5
7E
100
AcDbEntity
8
acrylic
6
ByLayer
62
256
370
-1
100
AcDbCircle
10
265.5
20
241.5
40
2.5
0
CIRCLE
5
7F
100
AcDbEntity
8
acrylic
6
ByLayer
62
3
370
-1
100
AcDbCircle
10
367.5
20
423
40
44
0
CIRCLE
5
80
100
AcDbEntity
8
acrylic
6
ByLayer
62
3
370
-1
100
AcDbCircle
10
532.5
20
423
40
44
0
CIRCLE
5
81
100
AcDbEntity
8
acrylic
6
ByLayer
62
3
370
-1
100
AcDbCircle
10
762.25
20
287.5
40
45
0
CIRCLE
5
82
100
AcDbEntity
8
acrylic
6
ByLayer
62
3
370
-1
100
AcDbCircle
10
713.75
20
336
40
2.5
0
CIRCLE
5
83
100
AcDbEntity
8
acrylic
6
ByLayer
62
3
370
-1
100
AcDbCircle
10
868.25
20
336
40
2.5
0
CIRCLE
5
84
100
AcDbEntity
8
acrylic
6
ByLayer
62
3
370
-1
100
AcDbCircle
10
713.75
20
239
40
2.5
0
CIRCLE
5
85
100
AcDbEntity
8
acrylic
6
ByLayer
62
3
370
-1
100
AcDbCircle
10
868.25
20
239
40
2.5
0
CIRCLE
5
86
100
AcDbEntity
8
acrylic
6
ByLayer
62
3
370
-1
100
AcDbCircle
10
700
20
147.5
40
25
0
CIRCLE
5
87
100
AcDbEntity
8
acrylic
6
ByLayer
62
3
370
-1
100
AcDbCircle
10
677.5
20
170
40
2.5
0
CIRCLE
5
88
100
AcDbEntity
8
acrylic
6
ByLayer
62
3
370
-1
100
AcDbCircle
10
722.5
20
170
40
2.5
0
CIRCLE
5
89
100
AcDbEntity
8
acrylic
6
ByLayer
62
3
370
-1
100
AcDbCircle
10
677.5
20
125
40
2.5
0
CIRCLE
5
8A
100
AcDbEntity
8
acrylic
6
ByLayer
62
3
370
-1
100
AcDbCircle
10
722.5
20
125
40
2.5
0
CIRCLE
5
8B
100
AcDbEntity
8
acrylic
6
ByLayer
62
3
370
-1
100
AcDbCircle
10
634.5
20
241.5
40
2.5
0
CIRCLE
5
8C
100
AcDbEntity
8
acrylic
6
ByLayer
62
3
370
-1
100
AcDbCircle
10
634.5
20
333.5
40
2.5
0
CIRCLE
5
8D
100
AcDbEntity
8
acrylic
6
ByLayer
62
3
370
-1
100
AcDbCircle
10
588.5
20
287.5
40
42
0
CIRCLE
5
8E
100
AcDbEntity
8
acrylic
6
ByLayer
62
3
370
-1
100
AcDbCircle
10
542.5
20
333.5
40
2.5
0
CIRCLE
5
8F
100
AcDbEntity
8
acrylic
6
ByLayer
62
3
370
-1
100
AcDbCircle
10
542.5
20
241.5
40
2.5
0
CIRCLE
5
90
100
AcDbEntity
8
acrylic
6
ByLayer
62
3
370
-1
100
AcDbCircle
10
401
20
287.5
40
2.5
0
CIRCLE
5
91
100
AcDbEntity
8
acrylic
6
ByLayer
62
3
370
-1
100
AcDbCircle
10
499
20
287.5
40
2.5
0
CIRCLE
5
92
100
AcDbEntity
8
acrylic
6
ByLayer
62
3
370
-1
100
AcDbCircle
10
450
20
287.5
40
44.5
0
CIRCLE
5
93
100
AcDbEntity
8
acrylic
6
ByLayer
62
3
370
-1
100
AcDbCircle
10
311.5
20
287.5
40
42
0
CIRCLE
5
94
100
AcDbEntity
8
acrylic
6
ByLayer
62
3
370
-1
100
AcDbCircle
10
357.5
20
333.5
40
2.5
0
CIRCLE
5
95
100
AcDbEntity
8
acrylic
6
ByLayer
62
3
370
-1
100
AcDbCircle
10
265.5
20
333.5
40
2.5
0
CIRCLE
5
96
100
AcDbEntity
8
acrylic
6
ByLayer
62
3
370
-1
100
AcDbCircle
10
265.5
20
241.5
40
2.5
0
CIRCLE
5
97
100
AcDbEntity
8
acrylic
6
ByLayer
62
3
370
-1
100
AcDbCircle
10
357.5
20
241.5
40
2.5
0
CIRCLE
5
98
100
AcDbEntity
8
acrylic
6
ByLayer
62
3
370
-1
100
AcDbCircle
10
589
20
177
40
2.5
0
CIRCLE
5
99
100
AcDbEntity
8
acrylic
6
ByLayer
62
3
370
-1
100
AcDbCircle
10
589
20
31
40
2.5
0
CIRCLE
5
9A
100
AcDbEntity
8
acrylic
6
ByLayer
62
3
370
-1
100
AcDbCircle
10
311
20
177
40
2.5
0
CIRCLE
5
9B
100
AcDbEntity
8
acrylic
6
ByLayer
62
3
370
-1
100
AcDbCircle
10
311
20
31
40
2.5
0
LWPOLYLINE
5
9C
100
AcDbEntity
8
acrylic
6
ByLayer
62
7
370
-1
100
AcDbPolyline
90
5
70
1
43
0
10
0
20
0
10
900
20
0
10
900
20
500
10
0
20
500
10
0
20
500
0
LWPOLYLINE
5
9D
100
AcDbEntity
8
acrylic
6
ByLayer
62
7
370
-1
100
AcDbPolyline
90
5
70
1
43
0
10
0
20
0
10
900
20
0
10
900
20
500
10
0
20
500
10
0
20
500
0
LWPOLYLINE
5
9E
100
AcDbEntity
8
acrylic
6
ByLayer
62
7
370
-1
100
AcDbPolyline
90
5
70
1
43
0
10
0
20
0
10
900
20
0
10
900
20
500
10
0
20
500
10
0
20
500
0
LWPOLYLINE
5
9F
100
AcDbEntity
8
acrylic
6
ByLayer
62
7
370
-1
100
AcDbPolyline
90
5
70
1
43
0
10
0
20
0
10
900
20
0
10
900
20
500
10
0
20
500
10
0
20
500
0
LWPOLYLINE
5
A0
100
AcDbEntity
8
acrylic
6
ByLayer
62
7
370
-1
100
AcDbPolyline
90
5
70
1
43
0
10
0
20
0
10
900
20
0
10
900
20
500
10
0
20
500
10
0
20
500
0
LWPOLYLINE
5
A1
100
AcDbEntity
8
0
6
ByLayer
62
256
370
-1
100
AcDbPolyline
90
4
70
1
43
0
10
0
20
500
10
900
20
500
10
900
20
0
10
0
20
0
0
LWPOLYLINE
5
A2
100
AcDbEntity
8
ply
6
ByLayer
62
7
370
-1
100
AcDbPolyline
90
5
70
1
43
0
10
3
20
3
10
3
20
497
10
897
20
497
10
897
20
3
10
3
20
3
0
LWPOLYLINE
5
A3
100
AcDbEntity
8
acrylic
6
ByLayer
62
3
370
-1
100
AcDbPolyline
90
16
70
1
43
0
10
328.071067812
20
26
10
571.928932188
20
26
42
0.19891236738
10
575.464466094
20
27.4644660941
10
592.535533906
20
44.5355339059
42
0.19891236738
10
594
20
48.0710678119
10
594
20
159.928932188
42
0.19891236738
10
592.535533906
20
163.464466094
10
575.464466094
20
180.535533906
42
0.19891236738
10
571.928932188
20
182
10
328.071067812
20
182
42
0.19891236738
10
324.535533906
20
180.535533906
10
307.464466094
20
163.464466094
42
0.19891236738
10
306
20
159.928932188
10
306
20
46
10
306
20
46
10
324.535533906
20
27.4644660941
42
0.19891236738
0
INSERT
5
A4
100
AcDbEntity
8
acrylic
6
ByLayer
62
256
370
-1
100
AcDbBlockReference
2
CARLING-LM6
10
621.8
20
73.3
30
0
41
1
42
1
43
0
50
0
70
1
71
1
44
0
45
0
0
INSERT
5
A5
100
AcDbEntity
8
acrylic
6
ByLayer
62
256
370
-1
100
AcDbBlockReference
2
CARLING-LM6
10
122
20
73.3
30
0
41
1
42
1
43
0
50
0
70
1
71
1
44
0
45
0
0
INSERT
5
A6
100
AcDbEntity
8
acrylic
6
ByLayer
62
256
370
-1
100
AcDbBlockReference
2
CARLING-LM6
10
122
20
138.3
30
0
41
1
42
1
43
0
50
0
70
1
71
1
44
0
45
0
0
INSERT
5
A7
100
AcDbEntity
8
acrylic
6
ByLayer
62
256
370
-1
100
AcDbBlockReference
2
CARLING-LM6
10
122
20
203.3
30
0
41
1
42
1
43
0
50
0
70
1
71
1
44
0
45
0
0
INSERT
5
A8
100
AcDbEntity
8
acrylic
6
ByLayer
62
256
370
-1
100
AcDbBlockReference
2
CARLING-LM3
10
25
20
203.3
30
0
41
1
42
1
43
0
50
0
70
1
71
1
44
0
45
0
0
INSERT
5
A9
100
AcDbEntity
8
acrylic
6
ByLayer
62
256
370
-1
100
AcDbBlockReference
2
CARLING-LM3
10
25
20
138.3
30
0
41
1
42
1
43
0
50
0
70
1
71
1
44
0
45
0
0
INSERT
5
AA
100
AcDbEntity
8
acrylic
6
ByLayer
62
256
370
-1
100
AcDbBlockReference
2
CARLING-LM3
10
25
20
73.3
30
0
41
1
42
1
43
0
50
0
70
1
71
1
44
0
45
0
0
LINE
5
AB
100
AcDbEntity
8
acrylic
6
ByLayer
62
256
370
-1
100
AcDbLine
10
32.5
20
332
11
147.5
21
332
0
LINE
5
AC
100
AcDbEntity
8
acrylic
6
ByLayer
62
256
370
-1
100
AcDbLine
10
149
20
330.5
11
149
21
241.5
0
LINE
5
AD
100
AcDbEntity
8
acrylic
6
ByLayer
62
256
370
-1
100
AcDbLine
10
147.5
20
240
11
32.5
21
240
0
LINE
5
AE
100
AcDbEntity
8
acrylic
6
ByLayer
62
256
370
-1
100
AcDbLine
10
31
20
241.5
11
31
21
330.5
0
ARC
5
AF
100
AcDbEntity
8
acrylic
6
ByLayer
62
256
370
-1
100
AcDbCircle
10
149
20
332
40
1.5
100
AcDbArc
50
270
51
540
0
ARC
5
B0
100
AcDbEntity
8
acrylic
6
ByLayer
62
256
370
-1
100
AcDbCircle
10
31
20
332
40
1.5
100
AcDbArc
50
0
51
270
0
ARC
5
B1
100
AcDbEntity
8
acrylic
6
ByLayer
62
256
370
-1
100
AcDbCircle
10
31
20
240
40
1.5
100
AcDbArc
50
90
51
360
0
ARC
5
B2
100
AcDbEntity
8
acrylic
6
ByLayer
62
256
370
-1
100
AcDbCircle
10
149
20
240
40
1.5
100
AcDbArc
50
180
51
90
0
INSERT
5
B3
100
AcDbEntity
8
acrylic
6
ByLayer
62
256
370
-1
100
AcDbBlockReference
2
CARLING-LM3
10
875
20
203.3
30
0
41
-1
42
1
43
0
50
0
70
1
71
1
44
0
45
0
0
INSERT
5
B4
100
AcDbEntity
8
acrylic
6
ByLayer
62
256
370
-1
100
AcDbBlockReference
2
CARLING-LM3
10
875
20
138.3
30
0
41
-1
42
1
43
0
50
0
70
1
71
1
44
0
45
0
0
INSERT
5
B5
100
AcDbEntity
8
acrylic
6
ByLayer
62
256
370
-1
100
AcDbBlockReference
2
CARLING-LM3
10
875
20
73.3
30
0
41
-1
42
1
43
0
50
0
70
1
71
1
44
0
45
0
0
LINE
5
B6
100
AcDbEntity
8
acrylic
6
ByLayer
62
256
370
-1
100
AcDbLine
10
714
20
469
11
868
21
469
0
LINE
5
B7
100
AcDbEntity
8
acrylic
6
ByLayer
62
256
370
-1
100
AcDbLine
10
869.5
20
467.5
11
869.5
21
376.5
0
LINE
5
B8
100
AcDbEntity
8
acrylic
6
ByLayer
62
256
370
-1
100
AcDbLine
10
868
20
375
11
714
21
375
0
LINE
5
B9
100
AcDbEntity
8
acrylic
6
ByLayer
62
256
370
-1
100
AcDbLine
10
712.5
20
376.5
11
712.5
21
467.5
0
ARC
5
BA
100
AcDbEntity
8
acrylic
6
ByLayer
62
256
370
-1
100
AcDbCircle
10
712.5
20
469
40
1.5
100
AcDbArc
50
0
51
270
0
ARC
5
BB
100
AcDbEntity
8
acrylic
6
ByLayer
62
256
370
-1
100
AcDbCircle
10
712.5
20
375
40
1.5
100
AcDbArc
50
90
51
0
0
ARC
5
BC
100
AcDbEntity
8
acrylic
6
ByLayer
62
256
370
-1
100
AcDbCircle
10
869.5
20
469
40
1.5
100
AcDbArc
50
270
51
540
0
ARC
5
BD
100
AcDbEntity
8
acrylic
6
ByLayer
62
256
370
-1
100
AcDbCircle
10
869.5
20
375
40
1.5
100
AcDbArc
50
180
51
90
0
LINE
5
BE
100
AcDbEntity
8
panel
6
ByLayer
62
256
370
-1
100
AcDbLine
10
-100
20
-5
11
-100
21
580
0
ARC
5
BF
100
AcDbEntity
8
panel
6
ByLayer
62
256
370
-1
100
AcDbCircle
10
-80
20
580
40
20
100
AcDbArc
50
90
51
180
0
LINE
5
C0
100
AcDbEntity
8
panel
6
ByLayer
62
256
370
-1
100
AcDbLine
10
-80
20
600
11
880
21
600
0
LINE
5
C1
100
AcDbEntity
8
panel
6
ByLayer
62
256
370
-1
100
AcDbLine
10
880
20
-25
11
-80
21
-25
0
ARC
5
C2
100
AcDbEntity
8
panel
6
ByLayer
62
256
370
-1
100
AcDbCircle
10
-80
20
-5
40
20
100
AcDbArc
50
180
51
270
0
ARC
5
C3
100
AcDbEntity
8
panel
6
ByLayer
62
256
370
-1
100
AcDbCircle
10
980
20
580.000015259
40
20
100
AcDbArc
50
9.43988629458e-12
51
90
0
LINE
5
C4
100
AcDbEntity
8
panel
6
ByLayer
62
256
370
-1
100
AcDbLine
10
1000
20
580.000015259
11
1000
21
-4.99998474121
0
ARC
5
C5
100
AcDbEntity
8
panel
6
ByLayer
62
256
370
-1
100
AcDbCircle
10
980
20
-4.9999847412
40
20
100
AcDbArc
50
270
51
360
0
LINE
5
C6
100
AcDbEntity
8
panel
6
ByLayer
62
256
370
-1
100
AcDbLine
10
880
20
600
11
980
21
600.000015259
0
LINE
5
C7
100
AcDbEntity
8
panel
6
ByLayer
62
256
370
-1
100
AcDbLine
10
880
20
-25
11
980
21
-24.9999847412
0
ARC
5
C8
100
AcDbEntity
8
box
6
ByLayer
62
256
370
-1
100
AcDbCircle
10
15
20
590
40
15
100
AcDbArc
50
90
51
180
0
LINE
5
C9
100
AcDbEntity
8
box
6
ByLayer
62
256
370
-1
100
AcDbLine
10
1065
20
605
11
15
21
605
0
ARC
5
CA
100
AcDbEntity
8
box
6
ByLayer
62
256
370
-1
100
AcDbCircle
10
1065
20
590
40
15
100
AcDbArc
50
0
51
90
0
LINE
5
CB
100
AcDbEntity
8
box
6
ByLayer
62
256
370
-1
100
AcDbLine
10
1080
20
15
11
1080
21
590
0
ARC
5
CC
100
AcDbEntity
8
box
6
ByLayer
62
256
370
-1
100
AcDbCircle
10
1065
20
15
40
15
100
AcDbArc
50
270
51
0
0
LINE
5
CD
100
AcDbEntity
8
box
6
ByLayer
62
256
370
-1
100
AcDbLine
10
0
20
590
11
0
21
15
0
LINE
5
CE
100
AcDbEntity
8
box
6
ByLayer
62
256
370
-1
100
AcDbLine
10
15
20
0
11
1065
21
0
0
ARC
5
CF
100
AcDbEntity
8
box
6
ByLayer
62
256
370
-1
100
AcDbCircle
10
15
20
15
40
15
100
AcDbArc
50
180
51
270
0
LINE
5
D0
100
AcDbEntity
8
box
6
ByLayer
62
256
370
-1
100
AcDbLine
10
12
20
12
11
1068
21
12
0
LINE
5
D1
100
AcDbEntity
8
box
6
ByLayer
62
256
370
-1
100
AcDbLine
10
1068
20
12
11
1068
21
593
0
LINE
5
D2
100
AcDbEntity
8
box
6
ByLayer
62
256
370
-1
100
AcDbLine
10
1068
20
593
11
12
21
593
0
LINE
5
D3
100
AcDbEntity
8
box
6
ByLayer
62
256
370
-1
100
AcDbLine
10
12
20
593
11
12
21
12
0
LINE
5
D4
100
AcDbEntity
8
box
6
ByLayer
62
256
370
-1
100
AcDbLine
10
-412
20
-6
11
-412
21
0
0
LINE
5
D5
100
AcDbEntity
8
box
6
ByLayer
62
256
370
-1
100
AcDbLine
10
-412
20
0
11
-312
21
0
0
LINE
5
D6
100
AcDbEntity
8
box
6
ByLayer
62
256
370
-1
100
AcDbLine
10
-312
20
0
11
-312
21
6
0
LINE
5
D7
100
AcDbEntity
8
box
6
ByLayer
62
256
370
-1
100
AcDbLine
10
-412
20
593
11
-400
21
593
0
LINE
5
D8
100
AcDbEntity
8
box
6
ByLayer
62
256
370
-1
100
AcDbLine
10
-412
20
0
11
-400
21
0
0
LINE
5
D9
100
AcDbEntity
8
box
6
ByLayer
62
256
370
-1
100
AcDbLine
10
-312
20
0
11
-312
21
594
0
LINE
5
DA
100
AcDbEntity
8
box
6
ByLayer
62
256
370
-1
100
AcDbLine
10
-312
20
594
11
-300
21
594
0
LINE
5
DB
100
AcDbEntity
8
box
6
ByLayer
62
256
370
-1
100
AcDbLine
10
-300
20
594
11
-300
21
0
0
LINE
5
DC
100
AcDbEntity
8
box
6
ByLayer
62
256
370
-1
100
AcDbLine
10
-300
20
0
11
-312
21
0
0
LWPOLYLINE
5
DD
100
AcDbEntity
8
box
6
ByLayer
62
256
370
-1
100
AcDbPolyline
90
8
70
1
43
0
10
-354
20
56
10
-360
20
56
42
-0.414213562373
10
-382
20
78
10
-382
20
234
42
-0.414213562373
10
-360
20
256
10
-354
20
256
42
-0.414213562373
10
-332
20
234
10
-332
20
78
42
-0.414213562373
0
LWPOLYLINE
5
DE
100
AcDbEntity
8
box
6
ByLayer
62
256
370
-1
100
AcDbPolyline
90
8
70
1
43
0
10
-354
20
552
10
-360
20
552
42
0.414213562373
10
-382
20
530
10
-382
20
374
42
0.414213562373
10
-360
20
352
10
-354
20
352
42
0.414213562373
10
-332
20
374
10
-332
20
530
42
0.414213562373
0
LWPOLYLINE
5
DF
100
AcDbEntity
8
box
6
ByLayer
62
256
370
-1
100
AcDbPolyline
90
12
70
1
43
0
10
-319.5
20
506
10
-319.5
20
511
10
-313
20
511
10
-313
20
536
10
-319.5
20
536
10
-319.5
20
541
10
-318.5
20
541
10
-318.5
20
537
10
-312
20
537
10
-312
20
510
10
-318.5
20
510
10
-318.5
20
506
0
LWPOLYLINE
5
E0
100
AcDbEntity
8
box
6
ByLayer
62
256
370
-1
100
AcDbPolyline
90
12
70
1
43
0
10
-319.5
20
278.5
10
-319.5
20
283.5
10
-313
20
283.5
10
-313
20
308.5
10
-319.5
20
308.5
10
-319.5
20
313.5
10
-318.5
20
313.5
10
-318.5
20
309.5
10
-312
20
309.5
10
-312
20
282.5
10
-318.5
20
282.5
10
-318.5
20
278.5
0
LWPOLYLINE
5
E1
100
AcDbEntity
8
box
6
ByLayer
62
256
370
-1
100
AcDbPolyline
90
12
70
1
43
0
10
-319.5
20
52
10
-319.5
20
57
10
-313
20
57
10
-313
20
82
10
-319.5
20
82
10
-319.5
20
87
10
-318.5
20
87
10
-318.5
20
83
10
-312
20
83
10
-312
20
56
10
-318.5
20
56
10
-318.5
20
52
0
LINE
5
E2
100
AcDbEntity
8
box
6
ByLayer
62
256
370
-1
100
AcDbLine
10
-483.559960383
20
-6
11
-485.095961169
21
6
0
LINE
5
E3
100
AcDbEntity
8
box
6
ByLayer
62
256
370
-1
100
AcDbLine
10
-412
20
-6
11
-483.559960383
21
-6
0
LINE
5
E4
100
AcDbEntity
8
box
6
ByLayer
62
256
370
-1
100
AcDbLine
10
-412
20
599
11
-412
21
593
0
LINE
5
E5
100
AcDbEntity
8
box
6
ByLayer
62
256
370
-1
100
AcDbLine
10
-412
20
593
11
-312
21
593
0
LINE
5
E6
100
AcDbEntity
8
box
6
ByLayer
62
256
370
-1
100
AcDbLine
10
-312
20
593
11
-312
21
587
0
LINE
5
E7
100
AcDbEntity
8
box
6
ByLayer
62
256
370
-1
100
AcDbLine
10
-552
20
587
11
-559.463999214
21
587
0
LINE
5
E8
100
AcDbEntity
8
box
6
ByLayer
62
256
370
-1
100
AcDbLine
10
-559.463999214
20
587
11
-485
21
6
0
LINE
5
E9
100
AcDbEntity
8
box
6
ByLayer
62
256
370
-1
100
AcDbLine
10
-412
20
-6
11
-412
21
0
0
LINE
5
EA
100
AcDbEntity
8
box
6
ByLayer
62
256
370
-1
100
AcDbLine
10
-412
20
0
11
-400
21
0
0
LINE
5
EB
100
AcDbEntity
8
box
6
ByLayer
62
256
370
-1
100
AcDbLine
10
-412
20
0
11
-412
21
593
0
LINE
5
EC
100
AcDbEntity
8
box
6
DASHED2
62
256
370
-1
100
AcDbLine
10
-485.096
20
6
11
-312
21
6
0
LINE
5
ED
100
AcDbEntity
8
box
6
DASHED2
62
256
370
-1
100
AcDbLine
10
-452
20
587
11
-552
21
587
0
LINE
5
EE
100
AcDbEntity
8
box
6
DASHED2
62
256
370
-1
100
AcDbLine
10
-312
20
587
11
-452
21
587
0
LINE
5
EF
100
AcDbEntity
8
box
6
ByLayer
62
216
420
8388736
370
-1
100
AcDbLine
10
-412
20
594
11
-412
21
674
0
LINE
5
F0
100
AcDbEntity
8
box
6
ByLayer
62
216
420
8388736
370
-1
100
AcDbLine
10
-400
20
593
11
-400
21
678
0
LINE
5
F1
100
AcDbEntity
8
box
6
ByLayer
62
216
420
8388736
370
-1
100
AcDbLine
10
-412
20
0
11
-412
21
-76
0
LINE
5
F2
100
AcDbEntity
8
box
6
ByLayer
62
216
420
8388736
370
-1
100
AcDbLine
10
-400
20
0
11
-400
21
-50
0
CIRCLE
5
F3
100
AcDbEntity
8
box
6
ByLayer
62
256
370
-1
100
AcDbCircle
10
-561.5
20
599
40
2.5
0
LINE
5
F4
100
AcDbEntity
8
box
6
ByLayer
62
256
370
-1
100
AcDbLine
10
-560.696958025
20
596.632485779
11
-559.463999214
21
587
0
LINE
5
F5
100
AcDbEntity
8
box
6
ByLayer
62
256
370
-1
100
AcDbLine
10
-559
20
599
11
-412
21
599
0
CIRCLE
5
F6
100
AcDbEntity
8
box
6
ByLayer
62
256
370
-1
100
AcDbCircle
10
-561.5
20
599
40
0.75
0
LINE
5
F7
100
AcDbEntity
8
box
6
ByLayer
62
256
370
-1
100
AcDbLine
10
-561.920527542
20
598.378987451
11
-561.920508722
21
598.378974706
0
LINE
5
F8
100
AcDbEntity
8
box
6
ByLayer
62
216
420
8388736
370
-1
100
AcDbLine
10
-503.247306592
20
-17.52990278
11
-581.076360807
21
590.50927221
0
ARC
5
F9
100
AcDbEntity
8
box
6
ByLayer
62
216
420
8388736
370
-1
100
AcDbCircle
10
-575.124917004
20
591.271057407
40
6.00000000179
100
AcDbArc
50
97.29420001
51
187.29420001
0
ARC
5
FA
100
AcDbEntity
8
box
6
ByLayer
62
216
420
8388736
370
-1
100
AcDbCircle
10
-489.360604391
20
-15.752403988
40
6.00000000136
100
AcDbArc
50
277.294200015
51
7.29420001535
0
LINE
5
FB
100
AcDbEntity
8
box
6
ByLayer
62
216
420
8388736
370
-1
100
AcDbLine
10
-488.598819193
20
-21.70384779
11
-496.534077594
21
-22.71956138
0
ARC
5
FC
100
AcDbEntity
8
box
6
ByLayer
62
216
420
8388736
370
-1
100
AcDbCircle
10
-497.295862793
20
-16.768117581
40
5.99999999851
100
AcDbArc
50
187.294200028
51
277.294200028
0
ARC
5
FD
100
AcDbEntity
8
box
6
ByLayer
62
216
420
8388736
370
-1
100
AcDbCircle
10
-497.295862793
20
-16.768117581
40
5.99999999851
100
AcDbArc
50
187.294200028
51
277.294200028
0
LINE
5
FE
100
AcDbEntity
8
box
6
ByLayer
62
216
420
8388736
370
-1
100
AcDbLine
10
-561.680838117
20
596.506549063
11
-483.409160589
21
-14.99061879
0
LINE
5
FF
100
AcDbEntity
8
box
6
ByLayer
62
216
420
8388736
370
-1
100
AcDbLine
10
-575.886702202
20
597.22250121
11
-563.987028602
21
598.745660209
0
LINE
5
100
100
AcDbEntity
8
box
6
ByLayer
62
216
420
8388736
370
-1
100
AcDbLine
10
12
20
546
11
1068
21
546
0
LINE
5
101
100
AcDbEntity
8
box
6
ByLayer
62
216
420
8388736
370
-1
100
AcDbLine
10
12
20
511
11
1068
21
511
0
LINE
5
102
100
AcDbEntity
8
box
6
ByLayer
62
256
370
-1
100
AcDbLine
10
100
20
800
11
238
21
800
0
LINE
5
103
100
AcDbEntity
8
box
6
ByLayer
62
256
370
-1
100
AcDbLine
10
238
20
800
11
238
21
847
0
LINE
5
104
100
AcDbEntity
8
box
6
ByLayer
62
256
370
-1
100
AcDbLine
10
238
20
847
11
100
21
847
0
LINE
5
105
100
AcDbEntity
8
box
6
ByLayer
62
256
370
-1
100
AcDbLine
10
100
20
847
11
100
21
800
0
LINE
5
106
100
AcDbEntity
8
box
6
ByLayer
62
256
370
-1
100
AcDbLine
10
238
20
847
11
288
21
847
0
LINE
5
107
100
AcDbEntity
8
box
6
ByLayer
62
256
370
-1
100
AcDbLine
10
288
20
847
11
288
21
812
0
LINE
5
108
100
AcDbEntity
8
box
6
ByLayer
62
256
370
-1
100
AcDbLine
10
288
20
812
11
238
21
812
0
LINE
5
109
100
AcDbEntity
8
box
6
ByLayer
62
256
370
-1
100
AcDbLine
10
238
20
812
11
238
21
847
0
ENDSEC
0
SECTION
2
OBJECTS
0
DICTIONARY
5
C
330
0
100
AcDbDictionary
281
1
3
ACAD_GROUP
350
D
0
DICTIONARY
5
D
330
C
100
AcDbDictionary
281
1
0
ENDSEC
0
EOF
