G04 #@! TF.GenerationSoftware,KiCad,Pcbnew,5.1.5-1.fc31*
G04 #@! TF.CreationDate,2020-01-08T13:59:17+01:00*
G04 #@! TF.ProjectId,troll-relay,74726f6c-6c2d-4726-956c-61792e6b6963,rev?*
G04 #@! TF.SameCoordinates,Original*
G04 #@! TF.FileFunction,Soldermask,Top*
G04 #@! TF.FilePolarity,Negative*
%FSLAX46Y46*%
G04 Gerber Fmt 4.6, Leading zero omitted, Abs format (unit mm)*
G04 Created by KiCad (PCBNEW 5.1.5-1.fc31) date 2020-01-08 13:59:17*
%MOMM*%
%LPD*%
G04 APERTURE LIST*
%ADD10C,0.100000*%
G04 APERTURE END LIST*
D10*
G36*
X163269544Y-133421083D02*
G01*
X163381616Y-133455080D01*
X163484894Y-133510283D01*
X163575422Y-133584578D01*
X163649717Y-133675106D01*
X163704920Y-133778384D01*
X163738917Y-133890456D01*
X163751000Y-134013140D01*
X163751000Y-135446860D01*
X163738917Y-135569544D01*
X163704920Y-135681616D01*
X163649717Y-135784894D01*
X163575422Y-135875422D01*
X163484894Y-135949717D01*
X163381616Y-136004920D01*
X163269544Y-136038917D01*
X163146860Y-136051000D01*
X160473140Y-136051000D01*
X160350456Y-136038917D01*
X160238384Y-136004920D01*
X160135106Y-135949717D01*
X160044578Y-135875422D01*
X159970283Y-135784894D01*
X159915080Y-135681616D01*
X159881083Y-135569544D01*
X159869000Y-135446860D01*
X159869000Y-134013140D01*
X159881083Y-133890456D01*
X159915080Y-133778384D01*
X159970283Y-133675106D01*
X160044578Y-133584578D01*
X160135106Y-133510283D01*
X160238384Y-133455080D01*
X160350456Y-133421083D01*
X160473140Y-133409000D01*
X163146860Y-133409000D01*
X163269544Y-133421083D01*
G37*
G36*
X155649544Y-129961083D02*
G01*
X155761616Y-129995080D01*
X155864894Y-130050283D01*
X155955422Y-130124578D01*
X156029717Y-130215106D01*
X156084920Y-130318384D01*
X156118917Y-130430456D01*
X156131000Y-130553140D01*
X156131000Y-131986860D01*
X156118917Y-132109544D01*
X156084920Y-132221616D01*
X156029717Y-132324894D01*
X155955422Y-132415422D01*
X155864894Y-132489717D01*
X155761616Y-132544920D01*
X155649544Y-132578917D01*
X155526860Y-132591000D01*
X152853140Y-132591000D01*
X152730456Y-132578917D01*
X152618384Y-132544920D01*
X152515106Y-132489717D01*
X152424578Y-132415422D01*
X152350283Y-132324894D01*
X152295080Y-132221616D01*
X152261083Y-132109544D01*
X152249000Y-131986860D01*
X152249000Y-130553140D01*
X152261083Y-130430456D01*
X152295080Y-130318384D01*
X152350283Y-130215106D01*
X152424578Y-130124578D01*
X152515106Y-130050283D01*
X152618384Y-129995080D01*
X152730456Y-129961083D01*
X152853140Y-129949000D01*
X155526860Y-129949000D01*
X155649544Y-129961083D01*
G37*
G36*
X138851000Y-128951000D02*
G01*
X137149000Y-128951000D01*
X137149000Y-127049000D01*
X138851000Y-127049000D01*
X138851000Y-128951000D01*
G37*
G36*
X130628228Y-127181703D02*
G01*
X130783100Y-127245853D01*
X130922481Y-127338985D01*
X131041015Y-127457519D01*
X131134147Y-127596900D01*
X131198297Y-127751772D01*
X131231000Y-127916184D01*
X131231000Y-128083816D01*
X131198297Y-128248228D01*
X131134147Y-128403100D01*
X131041015Y-128542481D01*
X130922481Y-128661015D01*
X130783100Y-128754147D01*
X130628228Y-128818297D01*
X130463816Y-128851000D01*
X130296184Y-128851000D01*
X130131772Y-128818297D01*
X129976900Y-128754147D01*
X129837519Y-128661015D01*
X129718985Y-128542481D01*
X129625853Y-128403100D01*
X129561703Y-128248228D01*
X129529000Y-128083816D01*
X129529000Y-127916184D01*
X129561703Y-127751772D01*
X129625853Y-127596900D01*
X129718985Y-127457519D01*
X129837519Y-127338985D01*
X129976900Y-127245853D01*
X130131772Y-127181703D01*
X130296184Y-127149000D01*
X130463816Y-127149000D01*
X130628228Y-127181703D01*
G37*
G36*
X163269544Y-121421083D02*
G01*
X163381616Y-121455080D01*
X163484894Y-121510283D01*
X163575422Y-121584578D01*
X163649717Y-121675106D01*
X163704920Y-121778384D01*
X163738917Y-121890456D01*
X163751000Y-122013140D01*
X163751000Y-123446860D01*
X163738917Y-123569544D01*
X163704920Y-123681616D01*
X163649717Y-123784894D01*
X163575422Y-123875422D01*
X163484894Y-123949717D01*
X163381616Y-124004920D01*
X163269544Y-124038917D01*
X163146860Y-124051000D01*
X160473140Y-124051000D01*
X160350456Y-124038917D01*
X160238384Y-124004920D01*
X160135106Y-123949717D01*
X160044578Y-123875422D01*
X159970283Y-123784894D01*
X159915080Y-123681616D01*
X159881083Y-123569544D01*
X159869000Y-123446860D01*
X159869000Y-122013140D01*
X159881083Y-121890456D01*
X159915080Y-121778384D01*
X159970283Y-121675106D01*
X160044578Y-121584578D01*
X160135106Y-121510283D01*
X160238384Y-121455080D01*
X160350456Y-121421083D01*
X160473140Y-121409000D01*
X163146860Y-121409000D01*
X163269544Y-121421083D01*
G37*
G36*
X138248228Y-119561703D02*
G01*
X138403100Y-119625853D01*
X138542481Y-119718985D01*
X138661015Y-119837519D01*
X138754147Y-119976900D01*
X138818297Y-120131772D01*
X138851000Y-120296184D01*
X138851000Y-120463816D01*
X138818297Y-120628228D01*
X138754147Y-120783100D01*
X138661015Y-120922481D01*
X138542481Y-121041015D01*
X138403100Y-121134147D01*
X138248228Y-121198297D01*
X138083816Y-121231000D01*
X137916184Y-121231000D01*
X137751772Y-121198297D01*
X137596900Y-121134147D01*
X137457519Y-121041015D01*
X137338985Y-120922481D01*
X137245853Y-120783100D01*
X137181703Y-120628228D01*
X137149000Y-120463816D01*
X137149000Y-120296184D01*
X137181703Y-120131772D01*
X137245853Y-119976900D01*
X137338985Y-119837519D01*
X137457519Y-119718985D01*
X137596900Y-119625853D01*
X137751772Y-119561703D01*
X137916184Y-119529000D01*
X138083816Y-119529000D01*
X138248228Y-119561703D01*
G37*
G36*
X130628228Y-119561703D02*
G01*
X130783100Y-119625853D01*
X130922481Y-119718985D01*
X131041015Y-119837519D01*
X131134147Y-119976900D01*
X131198297Y-120131772D01*
X131231000Y-120296184D01*
X131231000Y-120463816D01*
X131198297Y-120628228D01*
X131134147Y-120783100D01*
X131041015Y-120922481D01*
X130922481Y-121041015D01*
X130783100Y-121134147D01*
X130628228Y-121198297D01*
X130463816Y-121231000D01*
X130296184Y-121231000D01*
X130131772Y-121198297D01*
X129976900Y-121134147D01*
X129837519Y-121041015D01*
X129718985Y-120922481D01*
X129625853Y-120783100D01*
X129561703Y-120628228D01*
X129529000Y-120463816D01*
X129529000Y-120296184D01*
X129561703Y-120131772D01*
X129625853Y-119976900D01*
X129718985Y-119837519D01*
X129837519Y-119718985D01*
X129976900Y-119625853D01*
X130131772Y-119561703D01*
X130296184Y-119529000D01*
X130463816Y-119529000D01*
X130628228Y-119561703D01*
G37*
G36*
X155649544Y-117961083D02*
G01*
X155761616Y-117995080D01*
X155864894Y-118050283D01*
X155955422Y-118124578D01*
X156029717Y-118215106D01*
X156084920Y-118318384D01*
X156118917Y-118430456D01*
X156131000Y-118553140D01*
X156131000Y-119986860D01*
X156118917Y-120109544D01*
X156084920Y-120221616D01*
X156029717Y-120324894D01*
X155955422Y-120415422D01*
X155864894Y-120489717D01*
X155761616Y-120544920D01*
X155649544Y-120578917D01*
X155526860Y-120591000D01*
X152853140Y-120591000D01*
X152730456Y-120578917D01*
X152618384Y-120544920D01*
X152515106Y-120489717D01*
X152424578Y-120415422D01*
X152350283Y-120324894D01*
X152295080Y-120221616D01*
X152261083Y-120109544D01*
X152249000Y-119986860D01*
X152249000Y-118553140D01*
X152261083Y-118430456D01*
X152295080Y-118318384D01*
X152350283Y-118215106D01*
X152424578Y-118124578D01*
X152515106Y-118050283D01*
X152618384Y-117995080D01*
X152730456Y-117961083D01*
X152853140Y-117949000D01*
X155526860Y-117949000D01*
X155649544Y-117961083D01*
G37*
G36*
X130628228Y-114481703D02*
G01*
X130783100Y-114545853D01*
X130922481Y-114638985D01*
X131041015Y-114757519D01*
X131134147Y-114896900D01*
X131198297Y-115051772D01*
X131231000Y-115216184D01*
X131231000Y-115383816D01*
X131198297Y-115548228D01*
X131134147Y-115703100D01*
X131041015Y-115842481D01*
X130922481Y-115961015D01*
X130783100Y-116054147D01*
X130628228Y-116118297D01*
X130463816Y-116151000D01*
X130296184Y-116151000D01*
X130131772Y-116118297D01*
X129976900Y-116054147D01*
X129837519Y-115961015D01*
X129718985Y-115842481D01*
X129625853Y-115703100D01*
X129561703Y-115548228D01*
X129529000Y-115383816D01*
X129529000Y-115216184D01*
X129561703Y-115051772D01*
X129625853Y-114896900D01*
X129718985Y-114757519D01*
X129837519Y-114638985D01*
X129976900Y-114545853D01*
X130131772Y-114481703D01*
X130296184Y-114449000D01*
X130463816Y-114449000D01*
X130628228Y-114481703D01*
G37*
G36*
X138248228Y-114481703D02*
G01*
X138403100Y-114545853D01*
X138542481Y-114638985D01*
X138661015Y-114757519D01*
X138754147Y-114896900D01*
X138818297Y-115051772D01*
X138851000Y-115216184D01*
X138851000Y-115383816D01*
X138818297Y-115548228D01*
X138754147Y-115703100D01*
X138661015Y-115842481D01*
X138542481Y-115961015D01*
X138403100Y-116054147D01*
X138248228Y-116118297D01*
X138083816Y-116151000D01*
X137916184Y-116151000D01*
X137751772Y-116118297D01*
X137596900Y-116054147D01*
X137457519Y-115961015D01*
X137338985Y-115842481D01*
X137245853Y-115703100D01*
X137181703Y-115548228D01*
X137149000Y-115383816D01*
X137149000Y-115216184D01*
X137181703Y-115051772D01*
X137245853Y-114896900D01*
X137338985Y-114757519D01*
X137457519Y-114638985D01*
X137596900Y-114545853D01*
X137751772Y-114481703D01*
X137916184Y-114449000D01*
X138083816Y-114449000D01*
X138248228Y-114481703D01*
G37*
G36*
X163269544Y-109421083D02*
G01*
X163381616Y-109455080D01*
X163484894Y-109510283D01*
X163575422Y-109584578D01*
X163649717Y-109675106D01*
X163704920Y-109778384D01*
X163738917Y-109890456D01*
X163751000Y-110013140D01*
X163751000Y-111446860D01*
X163738917Y-111569544D01*
X163704920Y-111681616D01*
X163649717Y-111784894D01*
X163575422Y-111875422D01*
X163484894Y-111949717D01*
X163381616Y-112004920D01*
X163269544Y-112038917D01*
X163146860Y-112051000D01*
X160473140Y-112051000D01*
X160350456Y-112038917D01*
X160238384Y-112004920D01*
X160135106Y-111949717D01*
X160044578Y-111875422D01*
X159970283Y-111784894D01*
X159915080Y-111681616D01*
X159881083Y-111569544D01*
X159869000Y-111446860D01*
X159869000Y-110013140D01*
X159881083Y-109890456D01*
X159915080Y-109778384D01*
X159970283Y-109675106D01*
X160044578Y-109584578D01*
X160135106Y-109510283D01*
X160238384Y-109455080D01*
X160350456Y-109421083D01*
X160473140Y-109409000D01*
X163146860Y-109409000D01*
X163269544Y-109421083D01*
G37*
G36*
X130628228Y-109401703D02*
G01*
X130783100Y-109465853D01*
X130922481Y-109558985D01*
X131041015Y-109677519D01*
X131134147Y-109816900D01*
X131198297Y-109971772D01*
X131231000Y-110136184D01*
X131231000Y-110303816D01*
X131198297Y-110468228D01*
X131134147Y-110623100D01*
X131041015Y-110762481D01*
X130922481Y-110881015D01*
X130783100Y-110974147D01*
X130628228Y-111038297D01*
X130463816Y-111071000D01*
X130296184Y-111071000D01*
X130131772Y-111038297D01*
X129976900Y-110974147D01*
X129837519Y-110881015D01*
X129718985Y-110762481D01*
X129625853Y-110623100D01*
X129561703Y-110468228D01*
X129529000Y-110303816D01*
X129529000Y-110136184D01*
X129561703Y-109971772D01*
X129625853Y-109816900D01*
X129718985Y-109677519D01*
X129837519Y-109558985D01*
X129976900Y-109465853D01*
X130131772Y-109401703D01*
X130296184Y-109369000D01*
X130463816Y-109369000D01*
X130628228Y-109401703D01*
G37*
G36*
X138248228Y-109401703D02*
G01*
X138403100Y-109465853D01*
X138542481Y-109558985D01*
X138661015Y-109677519D01*
X138754147Y-109816900D01*
X138818297Y-109971772D01*
X138851000Y-110136184D01*
X138851000Y-110303816D01*
X138818297Y-110468228D01*
X138754147Y-110623100D01*
X138661015Y-110762481D01*
X138542481Y-110881015D01*
X138403100Y-110974147D01*
X138248228Y-111038297D01*
X138083816Y-111071000D01*
X137916184Y-111071000D01*
X137751772Y-111038297D01*
X137596900Y-110974147D01*
X137457519Y-110881015D01*
X137338985Y-110762481D01*
X137245853Y-110623100D01*
X137181703Y-110468228D01*
X137149000Y-110303816D01*
X137149000Y-110136184D01*
X137181703Y-109971772D01*
X137245853Y-109816900D01*
X137338985Y-109677519D01*
X137457519Y-109558985D01*
X137596900Y-109465853D01*
X137751772Y-109401703D01*
X137916184Y-109369000D01*
X138083816Y-109369000D01*
X138248228Y-109401703D01*
G37*
G36*
X155649544Y-105961083D02*
G01*
X155761616Y-105995080D01*
X155864894Y-106050283D01*
X155955422Y-106124578D01*
X156029717Y-106215106D01*
X156084920Y-106318384D01*
X156118917Y-106430456D01*
X156131000Y-106553140D01*
X156131000Y-107986860D01*
X156118917Y-108109544D01*
X156084920Y-108221616D01*
X156029717Y-108324894D01*
X155955422Y-108415422D01*
X155864894Y-108489717D01*
X155761616Y-108544920D01*
X155649544Y-108578917D01*
X155526860Y-108591000D01*
X152853140Y-108591000D01*
X152730456Y-108578917D01*
X152618384Y-108544920D01*
X152515106Y-108489717D01*
X152424578Y-108415422D01*
X152350283Y-108324894D01*
X152295080Y-108221616D01*
X152261083Y-108109544D01*
X152249000Y-107986860D01*
X152249000Y-106553140D01*
X152261083Y-106430456D01*
X152295080Y-106318384D01*
X152350283Y-106215106D01*
X152424578Y-106124578D01*
X152515106Y-106050283D01*
X152618384Y-105995080D01*
X152730456Y-105961083D01*
X152853140Y-105949000D01*
X155526860Y-105949000D01*
X155649544Y-105961083D01*
G37*
G36*
X134678210Y-98708489D02*
G01*
X134764950Y-98734802D01*
X134844889Y-98777530D01*
X134914962Y-98835038D01*
X134972470Y-98905111D01*
X135015198Y-98985050D01*
X135041511Y-99071790D01*
X135051000Y-99168140D01*
X135051000Y-100831860D01*
X135041511Y-100928210D01*
X135015198Y-101014950D01*
X134972470Y-101094889D01*
X134914962Y-101164962D01*
X134844889Y-101222470D01*
X134764950Y-101265198D01*
X134678210Y-101291511D01*
X134581860Y-101301000D01*
X133418140Y-101301000D01*
X133321790Y-101291511D01*
X133235050Y-101265198D01*
X133155111Y-101222470D01*
X133085038Y-101164962D01*
X133027530Y-101094889D01*
X132984802Y-101014950D01*
X132958489Y-100928210D01*
X132949000Y-100831860D01*
X132949000Y-99168140D01*
X132958489Y-99071790D01*
X132984802Y-98985050D01*
X133027530Y-98905111D01*
X133085038Y-98835038D01*
X133155111Y-98777530D01*
X133235050Y-98734802D01*
X133321790Y-98708489D01*
X133418140Y-98699000D01*
X134581860Y-98699000D01*
X134678210Y-98708489D01*
G37*
G36*
X159678210Y-98708489D02*
G01*
X159764950Y-98734802D01*
X159844889Y-98777530D01*
X159914962Y-98835038D01*
X159972470Y-98905111D01*
X160015198Y-98985050D01*
X160041511Y-99071790D01*
X160051000Y-99168140D01*
X160051000Y-100831860D01*
X160041511Y-100928210D01*
X160015198Y-101014950D01*
X159972470Y-101094889D01*
X159914962Y-101164962D01*
X159844889Y-101222470D01*
X159764950Y-101265198D01*
X159678210Y-101291511D01*
X159581860Y-101301000D01*
X158418140Y-101301000D01*
X158321790Y-101291511D01*
X158235050Y-101265198D01*
X158155111Y-101222470D01*
X158085038Y-101164962D01*
X158027530Y-101094889D01*
X157984802Y-101014950D01*
X157958489Y-100928210D01*
X157949000Y-100831860D01*
X157949000Y-99168140D01*
X157958489Y-99071790D01*
X157984802Y-98985050D01*
X158027530Y-98905111D01*
X158085038Y-98835038D01*
X158155111Y-98777530D01*
X158235050Y-98734802D01*
X158321790Y-98708489D01*
X158418140Y-98699000D01*
X159581860Y-98699000D01*
X159678210Y-98708489D01*
G37*
G36*
X156178210Y-98708489D02*
G01*
X156264950Y-98734802D01*
X156344889Y-98777530D01*
X156414962Y-98835038D01*
X156472470Y-98905111D01*
X156515198Y-98985050D01*
X156541511Y-99071790D01*
X156551000Y-99168140D01*
X156551000Y-100831860D01*
X156541511Y-100928210D01*
X156515198Y-101014950D01*
X156472470Y-101094889D01*
X156414962Y-101164962D01*
X156344889Y-101222470D01*
X156264950Y-101265198D01*
X156178210Y-101291511D01*
X156081860Y-101301000D01*
X154918140Y-101301000D01*
X154821790Y-101291511D01*
X154735050Y-101265198D01*
X154655111Y-101222470D01*
X154585038Y-101164962D01*
X154527530Y-101094889D01*
X154484802Y-101014950D01*
X154458489Y-100928210D01*
X154449000Y-100831860D01*
X154449000Y-99168140D01*
X154458489Y-99071790D01*
X154484802Y-98985050D01*
X154527530Y-98905111D01*
X154585038Y-98835038D01*
X154655111Y-98777530D01*
X154735050Y-98734802D01*
X154821790Y-98708489D01*
X154918140Y-98699000D01*
X156081860Y-98699000D01*
X156178210Y-98708489D01*
G37*
G36*
X147678210Y-98708489D02*
G01*
X147764950Y-98734802D01*
X147844889Y-98777530D01*
X147914962Y-98835038D01*
X147972470Y-98905111D01*
X148015198Y-98985050D01*
X148041511Y-99071790D01*
X148051000Y-99168140D01*
X148051000Y-100831860D01*
X148041511Y-100928210D01*
X148015198Y-101014950D01*
X147972470Y-101094889D01*
X147914962Y-101164962D01*
X147844889Y-101222470D01*
X147764950Y-101265198D01*
X147678210Y-101291511D01*
X147581860Y-101301000D01*
X146418140Y-101301000D01*
X146321790Y-101291511D01*
X146235050Y-101265198D01*
X146155111Y-101222470D01*
X146085038Y-101164962D01*
X146027530Y-101094889D01*
X145984802Y-101014950D01*
X145958489Y-100928210D01*
X145949000Y-100831860D01*
X145949000Y-99168140D01*
X145958489Y-99071790D01*
X145984802Y-98985050D01*
X146027530Y-98905111D01*
X146085038Y-98835038D01*
X146155111Y-98777530D01*
X146235050Y-98734802D01*
X146321790Y-98708489D01*
X146418140Y-98699000D01*
X147581860Y-98699000D01*
X147678210Y-98708489D01*
G37*
G36*
X144178210Y-98708489D02*
G01*
X144264950Y-98734802D01*
X144344889Y-98777530D01*
X144414962Y-98835038D01*
X144472470Y-98905111D01*
X144515198Y-98985050D01*
X144541511Y-99071790D01*
X144551000Y-99168140D01*
X144551000Y-100831860D01*
X144541511Y-100928210D01*
X144515198Y-101014950D01*
X144472470Y-101094889D01*
X144414962Y-101164962D01*
X144344889Y-101222470D01*
X144264950Y-101265198D01*
X144178210Y-101291511D01*
X144081860Y-101301000D01*
X142918140Y-101301000D01*
X142821790Y-101291511D01*
X142735050Y-101265198D01*
X142655111Y-101222470D01*
X142585038Y-101164962D01*
X142527530Y-101094889D01*
X142484802Y-101014950D01*
X142458489Y-100928210D01*
X142449000Y-100831860D01*
X142449000Y-99168140D01*
X142458489Y-99071790D01*
X142484802Y-98985050D01*
X142527530Y-98905111D01*
X142585038Y-98835038D01*
X142655111Y-98777530D01*
X142735050Y-98734802D01*
X142821790Y-98708489D01*
X142918140Y-98699000D01*
X144081860Y-98699000D01*
X144178210Y-98708489D01*
G37*
G36*
X140678210Y-98708489D02*
G01*
X140764950Y-98734802D01*
X140844889Y-98777530D01*
X140914962Y-98835038D01*
X140972470Y-98905111D01*
X141015198Y-98985050D01*
X141041511Y-99071790D01*
X141051000Y-99168140D01*
X141051000Y-100831860D01*
X141041511Y-100928210D01*
X141015198Y-101014950D01*
X140972470Y-101094889D01*
X140914962Y-101164962D01*
X140844889Y-101222470D01*
X140764950Y-101265198D01*
X140678210Y-101291511D01*
X140581860Y-101301000D01*
X139418140Y-101301000D01*
X139321790Y-101291511D01*
X139235050Y-101265198D01*
X139155111Y-101222470D01*
X139085038Y-101164962D01*
X139027530Y-101094889D01*
X138984802Y-101014950D01*
X138958489Y-100928210D01*
X138949000Y-100831860D01*
X138949000Y-99168140D01*
X138958489Y-99071790D01*
X138984802Y-98985050D01*
X139027530Y-98905111D01*
X139085038Y-98835038D01*
X139155111Y-98777530D01*
X139235050Y-98734802D01*
X139321790Y-98708489D01*
X139418140Y-98699000D01*
X140581860Y-98699000D01*
X140678210Y-98708489D01*
G37*
G36*
X131178210Y-98708489D02*
G01*
X131264950Y-98734802D01*
X131344889Y-98777530D01*
X131414962Y-98835038D01*
X131472470Y-98905111D01*
X131515198Y-98985050D01*
X131541511Y-99071790D01*
X131551000Y-99168140D01*
X131551000Y-100831860D01*
X131541511Y-100928210D01*
X131515198Y-101014950D01*
X131472470Y-101094889D01*
X131414962Y-101164962D01*
X131344889Y-101222470D01*
X131264950Y-101265198D01*
X131178210Y-101291511D01*
X131081860Y-101301000D01*
X129918140Y-101301000D01*
X129821790Y-101291511D01*
X129735050Y-101265198D01*
X129655111Y-101222470D01*
X129585038Y-101164962D01*
X129527530Y-101094889D01*
X129484802Y-101014950D01*
X129458489Y-100928210D01*
X129449000Y-100831860D01*
X129449000Y-99168140D01*
X129458489Y-99071790D01*
X129484802Y-98985050D01*
X129527530Y-98905111D01*
X129585038Y-98835038D01*
X129655111Y-98777530D01*
X129735050Y-98734802D01*
X129821790Y-98708489D01*
X129918140Y-98699000D01*
X131081860Y-98699000D01*
X131178210Y-98708489D01*
G37*
G36*
X127678210Y-98708489D02*
G01*
X127764950Y-98734802D01*
X127844889Y-98777530D01*
X127914962Y-98835038D01*
X127972470Y-98905111D01*
X128015198Y-98985050D01*
X128041511Y-99071790D01*
X128051000Y-99168140D01*
X128051000Y-100831860D01*
X128041511Y-100928210D01*
X128015198Y-101014950D01*
X127972470Y-101094889D01*
X127914962Y-101164962D01*
X127844889Y-101222470D01*
X127764950Y-101265198D01*
X127678210Y-101291511D01*
X127581860Y-101301000D01*
X126418140Y-101301000D01*
X126321790Y-101291511D01*
X126235050Y-101265198D01*
X126155111Y-101222470D01*
X126085038Y-101164962D01*
X126027530Y-101094889D01*
X125984802Y-101014950D01*
X125958489Y-100928210D01*
X125949000Y-100831860D01*
X125949000Y-99168140D01*
X125958489Y-99071790D01*
X125984802Y-98985050D01*
X126027530Y-98905111D01*
X126085038Y-98835038D01*
X126155111Y-98777530D01*
X126235050Y-98734802D01*
X126321790Y-98708489D01*
X126418140Y-98699000D01*
X127581860Y-98699000D01*
X127678210Y-98708489D01*
G37*
M02*
