M48
; DRILL file {KiCad 5.1.5-1.fc31} date Wed 08 Jan 2020 13:59:22 CET
; FORMAT={-:-/ absolute / metric / decimal}
; #@! TF.CreationDate,2020-01-08T13:59:22+01:00
; #@! TF.GenerationSoftware,Kicad,Pcbnew,5.1.5-1.fc31
FMAT,2
METRIC
T1C0.800
T2C1.100
T3C1.270
T4C3.000
T5C3.780
%
G90
G05
T1
X130.38Y-110.22
X130.38Y-115.3
X130.38Y-120.38
X130.38Y-128.0
X138.0Y-110.22
X138.0Y-115.3
X138.0Y-120.38
X138.0Y-128.0
T2
X140.0Y-100.0
X143.5Y-100.0
X147.0Y-100.0
X155.5Y-100.0
X159.0Y-100.0
X127.0Y-100.0
X130.5Y-100.0
X134.0Y-100.0
T3
X154.19Y-131.27
X161.81Y-134.73
X154.19Y-119.27
X161.81Y-122.73
X154.19Y-107.27
X161.81Y-110.73
T4
X121.0Y-100.0
X143.0Y-133.0
X165.0Y-100.0
T5
X158.0Y-133.0
X158.0Y-121.0
X158.0Y-109.0
T0
M30
