<?xml version="1.0" encoding="UTF-8" standalone="no"?>
<!-- Created with Inkscape (http://www.inkscape.org/) -->

<svg
   xmlns:dc="http://purl.org/dc/elements/1.1/"
   xmlns:cc="http://creativecommons.org/ns#"
   xmlns:rdf="http://www.w3.org/1999/02/22-rdf-syntax-ns#"
   xmlns:svg="http://www.w3.org/2000/svg"
   xmlns="http://www.w3.org/2000/svg"
   xmlns:sodipodi="http://sodipodi.sourceforge.net/DTD/sodipodi-0.dtd"
   xmlns:inkscape="http://www.inkscape.org/namespaces/inkscape"
   version="1.1"
   id="svg834"
   xml:space="preserve"
   width="247.64999mm"
   height="222.95557mm"
   viewBox="0 0 936 842.66669"
   sodipodi:docname="trollpanel.svg"
   inkscape:version="0.92.3 (2405546, 2018-03-11)"><metadata
     id="metadata840"><rdf:RDF><cc:Work
         rdf:about=""><dc:format>image/svg+xml</dc:format><dc:type
           rdf:resource="http://purl.org/dc/dcmitype/StillImage" /><dc:title></dc:title></cc:Work></rdf:RDF></metadata><defs
     id="defs838" /><sodipodi:namedview
     pagecolor="#ffffff"
     bordercolor="#666666"
     borderopacity="1"
     objecttolerance="10"
     gridtolerance="10"
     guidetolerance="10"
     inkscape:pageopacity="0"
     inkscape:pageshadow="2"
     inkscape:window-width="1920"
     inkscape:window-height="1016"
     id="namedview836"
     showgrid="false"
     inkscape:document-units="mm"
     units="mm"
     inkscape:showpageshadow="false"
     showborder="false"
     inkscape:zoom="1"
     inkscape:cx="283.04774"
     inkscape:cy="370.26249"
     inkscape:window-x="0"
     inkscape:window-y="27"
     inkscape:window-maximized="1"
     inkscape:current-layer="g842" /><g
     id="g842"
     inkscape:groupmode="layer"
     inkscape:label="ink_ext_XXXXXX"
     transform="matrix(1.3333333,0,0,-1.3333333,0,842.66667)"><rect
       style="opacity:0.97000002;fill:#ffffff;fill-opacity:1;stroke:none;stroke-width:0.28346458;stroke-linecap:butt;stroke-linejoin:round;stroke-miterlimit:4;stroke-dasharray:none;stroke-dashoffset:3.0999999;stroke-opacity:1"
       id="rect6653"
       width="640.5"
       height="600"
       x="-13.5"
       y="-584.25"
       transform="scale(1,-1)" /><path
       inkscape:connector-curvature="0"
       id="path848"
       style="fill:none;stroke:#000000;stroke-width:0.28346458;stroke-linecap:round;stroke-linejoin:miter;stroke-miterlimit:4;stroke-dasharray:none;stroke-opacity:1"
       d="m 134.01949,552.59918 c -8.1566,0 -14.80162,-6.96295 -14.80162,-15.5114 V 334.18513 c 0,-8.54845 6.64502,-15.50782 14.80162,-15.50782 H 268.5049 c 8.16002,0 14.80162,6.95937 14.80162,15.50782 v 202.90265 c 0,8.54845 -6.6416,15.5114 -14.80162,15.5114 z m 0,-2.83457 H 268.5049 c 6.69882,0 12.09955,-5.6584 12.09955,-12.67683 V 334.18513 c 0,-7.01843 -5.40073,-12.67683 -12.09955,-12.67683 H 134.01949 c -6.6954,0 -12.09955,5.6584 -12.09955,12.67683 v 202.90265 c 0,7.01843 5.40415,12.67683 12.09955,12.67683 z" /><path
       inkscape:connector-curvature="0"
       id="path874"
       style="fill:none;stroke:#000000;stroke-width:0.28346458;stroke-linecap:round;stroke-linejoin:miter;stroke-miterlimit:4;stroke-dasharray:none;stroke-opacity:1"
       d="m 64.728352,366.30063 c 0,3.8272 -3.100249,6.92914 -6.927264,6.92914 -3.830828,0 -6.931004,-3.10194 -6.931004,-6.92914 0,-3.82719 3.100176,-6.92913 6.931004,-6.92913 3.827015,0 6.927264,3.10194 6.927264,6.92913 z" /><path
       inkscape:connector-curvature="0"
       id="path900"
       style="fill:none;stroke:#000000;stroke-width:0.28346458;stroke-linecap:round;stroke-linejoin:miter;stroke-miterlimit:4;stroke-dasharray:none;stroke-opacity:1"
       d="m 208.01721,366.33863 c 0,1.83761 -0.72746,3.59756 -2.02543,4.89736 -1.30311,1.29908 -3.06454,2.03178 -4.9037,2.03178 -1.83917,0 -3.60353,-0.7327 -4.90151,-2.03178 -1.30017,-1.2998 -2.03056,-3.05975 -2.02762,-4.89736 -0.003,-1.8376 0.72745,-3.60048 2.02762,-4.89955 1.29798,-1.29981 3.06234,-2.02958 4.90151,-2.02958 1.83916,0 3.60059,0.72977 4.9037,2.02958 1.29797,1.29907 2.02543,3.06195 2.02543,4.89955 z" /><path
       inkscape:connector-curvature="0"
       id="path894"
       style="fill:none;stroke:#000000;stroke-width:0.28346458;stroke-linecap:butt;stroke-linejoin:miter;stroke-miterlimit:4;stroke-dasharray:none;stroke-opacity:1"
       d="m 47.914668,337.56182 c 0.4371,0 0.75,0.082 0.9371,0.246 0.1918,0.157 0.2929,0.43 0.2929,0.801 0,0.371 -0.1011,0.633 -0.2929,0.793 -0.1871,0.16 -0.5,0.238 -0.9371,0.238 h -0.8789 v -2.078 z m -0.8789,-1.441 v -3.067 h -2.0903 v 8.102 h 3.1961 c 1.0621,0 1.843,-0.18 2.3391,-0.539 0.5,-0.359 0.7461,-0.922 0.7461,-1.699 0,-0.535 -0.125,-0.973 -0.3903,-1.317 -0.2539,-0.343 -0.6449,-0.597 -1.1597,-0.761 0.2808,-0.063 0.5347,-0.211 0.7609,-0.442 0.227,-0.23 0.457,-0.578 0.6879,-1.043 l 1.1371,-2.301 h -2.2269 l -0.984,2.012 c -0.2,0.406 -0.4071,0.684 -0.6102,0.832 -0.2027,0.149 -0.4719,0.223 -0.816,0.223 z" /><path
       inkscape:connector-curvature="0"
       id="path896"
       style="fill:none;stroke:#000000;stroke-width:0.28346458;stroke-linecap:butt;stroke-linejoin:miter;stroke-miterlimit:4;stroke-dasharray:none;stroke-opacity:1"
       d="m 53.496668,341.15582 h 3.4648 c 1.0313,0 1.8243,-0.234 2.3711,-0.691 0.559,-0.454 0.8321,-1.106 0.8321,-1.954 0,-0.847 -0.2731,-1.503 -0.8321,-1.964 -0.5468,-0.457 -1.3398,-0.684 -2.3711,-0.684 h -1.375 v -2.809 h -2.0898 z m 2.0898,-1.516 v -2.261 h 1.1563 c 0.4019,0 0.7148,0.097 0.9418,0.293 0.2141,0.199 0.332,0.48 0.332,0.839 0,0.364 -0.1179,0.641 -0.332,0.836 -0.227,0.196 -0.5399,0.293 -0.9418,0.293 z" /><path
       inkscape:connector-curvature="0"
       id="path898"
       style="fill:none;stroke:#000000;stroke-width:0.28346458;stroke-linecap:butt;stroke-linejoin:miter;stroke-miterlimit:4;stroke-dasharray:none;stroke-opacity:1"
       d="m 61.637668,341.15582 h 2.6559 l 1.848,-4.336 1.8512,4.336 h 2.6519 v -8.102 h -1.9679 v 5.926 l -1.868,-4.367 h -1.3281 l -1.8668,4.367 v -5.926 h -1.9762 z" /><path
       inkscape:connector-curvature="0"
       id="path902"
       style="fill:none;stroke:#000000;stroke-width:0.28346458;stroke-linecap:round;stroke-linejoin:miter;stroke-miterlimit:4;stroke-dasharray:none;stroke-opacity:1"
       d="m 154.15859,366.3021 c 0,1.83584 -0.73039,3.59983 -2.02543,4.90047 -1.30311,1.29696 -3.06453,2.0272 -4.9037,2.0272 -1.83916,0 -3.6006,-0.73024 -4.9015,-2.0272 -1.29724,-1.30064 -2.02763,-3.06463 -2.02763,-4.90047 0,-1.83878 0.73039,-3.59984 2.02763,-4.90267 1.3009,-1.2977 3.06234,-2.02793 4.9015,-2.02793 1.83917,0 3.6006,0.73023 4.9037,2.02793 1.29504,1.30283 2.02543,3.06389 2.02543,4.90267 z" /><path
       inkscape:connector-curvature="0"
       id="path906"
       style="fill:none;stroke:#000000;stroke-width:0.28346458;stroke-linecap:butt;stroke-linejoin:miter;stroke-miterlimit:4;stroke-dasharray:none;stroke-opacity:1"
       d="m 139.38146,341.15582 h 2.09 v -4.855 c 0,-0.672 0.109,-1.149 0.324,-1.438 0.219,-0.285 0.578,-0.43 1.078,-0.43 0.5,0 0.852,0.145 1.071,0.43 0.222,0.289 0.332,0.766 0.332,1.438 v 4.855 h 2.086 v -4.855 c 0,-1.149 -0.282,-2 -0.86,-2.563 -0.578,-0.558 -1.453,-0.84 -2.629,-0.84 -1.179,0 -2.054,0.282 -2.625,0.84 -0.578,0.563 -0.867,1.414 -0.867,2.563 z" /><path
       inkscape:connector-curvature="0"
       id="path908"
       style="fill:none;stroke:#000000;stroke-width:0.28346458;stroke-linecap:butt;stroke-linejoin:miter;stroke-miterlimit:4;stroke-dasharray:none;stroke-opacity:1"
       d="m 148.41346,341.15582 h 3.464 c 1.028,0 1.821,-0.23 2.371,-0.691 0.551,-0.453 0.832,-1.106 0.832,-1.953 0,-0.848 -0.281,-1.504 -0.832,-1.961 -0.55,-0.457 -1.343,-0.684 -2.371,-0.684 h -1.379 v -2.812 h -2.085 z m 2.085,-1.519 v -2.258 h 1.157 c 0.402,0 0.718,0.097 0.937,0.293 0.219,0.199 0.332,0.48 0.332,0.84 0,0.363 -0.113,0.64 -0.332,0.832 -0.219,0.199 -0.535,0.293 -0.937,0.293 z" /><path
       inkscape:connector-curvature="0"
       id="path910"
       style="fill:none;stroke:#000000;stroke-width:0.28346458;stroke-linecap:butt;stroke-linejoin:miter;stroke-miterlimit:4;stroke-dasharray:none;stroke-opacity:1"
       d="m 184.08331,339.53982 v -4.942 h 0.75 c 0.855,0 1.504,0.211 1.953,0.633 0.449,0.422 0.676,1.039 0.676,1.844 0,0.805 -0.223,1.414 -0.672,1.836 -0.449,0.418 -1.102,0.629 -1.957,0.629 z m -2.09,1.578 h 2.203 c 1.231,0 2.145,-0.09 2.746,-0.266 0.606,-0.172 1.121,-0.472 1.551,-0.89 0.379,-0.364 0.664,-0.789 0.848,-1.262 0.183,-0.481 0.277,-1.02 0.277,-1.625 0,-0.609 -0.094,-1.156 -0.277,-1.637 -0.184,-0.476 -0.469,-0.898 -0.848,-1.265 -0.43,-0.418 -0.953,-0.719 -1.558,-0.895 -0.61,-0.172 -1.524,-0.262 -2.739,-0.262 h -2.203 z" /><path
       inkscape:connector-curvature="0"
       id="path912"
       style="fill:none;stroke:#000000;stroke-width:0.28346458;stroke-linecap:butt;stroke-linejoin:miter;stroke-miterlimit:4;stroke-dasharray:none;stroke-opacity:1"
       d="m 194.91931,339.75082 c -0.637,0 -1.133,-0.235 -1.481,-0.707 -0.351,-0.469 -0.527,-1.129 -0.527,-1.985 0,-0.847 0.176,-1.511 0.527,-1.98 0.348,-0.469 0.844,-0.703 1.481,-0.703 0.644,0 1.133,0.234 1.484,0.703 0.352,0.469 0.532,1.133 0.532,1.98 0,0.856 -0.18,1.516 -0.532,1.985 -0.351,0.472 -0.84,0.707 -1.484,0.707 z m 0,1.515 c 1.301,0 2.32,-0.375 3.062,-1.121 0.735,-0.742 1.102,-1.773 1.102,-3.086 0,-1.308 -0.367,-2.336 -1.102,-3.082 -0.742,-0.742 -1.761,-1.117 -3.062,-1.117 -1.301,0 -2.316,0.375 -3.063,1.117 -0.738,0.746 -1.105,1.774 -1.105,3.082 0,1.313 0.367,2.344 1.105,3.086 0.747,0.746 1.762,1.121 3.063,1.121 z" /><path
       inkscape:connector-curvature="0"
       id="path914"
       style="fill:none;stroke:#000000;stroke-width:0.28346458;stroke-linecap:butt;stroke-linejoin:miter;stroke-miterlimit:4;stroke-dasharray:none;stroke-opacity:1"
       d="m 199.97031,341.11782 h 2 l 1.402,-5.887 1.387,5.887 h 2.015 l 1.387,-5.887 1.402,5.887 h 1.985 l -1.91,-8.102 h -2.407 l -1.472,6.157 -1.457,-6.157 h -2.403 z" /><path
       inkscape:connector-curvature="0"
       id="path916"
       style="fill:none;stroke:#000000;stroke-width:0.28346458;stroke-linecap:butt;stroke-linejoin:miter;stroke-miterlimit:4;stroke-dasharray:none;stroke-opacity:1"
       d="m 212.91931,341.11782 h 2.332 l 2.945,-5.555 v 5.555 h 1.981 v -8.102 h -2.332 l -2.946,5.559 v -5.559 h -1.98 z" /><path
       inkscape:connector-curvature="0"
       id="path904"
       style="fill:none;stroke:#000000;stroke-width:0.28346458;stroke-linecap:round;stroke-linejoin:miter;stroke-miterlimit:4;stroke-dasharray:none;stroke-opacity:1"
       d="m 261.87513,366.26264 c 0,1.838 -0.73054,3.59831 -2.02879,4.89839 -1.30044,1.29935 -3.06518,2.02928 -4.90179,2.02928 -1.83955,0 -3.60429,-0.72993 -4.90254,-2.02928 -1.30044,-1.30008 -2.03098,-3.06039 -2.02511,-4.89839 -0.006,-1.838 0.72467,-3.60125 2.02511,-4.9006 1.29825,-1.30008 3.06299,-2.03 4.90254,-2.03 1.83661,0 3.60135,0.72992 4.90179,2.03 1.29825,1.29935 2.02879,3.0626 2.02879,4.9006 z" /><path
       inkscape:connector-curvature="0"
       id="path918"
       style="fill:none;stroke:#000000;stroke-width:0.28346458;stroke-linecap:butt;stroke-linejoin:miter;stroke-miterlimit:4;stroke-dasharray:none;stroke-opacity:1"
       d="m 241.46702,334.41336 h -3.265 l -0.516,-1.477 h -2.098 l 3,8.102 h 2.489 l 3,-8.102 h -2.098 z m -2.746,1.504 h 2.219 l -1.102,3.223 z" /><path
       inkscape:connector-curvature="0"
       id="path920"
       style="fill:none;stroke:#000000;stroke-width:0.28346458;stroke-linecap:butt;stroke-linejoin:miter;stroke-miterlimit:4;stroke-dasharray:none;stroke-opacity:1"
       d="m 245.14702,341.03836 h 2.09 v -6.523 h 3.664 v -1.579 h -5.754 z" /><path
       inkscape:connector-curvature="0"
       id="path922"
       style="fill:none;stroke:#000000;stroke-width:0.28346458;stroke-linecap:butt;stroke-linejoin:miter;stroke-miterlimit:4;stroke-dasharray:none;stroke-opacity:1"
       d="m 252.22102,341.03836 h 5.637 v -1.582 h -3.547 v -1.508 h 3.336 v -1.578 h -3.336 v -1.855 h 3.668 v -1.579 h -5.758 z" /><path
       inkscape:connector-curvature="0"
       id="path924"
       style="fill:none;stroke:#000000;stroke-width:0.28346458;stroke-linecap:butt;stroke-linejoin:miter;stroke-miterlimit:4;stroke-dasharray:none;stroke-opacity:1"
       d="m 262.78402,337.44436 c 0.437,0 0.75,0.082 0.937,0.246 0.196,0.157 0.289,0.43 0.289,0.801 0,0.371 -0.093,0.633 -0.289,0.793 -0.187,0.16 -0.5,0.238 -0.937,0.238 h -0.879 v -2.078 z m -0.879,-1.441 v -3.067 h -2.09 v 8.102 h 3.191 c 1.067,0 1.848,-0.18 2.344,-0.539 0.5,-0.359 0.75,-0.922 0.75,-1.699 0,-0.535 -0.133,-0.973 -0.387,-1.317 -0.261,-0.343 -0.652,-0.597 -1.168,-0.761 0.282,-0.063 0.54,-0.211 0.762,-0.442 0.227,-0.23 0.457,-0.578 0.692,-1.043 l 1.132,-2.301 h -2.226 l -0.985,2.012 c -0.203,0.406 -0.402,0.684 -0.609,0.832 -0.203,0.149 -0.473,0.223 -0.812,0.223 z" /><path
       inkscape:connector-curvature="0"
       id="path926"
       style="fill:none;stroke:#000000;stroke-width:0.28346458;stroke-linecap:butt;stroke-linejoin:miter;stroke-miterlimit:4;stroke-dasharray:none;stroke-opacity:1"
       d="m 266.90102,341.03836 h 7.465 v -1.582 h -2.684 v -6.52 h -2.09 v 6.52 h -2.691 z" /><path
       inkscape:connector-curvature="0"
       id="path856"
       style="fill:none;stroke:#000000;stroke-width:0.28346458;stroke-linecap:round;stroke-linejoin:miter;stroke-miterlimit:4;stroke-dasharray:none;stroke-opacity:1"
       d="m 128.10997,193.74631 c 0,2.26177 -1.83739,4.09633 -4.09752,4.09633 -2.25754,0 -4.09146,-1.83456 -4.09146,-4.09633 0,-5.45686 8.18898,-5.45686 8.18898,0 z" /><path
       inkscape:connector-curvature="0"
       id="path858"
       style="fill:none;stroke:#000000;stroke-width:0.28346458;stroke-linecap:round;stroke-linejoin:miter;stroke-miterlimit:4;stroke-dasharray:none;stroke-opacity:1"
       d="m 177.71626,193.74771 c 0,2.261 -1.83123,4.09493 -4.09319,4.09493 -2.26455,0 -4.09925,-1.83393 -4.09578,-4.09493 -0.003,-2.26013 1.83123,-4.09405 4.09578,-4.09405 2.26196,0 4.09319,1.83392 4.09319,4.09405 z" /><path
       inkscape:connector-curvature="0"
       id="path860"
       style="fill:none;stroke:#000000;stroke-width:0.28346458;stroke-linecap:round;stroke-linejoin:miter;stroke-miterlimit:4;stroke-dasharray:none;stroke-opacity:1"
       d="m 177.71626,103.88859 c 0,2.26264 -1.83123,4.09579 -4.09319,4.09579 -2.26455,0 -4.09925,-1.83315 -4.09578,-4.09579 -0.003,-2.26004 1.83123,-4.093194 4.09578,-4.093194 2.26196,0 4.09319,1.833154 4.09319,4.093194 z" /><path
       inkscape:connector-curvature="0"
       id="path862"
       style="fill:none;stroke:#000000;stroke-width:0.28346458;stroke-linecap:round;stroke-linejoin:miter;stroke-miterlimit:4;stroke-dasharray:none;stroke-opacity:1"
       d="m 128.10997,103.88848 c 0,2.26115 -1.83739,4.0959 -4.09752,4.0959 -2.25754,0 -4.09146,-1.83475 -4.09146,-4.0959 0,-5.457444 8.18898,-5.457444 8.18898,0 z" /><path
       inkscape:connector-curvature="0"
       id="path886"
       style="fill:none;stroke:#000000;stroke-width:0.28346458;stroke-linecap:round;stroke-linejoin:miter;stroke-miterlimit:4;stroke-dasharray:none;stroke-opacity:1"
       d="m 158.58239,188.19052 c -0.004,6.082 -4.36927,11.015 -9.76332,11.015 -5.3905,0 -9.76066,-4.933 -9.7642,-11.015" /><path
       inkscape:connector-curvature="0"
       id="path888"
       style="fill:none;stroke:#000000;stroke-width:0.28346458;stroke-linecap:round;stroke-linejoin:miter;stroke-miterlimit:4;stroke-dasharray:none;stroke-opacity:1"
       d="m 139.05487,109.45152 c 0,-6.09 4.3737,-11.019004 9.7642,-11.019004 5.39405,0 9.75978,4.929004 9.76332,11.019004" /><path
       inkscape:connector-curvature="0"
       id="path890"
       style="fill:none;stroke:#000000;stroke-width:0.28346458;stroke-linecap:round;stroke-linejoin:miter;stroke-miterlimit:4;stroke-dasharray:none;stroke-opacity:1"
       d="m 139.05487,188.19052 v -78.739" /><path
       inkscape:connector-curvature="0"
       id="path892"
       style="fill:none;stroke:#000000;stroke-width:0.28346458;stroke-linecap:round;stroke-linejoin:miter;stroke-miterlimit:4;stroke-dasharray:none;stroke-opacity:1"
       d="m 158.5824,109.45152 v 78.739" /><path
       inkscape:connector-curvature="0"
       id="path870-1"
       style="fill:none;stroke:#000000;stroke-width:0.28346458;stroke-linecap:round;stroke-linejoin:miter;stroke-miterlimit:4;stroke-dasharray:none;stroke-opacity:1"
       d="m 153.62178,219.68504 c 0,1.27311 -0.5072,2.49481 -1.4057,3.39671 -0.90198,0.90277 -2.1203,1.40644 -3.39702,1.40644 -1.27323,0 -2.49591,-0.50367 -3.39789,-1.40644 -0.90198,-0.9019 -1.40569,-2.1236 -1.40569,-3.39671 0,-1.27311 0.50371,-2.49482 1.40569,-3.39671 0.90198,-0.89929 2.12466,-1.40644 3.39789,-1.40644 1.27672,0 2.49504,0.50715 3.39702,1.40644 0.8985,0.90189 1.4057,2.1236 1.4057,3.39671 z" /><path
       inkscape:connector-curvature="0"
       id="path870-1-2"
       style="fill:none;stroke:#000000;stroke-width:0.28346458;stroke-linecap:round;stroke-linejoin:miter;stroke-miterlimit:4;stroke-dasharray:none;stroke-opacity:1"
       d="m 153.62178,77.952746 c 0,1.27311 -0.5072,2.49481 -1.4057,3.39671 -0.90198,0.90277 -2.1203,1.40644 -3.39702,1.40644 -1.27323,0 -2.49591,-0.50367 -3.39789,-1.40644 -0.90198,-0.9019 -1.40569,-2.1236 -1.40569,-3.39671 0,-1.27311 0.50371,-2.49482 1.40569,-3.39671 0.90198,-0.899286 2.12466,-1.406436 3.39789,-1.406436 1.27672,0 2.49504,0.50715 3.39702,1.406436 0.8985,0.90189 1.4057,2.1236 1.4057,3.39671 z" /><path
       inkscape:connector-curvature="0"
       id="path870-1-2-2"
       style="fill:none;stroke:#000000;stroke-width:0.28346458;stroke-linecap:round;stroke-linejoin:miter;stroke-miterlimit:4;stroke-dasharray:none;stroke-opacity:1"
       d="m 82.755913,148.81902 c 0,1.27311 -0.5072,2.49481 -1.4057,3.39671 -0.90198,0.90277 -2.1203,1.40644 -3.39702,1.40644 -1.27323,0 -2.49591,-0.50367 -3.397887,-1.40644 -0.90198,-0.9019 -1.40569,-2.1236 -1.40569,-3.39671 0,-1.27311 0.50371,-2.49482 1.40569,-3.39671 0.901977,-0.89929 2.124657,-1.40644 3.397887,-1.40644 1.27672,0 2.49504,0.50715 3.39702,1.40644 0.8985,0.90189 1.4057,2.1236 1.4057,3.39671 z" /><path
       inkscape:connector-curvature="0"
       id="path870-1-2-0"
       style="fill:none;stroke:#000000;stroke-width:0.28346458;stroke-linecap:round;stroke-linejoin:miter;stroke-miterlimit:4;stroke-dasharray:none;stroke-opacity:1"
       d="m 224.4882,148.81902 c 0,1.27311 -0.5072,2.49481 -1.4057,3.39671 -0.90198,0.90277 -2.1203,1.40644 -3.39702,1.40644 -1.27323,0 -2.49591,-0.50367 -3.39789,-1.40644 -0.90198,-0.9019 -1.40569,-2.1236 -1.40569,-3.39671 0,-1.27311 0.50371,-2.49482 1.40569,-3.39671 0.90198,-0.89929 2.12466,-1.40644 3.39789,-1.40644 1.27672,0 2.49504,0.50715 3.39702,1.40644 0.8985,0.90189 1.4057,2.1236 1.4057,3.39671 z" /><rect
       style="opacity:0.97000002;fill:none;fill-opacity:1;stroke:#000000;stroke-width:0.28346458;stroke-linecap:butt;stroke-linejoin:round;stroke-miterlimit:4;stroke-dasharray:none;stroke-dashoffset:3.0999999;stroke-opacity:1"
       id="rect1304"
       width="297.37207"
       height="566.66339"
       x="0.13287403"
       y="-566.79626"
       transform="scale(1,-1)"
       ry="0.39604667"
       rx="0.43544129" /><path
       inkscape:connector-curvature="0"
       id="path872"
       style="fill:none;stroke:#000000;stroke-width:0.28346458;stroke-linecap:round;stroke-linejoin:miter;stroke-miterlimit:4;stroke-dasharray:none;stroke-opacity:1"
       d="M 26.750378,409.89399 H 88.848056 V 534.41074 H 26.750378 Z" /><path
       inkscape:connector-curvature="0"
       id="path872-3"
       style="fill:none;stroke:#000000;stroke-width:0.28346458;stroke-linecap:round;stroke-linejoin:miter;stroke-miterlimit:4;stroke-dasharray:none;stroke-opacity:1"
       d="m 132.28301,409.89399 h 62.09786 v 124.51675 h -62.09786 z" /><path
       inkscape:connector-curvature="0"
       id="path872-2"
       style="fill:none;stroke:#000000;stroke-width:0.28346458;stroke-linecap:round;stroke-linejoin:miter;stroke-miterlimit:4;stroke-dasharray:none;stroke-opacity:1"
       d="m 207.79531,409.89399 h 62.09786 v 124.51675 h -62.09786 z" /><path
       inkscape:connector-curvature="0"
       id="path846"
       style="fill:none;stroke:#000000;stroke-width:0.28346458;stroke-linecap:round;stroke-linejoin:miter;stroke-miterlimit:4;stroke-dasharray:none;stroke-opacity:1"
       d="m 28.990266,552.59918 c -8.071663,0 -14.650555,-6.96295 -14.650555,-15.5114 V 29.826497 c 0,-8.545944 6.578892,-15.504332 14.650555,-15.504332 H 268.65275 c 8.07851,0 14.65377,6.958388 14.65377,15.504332 V 283.45723 c 0,8.54934 -6.57526,15.5114 -14.65377,15.5114 H 114.20482 c -6.63107,0 -11.97869,5.65483 -11.97869,12.66967 v 225.44948 c 0,8.54845 -6.571872,15.5114 -14.650384,15.5114 z m 0,-2.83457 h 58.58548 c 6.628514,0 11.978683,-5.6584 11.978683,-12.67683 V 311.6383 c 0,-8.54576 6.572731,-15.50424 14.650391,-15.50424 h 154.44793 c 6.63191,0 11.97869,-5.65841 11.97869,-12.67683 V 29.826497 c 0,-7.014757 -5.34678,-12.669851 -11.97869,-12.669851 H 28.990266 c -6.625139,0 -11.975388,5.655094 -11.975388,12.669851 V 537.08778 c 0,7.01843 5.350249,12.67683 11.975388,12.67683 z" /><path
       inkscape:connector-curvature="0"
       id="path932"
       style="fill:none;stroke:#000000;stroke-width:0.28346458;stroke-linecap:butt;stroke-linejoin:miter;stroke-miterlimit:4;stroke-dasharray:none;stroke-opacity:1"
       d="M 340.32789,14.343627 H 609.27842 V 283.29416 H 340.32789 Z" /><path
       inkscape:connector-curvature="0"
       id="path946"
       style="fill:none;stroke:#000000;stroke-width:0.28346458;stroke-linecap:butt;stroke-linejoin:miter;stroke-miterlimit:4;stroke-dasharray:none;stroke-opacity:1"
       d="m 415.41788,86.600016 h 118.77 V 211.03802 h -118.77 z" /><path
       inkscape:connector-curvature="0"
       id="path870-1-1"
       style="fill:none;stroke:#000000;stroke-width:0.28346458;stroke-linecap:round;stroke-linejoin:miter;stroke-miterlimit:4;stroke-dasharray:none;stroke-opacity:1"
       d="m 479.60575,219.68517 c 0,1.27311 -0.5072,2.49481 -1.4057,3.39671 -0.90198,0.90277 -2.1203,1.40644 -3.39702,1.40644 -1.27323,0 -2.49591,-0.50367 -3.39789,-1.40644 -0.90198,-0.9019 -1.40569,-2.1236 -1.40569,-3.39671 0,-1.27311 0.50371,-2.49482 1.40569,-3.39671 0.90198,-0.89929 2.12466,-1.40644 3.39789,-1.40644 1.27672,0 2.49504,0.50715 3.39702,1.40644 0.8985,0.90189 1.4057,2.1236 1.4057,3.39671 z" /><path
       inkscape:connector-curvature="0"
       id="path870-1-2-7"
       style="fill:none;stroke:#000000;stroke-width:0.28346458;stroke-linecap:round;stroke-linejoin:miter;stroke-miterlimit:4;stroke-dasharray:none;stroke-opacity:1"
       d="m 479.60575,77.95287 c 0,1.27311 -0.5072,2.49481 -1.4057,3.39672 -0.90198,0.90276 -2.1203,1.40643 -3.39702,1.40643 -1.27323,0 -2.49591,-0.50367 -3.39789,-1.40643 -0.90198,-0.90191 -1.40569,-2.12361 -1.40569,-3.39672 0,-1.27311 0.50371,-2.49482 1.40569,-3.39671 0.90198,-0.89929 2.12466,-1.40644 3.39789,-1.40644 1.27672,0 2.49504,0.50715 3.39702,1.40644 0.8985,0.90189 1.4057,2.1236 1.4057,3.39671 z" /><path
       inkscape:connector-curvature="0"
       id="path870-1-2-2-1"
       style="fill:none;stroke:#000000;stroke-width:0.28346458;stroke-linecap:round;stroke-linejoin:miter;stroke-miterlimit:4;stroke-dasharray:none;stroke-opacity:1"
       d="m 408.73988,148.81915 c 0,1.27311 -0.5072,2.49481 -1.4057,3.39671 -0.90198,0.90277 -2.1203,1.40644 -3.39702,1.40644 -1.27323,0 -2.49591,-0.50367 -3.39788,-1.40644 -0.90198,-0.9019 -1.40569,-2.1236 -1.40569,-3.39671 0,-1.27311 0.50371,-2.49482 1.40569,-3.39671 0.90197,-0.89929 2.12465,-1.40644 3.39788,-1.40644 1.27672,0 2.49504,0.50715 3.39702,1.40644 0.8985,0.90189 1.4057,2.1236 1.4057,3.39671 z" /><path
       inkscape:connector-curvature="0"
       id="path870-1-2-0-1"
       style="fill:none;stroke:#000000;stroke-width:0.28346458;stroke-linecap:round;stroke-linejoin:miter;stroke-miterlimit:4;stroke-dasharray:none;stroke-opacity:1"
       d="m 550.47218,148.81915 c 0,1.27311 -0.50721,2.49481 -1.40571,3.39671 -0.90198,0.90277 -2.1203,1.40644 -3.39702,1.40644 -1.27323,0 -2.49591,-0.50367 -3.39789,-1.40644 -0.90198,-0.9019 -1.40568,-2.1236 -1.40568,-3.39671 0,-1.27311 0.5037,-2.49482 1.40568,-3.39671 0.90198,-0.89929 2.12466,-1.40644 3.39789,-1.40644 1.27672,0 2.49504,0.50715 3.39702,1.40644 0.8985,0.90189 1.40571,2.1236 1.40571,3.39671 z" /></g></svg>