<?xml version="1.0" encoding="UTF-8" standalone="no"?>
<svg xmlns:svg="http://www.w3.org/2000/svg" xmlns="http://www.w3.org/2000/svg"
     version="1.1" width="575px" height="575px" viewBox="-2 -2 182 182">
    <defs />
    <g transform="translate(-3476.2,-556.6)"
         id="layer1">
        <path
             d="M 3565,556.9 3569.5,556.9 3574,557.2 3578.5,557.8 3582.7,558.7 3587.2,559.6 3591.4,560.8 3595.3,562.3 3599.5,563.8 3603.4,565.6 3607.3,567.4 3610.9,569.8 3614.5,571.9 3618.1,574.3 3621.4,577 3624.4,580 3627.7,582.7 3630.4,586 3633.4,589 3636.1,592.3 3638.5,595.9 3640.6,599.5 3643,603.1 3644.8,607 3646.6,610.9 3648.1,615.1 3649.6,619 3650.8,623.2 3651.7,627.7 3652.6,631.9 3653.2,636.4 3653.5,640.9 3653.5,649.9 3653.2,654.4 3652.6,658.9 3651.7,663.1 3650.8,667.6 3649.6,671.8 3648.1,675.7 3646.6,679.9 3644.8,683.8 3643,687.7 3640.6,691.3 3638.5,694.9 3636.1,698.5 3633.4,701.8 3630.4,704.8 3627.7,708.1 3624.4,710.8 3621.4,713.8 3618.1,716.5 3614.5,718.9 3610.9,721 3607.3,723.4 3603.4,725.2 3599.5,727 3595.3,728.5 3591.4,730 3587.2,731.2 3582.7,732.1 3578.5,733 3574,733.6 3569.5,733.9 3560.5,733.9 3556,733.6 3551.5,733 3547.3,732.1 3542.8,731.2 3538.6,730 3534.7,728.5 3530.5,727 3526.6,725.2 3522.7,723.4 3519.1,721 3515.5,718.9 3511.9,716.5 3508.6,713.8 3505.6,710.8 3502.3,708.1 3499.6,704.8 3496.6,701.8 3493.9,698.5 3491.5,694.9 3489.4,691.3 3487,687.7 3483.4,679.9 3481.9,675.7 3480.4,671.8 3479.2,667.6 3478.3,663.1 3477.4,658.9 3476.8,654.4 3476.5,649.9 3476.5,640.9 3476.8,636.4 3477.4,631.9 3478.3,627.7 3479.2,623.2 3480.4,619 3481.9,615.1 3483.4,610.9 3487,603.1 3489.4,599.5 3491.5,595.9 3493.9,592.3 3496.6,589 3499.6,586 3502.3,582.7 3505.6,580 3508.6,577 3511.9,574.3 3515.5,571.9 3519.1,569.8 3522.7,567.4 3526.6,565.6 3530.5,563.8 3534.7,562.3 3538.6,560.8 3542.8,559.6 3547.3,558.7 3551.5,557.8 3556,557.2 3560.5,556.9 3565,556.9"
             style="fill:none;stroke:#000000;stroke-width:0.5;" />
        <path
             d="M 3565,561.1 3569.2,561.4 3573.7,561.7 3577.9,562.3 3581.8,562.9 3586,563.8 3593.8,566.2 3597.7,568 3601.3,569.5 3605.2,571.3 3608.5,573.4 3612.1,575.5 3615.4,577.9 3618.4,580.6 3621.4,583 3624.4,586 3627.1,588.7 3629.8,592 3632.5,595 3634.9,598.3 3637,601.9 3639.1,605.2 3640.9,608.8 3645.4,620.5 3646.6,624.4 3647.5,628.3 3648.1,632.5 3648.7,636.7 3649,641.2 3649.3,645.4 3649,649.6 3648.7,654.1 3648.1,658.3 3647.5,662.2 3646.6,666.4 3645.4,670.3 3643.9,674.2 3642.4,678.1 3640.9,681.7 3639.1,685.6 3637,688.9 3634.9,692.5 3632.5,695.8 3624.4,704.8 3615.4,712.9 3612.1,715.3 3608.5,717.4 3605.2,719.5 3601.3,721.3 3597.7,722.8 3589.9,725.8 3586,727 3581.8,727.9 3577.9,728.5 3573.7,729.1 3569.2,729.4 3565,729.7 3560.8,729.4 3556.3,729.1 3552.1,728.5 3548.2,727.9 3544,727 3540.1,725.8 3532.3,722.8 3528.7,721.3 3524.8,719.5 3521.5,717.4 3517.9,715.3 3514.6,712.9 3511.6,710.2 3508.6,707.5 3505.6,704.8 3500.2,698.8 3497.5,695.8 3495.1,692.5 3493,688.9 3490.9,685.6 3489.1,681.7 3487.6,678.1 3486.1,674.2 3484.6,670.3 3483.4,666.4 3482.5,662.2 3481.9,658.3 3481.3,654.1 3481,649.6 3480.7,645.4 3481,641.2 3481.3,636.7 3481.9,632.5 3482.5,628.3 3483.4,624.4 3484.6,620.5 3486.1,616.6 3489.1,608.8 3490.9,605.2 3493,601.9 3495.1,598.3 3497.5,595 3500.2,592 3502.9,588.7 3505.6,586 3508.6,583 3511.6,580.6 3514.6,577.9 3517.9,575.5 3521.5,573.4 3524.8,571.3 3528.7,569.5 3532.3,568 3536.2,566.2 3544,563.8 3548.2,562.9 3552.1,562.3 3556.3,561.7 3560.8,561.4 3565,561.1"
             style="fill:#004488;fill-opacity:1;fill-rule:evenodd;stroke:none;" />
        <path
             d="M 3561.4,675.7 3568.6,675.7 3568.6,682 3561.4,682 3561.4,675.7 z M 3601,601 3600.7,604.3 3614.5,609.1 3628.6,698.5 3602.8,698.5 3598.6,655.9 3597.7,677.2 3570.1,677.2 3572.2,613.3 3571.9,613.3 3570.4,613.6 3566.8,614.2 3563.2,614.2 3561.7,613.9 3559.9,613.6 3558.4,613.3 3559.6,677.2 3532,677.2 3531.4,657.4 3527.2,698.5 3501.4,698.5 3515.5,609.1 3529.3,604.3 3529,600.7 3545.2,598.3 3546.7,601 3548.5,603.4 3550.6,605.2 3553,607 3555.7,608.2 3558.7,609.1 3561.7,609.4 3565,609.7 3568.3,609.4 3571.6,609.1 3574.3,608.2 3577,607 3579.4,605.5 3581.5,603.7 3583.3,601.3 3585.1,598.6 3601,601 z M 3597.7,680.8 3597.4,682 3597.4,683.5 3597.1,685 3596.8,686.5 3596.5,687.7 3595.9,688.9 3595.3,690.1 3594.7,691 3594.1,691.9 3594.1,716.2 3536.2,716.2 3536.2,692.2 3535.3,691.3 3534.7,690.4 3534.1,689.2 3533.5,688 3532.9,686.8 3532.6,685.3 3532.3,683.8 3532.3,680.8 3559.9,680.8 3559.9,682 3559.6,684.1 3559.3,685.9 3558.7,687.7 3557.8,689.5 3556.9,690.7 3555.7,692.2 3552.7,694 3551.2,694.9 3549.7,695.5 3547.9,695.8 3546.4,696.1 3544.6,696.1 3542.8,695.8 3541.3,695.5 3539.8,694.9 3539.8,712.6 3590.5,712.6 3590.5,694.6 3589,695.5 3587.2,695.8 3585.4,696.1 3583.9,696.1 3582.1,695.8 3580.3,695.5 3578.8,694.9 3577.3,694.3 3575.8,693.4 3574.3,692.2 3573.1,691 3571.9,689.5 3571.3,687.7 3570.4,686.2 3570.1,684.1 3570.1,680.8 3597.7,680.8 z M 3600.7,607.9 3599.5,631.6 3606.1,695.2 3624.4,695.2 3611.5,611.8 3600.7,607.9 z M 3530.5,633.1 3529.3,607.9 3518.8,611.8 3505.6,695.2 3523.9,695.2 3530.5,633.1 z M 3565,571 3566.8,571 3568.3,571.3 3569.8,571.6 3571.3,572.2 3574,573.7 3576.4,575.5 3578.2,577.9 3579.7,580.6 3580.3,582.1 3580.6,583.6 3580.9,585.4 3581.2,586.9 3580.9,588.7 3580.6,590.2 3580.3,591.7 3579.7,593.2 3578.2,595.9 3576.4,598.3 3574,600.1 3571.3,601.6 3569.8,602.2 3568.3,602.5 3566.8,602.8 3565,603.1 3563.5,602.8 3562,602.5 3560.2,602.2 3559,601.6 3556,600.1 3553.9,598.3 3551.8,595.9 3550.3,593.2 3549.7,591.7 3549.4,590.2 3549.1,588.7 3549.1,585.4 3549.4,583.6 3549.7,582.1 3550.3,580.6 3551.8,577.9 3553.9,575.5 3556,573.7 3559,572.2 3560.2,571.6 3562,571.3 3563.5,571 3565,571 z M 3565,567.4 3567.1,567.4 3568.9,567.7 3571,568.3 3572.8,568.9 3574.3,569.8 3576.1,570.7 3577.6,571.9 3578.8,573.1 3580,574.6 3582.4,577.6 3583.6,581.2 3584.2,583 3584.5,584.8 3584.5,589 3584.2,590.8 3583.6,592.6 3583,594.4 3582.4,596.2 3581.2,598 3580,599.5 3578.8,600.7 3577.6,601.9 3576.1,603.1 3574.3,604 3572.8,604.9 3571,605.5 3568.9,606.1 3567.1,606.4 3563.2,606.4 3561.1,606.1 3557.5,604.9 3555.7,604 3554.2,603.1 3552.7,601.9 3551.2,600.7 3550,599.5 3548.8,598 3547.9,596.2 3547,594.4 3546.4,592.6 3545.8,590.8 3545.5,589 3545.5,584.8 3545.8,583 3546.4,581.2 3547,579.4 3547.9,577.6 3548.8,576.1 3550,574.6 3551.2,573.1 3552.7,571.9 3554.2,570.7 3555.7,569.8 3557.5,568.9 3561.1,567.7 3563.2,567.4 3565,567.4"
             style="fill:#ffffff;fill-opacity:1;fill-rule:evenodd;stroke:none;" />
    </g>
</svg>
