<?xml version="1.0" encoding="UTF-8" standalone="no"?>
<svg xmlns:svg="http://www.w3.org/2000/svg" xmlns="http://www.w3.org/2000/svg"
     version="1.1" width="575px" height="575px" viewBox="-2 -2 579 579">
    <defs />
    <g
         transform="translate(-967.28,-842.5)"
         id="layer1">
        <g
             id="g12375">
            <g
                 transform="translate(859.55,600.68)"
                 id="g9604">
                <path
                     d="M 287,8.6562 C 218.47,8.6562 155.72,33.604 107.28,74.906 106.01,75.99 104.75,77.081 103.5,78.188 103,78.632 102.5,79.083 102,79.531 100.93,80.492 99.868,81.461 98.813,82.438 98.531,82.698 98.249,82.957 97.969,83.219 96.719,84.384 95.478,85.562 94.25,86.75 92.842,88.112 91.441,89.484 90.063,90.875 88.71,92.24 87.356,93.607 86.031,95 84.657,96.446 83.312,97.931 81.969,99.406 81.815,99.575 81.653,99.737 81.5,99.906 80.339,101.19 79.2,102.48 78.063,103.78 76.82,105.2 75.62,106.65 74.406,108.09 74.359,108.15 74.297,108.19 74.25,108.25 33.754,156.63 9.3437,218.98 9.3437,287.03 9.3437,440.69 133.72,565.37 287,565.37 355.68,565.37 418.54,540.3 467.03,498.84 L 467.06,498.87 C 467.45,498.54 467.83,498.21 468.22,497.87 468.37,497.74 468.53,497.6 468.69,497.47 469.63,496.65 470.57,495.83 471.5,495 472.23,494.35 472.96,493.69 473.69,493.03 473.9,492.84 474.11,492.66 474.31,492.47 475.28,491.58 476.23,490.68 477.19,489.78 478.05,488.97 478.9,488.16 479.75,487.34 479.87,487.23 479.98,487.11 480.09,487 481.18,485.94 482.24,484.89 483.31,483.81 483.62,483.5 483.94,483.19 484.25,482.87 485.5,481.61 486.74,480.32 487.97,479.03 488.09,478.9 488.22,478.78 488.34,478.66 489.75,477.17 491.16,475.67 492.53,474.16 493.79,472.77 495.02,471.35 496.25,469.94 496.48,469.68 496.71,469.42 496.94,469.16 497.99,467.94 499.03,466.71 500.06,465.47 540.39,417.15 564.69,354.92 564.69,287.03 564.69,133.38 440.28,8.6562 287,8.6562 z"
                     transform="translate(107.73,241.82)"
                     id="path1979"
                     style="fill:#004488;fill-opacity:1;stroke:none;" />
                <path
                     d="M 55.097,-177.14 A 165.98,120.53 0 1 1 -276.86,-177.14 165.98,120.53 0 1 1 55.097,-177.14 z"
                     transform="matrix(1.7265,0,0,2.3776,586.17,950.01)"
                     id="path1870"
                     style="fill:none;stroke:#000000;stroke-width:1;" />
            </g>
            <g>
                <g transform="translate(867.74,628.2)"
                     style="fill:none;stroke:#ffffff;stroke-width:14;stroke-linecap:butt;stroke-linejoin:miter;stroke-miterlimit:4;stroke-opacity:1;">
                    <path
                         d="M 388.19,333.94 C 494.39,284.39 516.68,362.64 588.33,358.68" />
                    <path
                         d="M 388.52,334.1 C 282.33,284.54 256.41,362.64 184.76,358.68" />
                </g>
                <g transform="translate(867.74,904.2)"
                    style="fill:none;stroke:#ffffff;stroke-width:14;stroke-linecap:butt;stroke-linejoin:miter;stroke-miterlimit:4;stroke-opacity:1;">
                    <path
                         d="M 386.08,335.26 C 492.28,285.7 516.68,362.64 588.33,358.68" />
                    <path
                         d="M 391.95,335.28 C 285.75,285.72 256.41,362.64 184.76,358.68" />
            </g>
            <g style="fill:none;stroke:#ffffff;stroke-width:14;stroke-linecap:butt;stroke-linejoin:miter;stroke-miterlimit:4;stroke-opacity:1;">
                <path d="M 1055.8,979.8 1055.8,1269.9" />
                <path d="M 1456.1,979.8 1456.1,1269.9" />
                <path d="M 1256.3,958.15 1256.3,1237.1" />
            </g>
                <path
                     d="M 500.74,397.51 A 17.163,17.517 0 1 1 466.41,397.51 17.163,17.517 0 1 1 500.74,397.51 z"
                     transform="matrix(1.4266,0,0,1.3977,671.98,477.29)"
                     style="fill:#ffffff;fill-opacity:1;stroke:none;" />
                <path
                     d="M 1318.9,1076.1 1318.9,1089.2 1340.9,1089.2 1340.9,1162.1 1318.9,1162.1 1318.9,1176.3 1409.5,1176.3 1409.5,1162.1 1388.3,1162.1 1388.3,1089.2 1388.3,1083.9 1388.3,1076.1 1318.9,1076.1 z"
                     id="rect12330"
                     style="fill:#ffffff;fill-opacity:1;stroke:none;" />
            </g>
        </g>
    </g>
</svg>
